<svg width="24" height="23" viewBox="0 0 24 23" fill="none" xmlns="http://www.w3.org/2000/svg">
<path d="M2.5 1.37992L10.08 8.22992C10.1203 8.25576 10.1671 8.2695 10.215 8.2695C10.2629 8.2695 10.3097 8.25576 10.35 8.22992C10.3947 8.2104 10.4328 8.17822 10.4594 8.13735C10.4861 8.09648 10.5002 8.04871 10.5 7.99992V2.51992C10.4957 2.22848 10.5764 1.94211 10.7322 1.69581C10.8881 1.4495 11.1123 1.25393 11.3775 1.133C11.6427 1.01207 11.9374 0.971027 12.2255 1.01488C12.5137 1.05873 12.7828 1.18557 13 1.37992L23.49 10.8599C23.6489 11.0043 23.7759 11.1802 23.8628 11.3766C23.9497 11.5729 23.9946 11.7852 23.9946 11.9999C23.9946 12.2146 23.9497 12.4269 23.8628 12.6233C23.7759 12.8196 23.6489 12.9956 23.49 13.1399L13 22.6099C12.7834 22.8037 12.5152 22.9303 12.228 22.9745C11.9408 23.0187 11.6469 22.9785 11.3821 22.8588C11.1173 22.7391 10.893 22.5451 10.7364 22.3003C10.5798 22.0555 10.4977 21.7705 10.5 21.4799V15.9999C10.5002 15.9511 10.4861 15.9033 10.4594 15.8625C10.4328 15.8216 10.3947 15.7894 10.35 15.7699C10.3097 15.7441 10.2629 15.7303 10.215 15.7303C10.1671 15.7303 10.1203 15.7441 10.08 15.7699L2.5 22.6099C2.28342 22.8037 2.01522 22.9303 1.72801 22.9745C1.4408 23.0187 1.14693 22.9785 0.882135 22.8588C0.617338 22.7391 0.393007 22.5451 0.236406 22.3003C0.0798054 22.0555 -0.00232315 21.7705 3.8147e-06 21.4799V2.47992C0.00344849 2.19189 0.0897541 1.91094 0.248604 1.67065C0.407454 1.43036 0.632132 1.24089 0.895788 1.12488C1.15944 1.00887 1.45093 0.971232 1.7354 1.01646C2.01988 1.06168 2.28532 1.18786 2.5 1.37992Z" fill="#FAFAFA"/>
</svg>
