<svg width="32" height="32" viewBox="0 0 32 32" fill="none" xmlns="http://www.w3.org/2000/svg">
<path d="M30.024 12.8229L5.12214 0.365789C4.62963 0.129041 4.09082 0.00415134 3.54434 7.42186e-05C3.07997 -0.00293995 2.61959 0.0858828 2.18971 0.261429C1.75982 0.436976 1.36891 0.69578 1.03949 1.02294C0.710062 1.3501 0.448626 1.73917 0.270227 2.16773C0.091828 2.59629 -9.78969e-06 3.05589 7.82711e-10 3.52007L7.82712e-10 28.4801C-9.78969e-06 28.9443 0.091828 29.4039 0.270227 29.8324C0.448626 30.261 0.710062 30.65 1.03949 30.9772C1.36891 31.3044 1.75982 31.5632 2.18971 31.7387C2.61959 31.9143 3.07997 32.0031 3.54434 32.0001C4.09082 31.996 4.62963 31.8711 5.12214 31.6344L30.024 19.1772C30.6171 18.8847 31.1165 18.4321 31.4657 17.8706C31.8149 17.3091 32 16.6612 32 16.0001C32 15.3389 31.8149 14.691 31.4657 14.1295C31.1165 13.5681 30.6171 13.1155 30.024 12.8229V12.8229Z" fill="#FAFAFA"/>
</svg>
