<svg width="75" height="75" viewBox="0 0 75 75" fill="none" xmlns="http://www.w3.org/2000/svg">
<circle cx="37.5" cy="37.5" r="22.5" fill="#8A939C"/>
<path d="M37.5 0C16.7913 0 0 16.7913 0 37.5C0 58.2087 16.7913 75 37.5 75C58.2087 75 75 58.2087 75 37.5C75 16.7913 58.2087 0 37.5 0ZM49.5619 38.0776L31.2807 51.3783C31.1805 51.4504 31.0623 51.4934 30.9393 51.5026C30.8162 51.5119 30.693 51.487 30.5831 51.4308C30.4732 51.3745 30.381 51.2891 30.3165 51.1839C30.2521 51.0787 30.2178 50.9577 30.2176 50.8343V24.2494C30.2172 24.1258 30.2511 24.0044 30.3154 23.8988C30.3798 23.7932 30.4721 23.7075 30.5822 23.6511C30.6923 23.5948 30.8158 23.57 30.9391 23.5796C31.0624 23.5892 31.1806 23.6327 31.2807 23.7054L49.5619 36.9978C49.6483 37.0588 49.7188 37.1398 49.7674 37.2337C49.816 37.3276 49.8414 37.4319 49.8414 37.5377C49.8414 37.6435 49.816 37.7477 49.7674 37.8416C49.7188 37.9356 49.6483 38.0165 49.5619 38.0776Z" fill="white"/>
</svg>
