<svg width="24" height="23" viewBox="0 0 24 23" fill="none" xmlns="http://www.w3.org/2000/svg">
<path d="M21.5 1.37992L13.92 8.22992C13.8797 8.25576 13.8329 8.2695 13.785 8.2695C13.7371 8.2695 13.6903 8.25576 13.65 8.22992C13.6053 8.2104 13.5672 8.17822 13.5406 8.13735C13.5139 8.09648 13.4998 8.04871 13.5 7.99992V2.51992C13.5043 2.22848 13.4236 1.94211 13.2678 1.69581C13.1119 1.4495 12.8877 1.25393 12.6225 1.133C12.3573 1.01207 12.0626 0.971027 11.7745 1.01488C11.4863 1.05873 11.2172 1.18557 11 1.37992L0.509997 10.8599C0.351065 11.0043 0.224071 11.1802 0.137167 11.3766C0.0502637 11.5729 0.00537109 11.7852 0.00537109 11.9999C0.00537109 12.2146 0.0502637 12.4269 0.137167 12.6233C0.224071 12.8196 0.351065 12.9956 0.509997 13.1399L11 22.6099C11.2166 22.8037 11.4848 22.9303 11.772 22.9745C12.0592 23.0187 12.3531 22.9785 12.6179 22.8588C12.8827 22.7391 13.107 22.5451 13.2636 22.3003C13.4202 22.0555 13.5023 21.7705 13.5 21.4799V15.9999C13.4998 15.9511 13.5139 15.9033 13.5406 15.8625C13.5672 15.8216 13.6053 15.7894 13.65 15.7699C13.6903 15.7441 13.7371 15.7303 13.785 15.7303C13.8329 15.7303 13.8797 15.7441 13.92 15.7699L21.5 22.6099C21.7166 22.8037 21.9848 22.9303 22.272 22.9745C22.5592 23.0187 22.8531 22.9785 23.1179 22.8588C23.3827 22.7391 23.607 22.5451 23.7636 22.3003C23.9202 22.0555 24.0023 21.7705 24 21.4799V2.47992C23.9966 2.19189 23.9102 1.91094 23.7514 1.67065C23.5925 1.43036 23.3679 1.24089 23.1042 1.12488C22.8406 1.00887 22.5491 0.971232 22.2646 1.01646C21.9801 1.06168 21.7147 1.18786 21.5 1.37992Z" fill="#FAFAFA"/>
</svg>
