<svg width="24" height="30" viewBox="0 0 24 30" fill="none" xmlns="http://www.w3.org/2000/svg">
<path d="M7.33333 0.333252H2C0.89543 0.333252 0 1.22868 0 2.33325V27.6666C0 28.7712 0.89543 29.6666 2 29.6666H7.33333C8.4379 29.6666 9.33333 28.7712 9.33333 27.6666V2.33325C9.33333 1.22868 8.4379 0.333252 7.33333 0.333252Z" fill="#FAFAFA"/>
<path d="M22.0001 0.333252H16.6667C15.5622 0.333252 14.6667 1.22868 14.6667 2.33325V27.6666C14.6667 28.7712 15.5622 29.6666 16.6667 29.6666H22.0001C23.1047 29.6666 24.0001 28.7712 24.0001 27.6666V2.33325C24.0001 1.22868 23.1047 0.333252 22.0001 0.333252Z" fill="#FAFAFA"/>
</svg>
