<svg width="20" height="20" viewBox="0 0 20 20" fill="none" xmlns="http://www.w3.org/2000/svg">
<path d="M1.66699 4.99984C1.66699 4.11578 2.01818 3.26794 2.6433 2.64281C3.26842 2.01769 4.11627 1.6665 5.00032 1.6665H15.0003C15.8844 1.6665 16.7322 2.01769 17.3573 2.64281C17.9825 3.26794 18.3337 4.11578 18.3337 4.99984V14.9998C18.3337 15.8839 17.9825 16.7317 17.3573 17.3569C16.7322 17.982 15.8844 18.3332 15.0003 18.3332H5.00032C4.11627 18.3332 3.26842 17.982 2.6433 17.3569C2.01818 16.7317 1.66699 15.8839 1.66699 14.9998V4.99984Z" stroke="#6E80C1" stroke-width="1.5" stroke-linecap="round" stroke-linejoin="round"/>
<path d="M7.08333 9.16667C8.23393 9.16667 9.16667 8.23393 9.16667 7.08333C9.16667 5.93274 8.23393 5 7.08333 5C5.93274 5 5 5.93274 5 7.08333C5 8.23393 5.93274 9.16667 7.08333 9.16667Z" stroke="#6E80C1" stroke-width="1.5" stroke-linecap="round" stroke-linejoin="round"/>
<path d="M12.105 10.5171L5 18.3329H15.1108C15.9655 18.3329 16.7851 17.9934 17.3895 17.3891C17.9938 16.7847 18.3333 15.9651 18.3333 15.1104V14.9996C18.3333 14.6113 18.1875 14.4621 17.925 14.1746L14.5667 10.5121C14.4101 10.3414 14.2198 10.2051 14.0076 10.1121C13.7955 10.019 13.5664 9.97121 13.3347 9.97168C13.1031 9.97215 12.8741 10.0209 12.6624 10.1148C12.4507 10.2087 12.2608 10.3457 12.105 10.5171V10.5171Z" stroke="#6E80C1" stroke-width="1.5" stroke-linecap="round" stroke-linejoin="round"/>
</svg>
