<svg width="25" height="24" viewBox="0 0 25 24" fill="none" xmlns="http://www.w3.org/2000/svg">
<g clip-path="url(#clip0_267:1800)">
<path d="M20.6356 0H5.20708C2.84132 0.0028125 0.924199 1.91993 0.921387 4.28569V19.7143C0.924199 22.08 2.84132 23.9971 5.20708 24H20.6356C23.0014 23.9971 24.9185 22.08 24.9213 19.7143V4.28569C24.9185 1.91993 23.0014 0.0028125 20.6356 0ZM23.2071 19.7143C23.2071 21.1344 22.0558 22.2857 20.6356 22.2857H5.20708C3.78692 22.2857 2.63565 21.1344 2.63565 19.7143V4.28569C2.63565 2.86553 3.78692 1.71427 5.20708 1.71427H20.6356C22.0558 1.71427 23.2071 2.86553 23.2071 4.28569V19.7143Z" fill="white"/>
<path d="M17.2071 11.1429H13.7785V7.71427C13.7785 7.24087 13.3948 6.85712 12.9213 6.85712C12.4479 6.85712 12.0642 7.24087 12.0642 7.71427V11.1429H8.63566C8.16226 11.1429 7.7785 11.5266 7.7785 12C7.7785 12.4734 8.16226 12.8571 8.63566 12.8571H12.0642V16.2857C12.0642 16.7591 12.448 17.1429 12.9214 17.1429C13.3948 17.1429 13.7785 16.7591 13.7785 16.2857V12.8571H17.2071C17.6805 12.8571 18.0642 12.4734 18.0642 12C18.0642 11.5266 17.6804 11.1429 17.2071 11.1429Z" fill="white"/>
</g>
<defs>
<clipPath id="clip0_267:1800">
<rect width="24" height="24" fill="white" transform="translate(0.921387)"/>
</clipPath>
</defs>
</svg>
