<svg width="25" height="24" viewBox="0 0 25 24" fill="none" xmlns="http://www.w3.org/2000/svg">
<g clip-path="url(#clip0)">
<path d="M-7.62939e-06 22H14.5833V24H-7.62939e-06V22Z" fill="white"/>
<path d="M12.5004 19.9837C12.5004 19.7185 12.3907 19.4641 12.1953 19.2766C12 19.0891 11.735 18.9837 11.4587 18.9837H3.12541C2.84914 18.9837 2.58419 19.0891 2.38884 19.2766C2.19349 19.4641 2.08374 19.7185 2.08374 19.9837V21H12.5004V19.9837Z" fill="white"/>
<path d="M14.1733 11.8077C13.6879 12.3043 13.2809 12.8664 12.9652 13.4762L21.5392 21.7072C21.7345 21.8947 21.9994 22 22.2756 22C22.5518 22 22.8167 21.8947 23.0121 21.7072L24.4853 20.2929C24.582 20.2001 24.6587 20.0898 24.7111 19.9685C24.7634 19.8472 24.7904 19.7171 24.7904 19.5858C24.7904 19.4545 24.7634 19.3244 24.7111 19.2031C24.6587 19.0818 24.582 18.9715 24.4853 18.8787L15.9113 10.6499C15.275 10.9504 14.6891 11.3406 14.1733 11.8077Z" fill="white"/>
<path d="M9.01729 6.85793C8.22956 7.55972 7.3177 8.12094 6.32458 8.51518L11.7084 13.6837C12.1228 12.7319 12.708 11.8574 13.4373 11.0999C14.2252 10.3982 15.137 9.83689 16.1301 9.44243L10.7459 4.27493C10.3314 5.22632 9.74637 6.10056 9.01729 6.85793Z" fill="white"/>
<path d="M12.6987 0.495516L11.2258 1.90952C10.8191 2.29998 10.8191 2.93305 11.2258 3.32352L17.1175 8.97952C17.5242 9.36998 18.1837 9.36998 18.5904 8.97952L20.0633 7.56552C20.4701 7.17505 20.4701 6.54198 20.0633 6.15152L14.1717 0.495516C13.7649 0.105051 13.1055 0.105051 12.6987 0.495516Z" fill="white"/>
<path d="M3.85925 8.97913L2.38633 10.3931C1.9796 10.7836 1.9796 11.4167 2.38633 11.8071L8.278 17.4631C8.68473 17.8536 9.34418 17.8536 9.75091 17.4631L11.2238 16.0491C11.6306 15.6587 11.6306 15.0256 11.2238 14.6351L5.33216 8.97913C4.92543 8.58866 4.26598 8.58866 3.85925 8.97913Z" fill="white"/>
</g>
<defs>
<clipPath id="clip0">
<rect width="25" height="24" fill="white"/>
</clipPath>
</defs>
</svg>
