<svg width="21" height="19" viewBox="0 0 21 19" fill="none" xmlns="http://www.w3.org/2000/svg">
<path d="M1 4.27583C1 3.40703 1.40036 2.57381 2.11299 1.95947C2.82563 1.34513 3.79218 1 4.8 1H16.2C17.2078 1 18.1744 1.34513 18.887 1.95947C19.5996 2.57381 20 3.40703 20 4.27583V14.1033C20 14.9721 19.5996 15.8054 18.887 16.4197C18.1744 17.034 17.2078 17.3792 16.2 17.3792H4.8C3.79218 17.3792 2.82563 17.034 2.11299 16.4197C1.40036 15.8054 1 14.9721 1 14.1033V4.27583Z" stroke="#A2B6FF" stroke-width="1.5" stroke-linecap="round" stroke-linejoin="round"/>
<path d="M7.87891 6.35179V12.352C7.87891 12.696 8.28233 12.9066 8.59595 12.7277L13.3944 9.9863C13.5107 9.91995 13.6069 9.82676 13.6736 9.71566C13.7404 9.60456 13.7754 9.47929 13.7754 9.35188C13.7754 9.22447 13.7404 9.0992 13.6736 8.9881C13.6069 8.877 13.5107 8.7838 13.3944 8.71746L8.59447 5.97746C8.52308 5.93697 8.44147 5.91495 8.35797 5.91364C8.27448 5.91233 8.19212 5.93178 8.11931 5.97C8.04651 6.00823 7.98588 6.06385 7.94364 6.13118C7.9014 6.1985 7.87906 6.27511 7.87891 6.35316V6.35179Z" fill="#A2B6FF"/>
</svg>
