<svg width="73" height="74" viewBox="0 0 73 74" fill="none" xmlns="http://www.w3.org/2000/svg">
<circle cx="36.5" cy="36.8401" r="36.5" fill="#FF9900"/>
<path d="M51.3238 37.308C51.318 41.1138 49.8036 44.762 47.1126 47.453C44.4215 50.1441 40.7733 51.6584 36.9676 51.6642C33.1615 51.6589 29.5127 50.1448 26.821 47.4537C24.1293 44.7627 22.6143 41.1142 22.6081 37.308C22.613 33.5012 24.1274 29.8516 26.8193 27.1597C29.5112 24.4679 33.1607 22.9534 36.9676 22.9486C40.1674 22.9486 43.0978 24.0023 45.4813 25.7686L42.5007 28.7526L56.6009 32.526L52.8208 18.4308L49.6595 21.5921C46.0705 18.6805 41.5891 17.0924 36.9676 17.0944C25.8045 17.0994 16.759 26.1433 16.7556 37.308C16.759 48.4728 25.8045 57.5184 36.9676 57.5184C48.1307 57.5184 57.178 48.4728 57.178 37.308H51.3238Z" fill="white"/>
</svg>
