<svg width="25" height="25" viewBox="0 0 25 25" fill="none" xmlns="http://www.w3.org/2000/svg">
<path d="M17 12.2998C17 9.81854 14.9813 7.7998 12.5 7.7998C10.0187 7.7998 8 9.81854 8 12.2998C8 14.7811 10.0187 16.7998 12.5 16.7998C14.9813 16.7998 17 14.7811 17 12.2998ZM12.5 14.9248C11.0526 14.9248 9.875 13.7473 9.875 12.2998C9.875 10.8524 11.0526 9.6748 12.5 9.6748C13.9474 9.6748 15.125 10.8524 15.125 12.2998C15.125 13.7473 13.9474 14.9248 12.5 14.9248ZM5.9375 12.2998C5.9375 13.3679 6.18579 14.3863 6.67523 15.3262C6.91437 15.7854 6.73602 16.3516 6.27679 16.5907C6.13837 16.6628 5.99042 16.6969 5.84448 16.6969C5.5061 16.6969 5.17944 16.5132 5.01227 16.1923C4.39099 14.9991 4.0625 13.6531 4.0625 12.2998C4.0625 11.782 4.48218 11.3623 5 11.3623C5.51782 11.3623 5.9375 11.782 5.9375 12.2998ZM7.36554 17.8464C7.66766 17.426 8.25342 17.3301 8.67401 17.6324C8.79779 17.7214 8.92615 17.8071 9.05542 17.8869C9.49579 18.159 9.6322 18.7367 9.35992 19.1772C9.18268 19.464 8.87579 19.6218 8.56158 19.6218C8.39349 19.6218 8.22321 19.5766 8.06958 19.4818C7.90369 19.3792 7.73889 19.2692 7.57977 19.1549C7.15936 18.8528 7.06342 18.267 7.36554 17.8464ZM12.0237 23.3918C11.9637 23.8653 11.5601 24.2114 11.0948 24.2114C11.0557 24.2114 11.0157 24.2088 10.9758 24.2039C5.00366 23.4462 0.5 18.3286 0.5 12.2998C0.5 9.09454 1.74823 6.08099 4.01471 3.81451C6.28119 1.54803 9.29474 0.299805 12.5 0.299805C16.506 0.299805 20.2291 2.27698 22.4597 5.58862C22.7488 6.01801 22.6353 6.60065 22.2057 6.88995C21.7763 7.17926 21.1937 7.06555 20.9044 6.63599C19.0229 3.84253 15.8812 2.1748 12.5 2.1748C6.91711 2.1748 2.375 6.71692 2.375 12.2998C2.375 17.3867 6.17407 21.7047 11.2117 22.3437C11.7255 22.4089 12.0889 22.8782 12.0237 23.3918ZM13.4375 12.2998C13.4375 12.8176 13.0178 13.2373 12.5 13.2373C11.9822 13.2373 11.5625 12.8176 11.5625 12.2998C11.5625 11.782 11.9822 11.3623 12.5 11.3623C13.0178 11.3623 13.4375 11.782 13.4375 12.2998ZM24.1519 8.80377C23.9318 8.62579 23.6432 8.55695 23.3662 8.61609L19.8727 9.36389C18.8871 9.5697 18.1719 10.4492 18.1719 11.4562V18.0546C17.7454 17.8514 17.2686 17.7373 16.7656 17.7373C14.9564 17.7373 13.4844 19.2093 13.4844 21.0186C13.4844 22.8278 14.9564 24.2998 16.7656 24.2998C18.5542 24.2998 20.0121 22.8611 20.0452 21.0804C20.0456 21.07 20.0469 21.0599 20.0469 21.0493V15.0387L22.6439 14.4821C23.7194 14.2532 24.5 13.2891 24.5 12.1896V9.5329C24.5 9.24982 24.372 8.98175 24.1519 8.80377ZM16.7656 22.4248C15.9902 22.4248 15.3594 21.794 15.3594 21.0186C15.3594 20.2431 15.9902 19.6123 16.7656 19.6123C17.5411 19.6123 18.1719 20.2431 18.1719 21.0186C18.1719 21.794 17.5411 22.4248 16.7656 22.4248ZM22.625 12.1896C22.625 12.4095 22.4688 12.6023 22.2524 12.6483L20.0469 13.121V11.4562C20.0469 11.3325 20.1349 11.2244 20.2562 11.1993C20.2582 11.199 20.2602 11.1984 20.2624 11.1981L22.625 10.6923V12.1896Z" fill="#7F8391"/>
</svg>
