<svg width="22" height="22" viewBox="0 0 22 22" fill="none" xmlns="http://www.w3.org/2000/svg">
<path d="M7.33331 16.5L9.16665 14.6667H11L12.2466 13.42C13.521 13.864 14.9082 13.8622 16.1814 13.415C17.4546 12.9678 18.5383 12.1017 19.2551 10.9584C19.9719 9.81506 20.2794 8.46229 20.1272 7.12145C19.9751 5.78062 19.3722 4.53115 18.4175 3.57755C17.4627 2.62395 16.2124 2.0227 14.8714 1.8722C13.5304 1.72171 12.178 2.03088 11.0356 2.74912C9.89316 3.46736 9.02839 4.55213 8.58279 5.82588C8.1372 7.09963 8.13717 8.48691 8.58273 9.76067L1.83331 16.5V20.1667H5.49998L7.33331 18.3333V16.5Z" stroke="#B1BBD2" stroke-width="1.5" stroke-linecap="round" stroke-linejoin="round"/>
<path d="M15.5833 7.33333C16.0896 7.33333 16.5 6.92293 16.5 6.41667C16.5 5.91041 16.0896 5.5 15.5833 5.5C15.077 5.5 14.6666 5.91041 14.6666 6.41667C14.6666 6.92293 15.077 7.33333 15.5833 7.33333Z" stroke="#B1BBD2" stroke-width="1.5" stroke-linecap="round" stroke-linejoin="round"/>
</svg>
