<svg width="20" height="18" viewBox="0 0 20 18" fill="none" xmlns="http://www.w3.org/2000/svg">
<path d="M1.20801 12.1781C1.20801 13.274 1.64334 14.325 2.41824 15.0999C3.19314 15.8748 4.24413 16.3101 5.34001 16.3101C6.43588 16.3101 7.48687 15.8748 8.26177 15.0999C9.03667 14.325 9.47201 13.274 9.47201 12.1781C9.47201 11.0823 9.03667 10.0313 8.26177 9.25638C7.48687 8.48148 6.43588 8.04614 5.34001 8.04614C4.24413 8.04614 3.19314 8.48148 2.41824 9.25638C1.64334 10.0313 1.20801 11.0823 1.20801 12.1781V12.1781Z" stroke="#B1BBD2" stroke-width="2" stroke-linecap="round" stroke-linejoin="round"/>
<path d="M8.26172 9.25611L15.6257 1.89211C15.755 1.76326 15.9302 1.69092 16.1127 1.69092C16.2953 1.69092 16.4704 1.76326 16.5997 1.89211L18.7997 4.09211" stroke="#B1BBD2" stroke-width="2" stroke-linecap="round" stroke-linejoin="round"/>
<path d="M13.1914 4.32617L15.3814 6.51817" stroke="#B1BBD2" stroke-width="2" stroke-linecap="round" stroke-linejoin="round"/>
</svg>
