<svg width="26" height="22" viewBox="0 0 26 22" fill="none" xmlns="http://www.w3.org/2000/svg">
<path d="M25.9996 5.375C25.9996 6.41047 25.1912 7.25 24.194 7.25C24.1829 7.25 24.1735 7.24405 24.1623 7.24391L21.8819 20.2705C21.7565 20.9797 21.1607 21.5 20.4611 21.5H5.53815C4.8403 21.5 4.24176 20.9816 4.11718 20.2686L1.83721 7.24531C1.82593 7.24531 1.81645 7.25 1.76454 7.25C0.767422 7.25 -0.0410156 6.41047 -0.0410156 5.375C-0.0410156 4.33953 0.808047 3.5 1.76454 3.5C2.72103 3.5 3.57009 4.33953 3.57009 5.375C3.57009 5.79678 3.41116 6.16672 3.18474 6.47984L7.23054 9.84078C7.9487 10.4375 9.01353 10.1944 9.42474 9.34016L12.0247 3.94016C11.5145 3.60969 11.1534 3.04719 11.1534 2.375C11.1534 1.33953 12.002 0.5 12.9996 0.5C13.9972 0.5 14.7645 1.33953 14.7645 2.375C14.7645 3.04719 14.4051 3.60969 13.8934 3.94063L16.4934 9.34063C16.9046 10.1947 17.9698 10.4375 18.6876 9.84125L22.7334 6.48031C22.5465 6.16719 22.3885 5.75469 22.3885 5.375C22.3885 4.33906 23.1965 3.5 24.194 3.5C25.1916 3.5 25.9996 4.33906 25.9996 5.375Z" fill="#FFD735"/>
</svg>
