<svg width="16" height="12" viewBox="0 0 16 12" fill="none" xmlns="http://www.w3.org/2000/svg">
<path fill-rule="evenodd" clip-rule="evenodd" d="M15.6651 0.351359C15.8795 0.576402 16 0.881584 16 1.1998C16 1.51801 15.8795 1.82319 15.6651 2.04823L6.51406 11.6486C6.29955 11.8736 6.00865 12 5.70534 12C5.40202 12 5.11112 11.8736 4.89662 11.6486L0.3211 6.84844C0.112733 6.6221 -0.00256299 6.31897 4.32416e-05 6.00432C0.00264948 5.68967 0.12295 5.38868 0.335034 5.16618C0.547119 4.94368 0.834018 4.81748 1.13394 4.81474C1.43386 4.81201 1.72281 4.93297 1.93854 5.15156L5.70534 9.10333L14.0476 0.351359C14.2622 0.126384 14.5531 0 14.8564 0C15.1597 0 15.4506 0.126384 15.6651 0.351359Z" fill="#68F9FC"/>
</svg>
