<svg width="16" height="14" viewBox="0 0 16 14" fill="none" xmlns="http://www.w3.org/2000/svg">
<path d="M8.00004 0C3.58129 0 0.000878903 2.90937 0.000878903 6.5C0.000878903 7.98844 0.623066 9.35156 1.65432 10.4438C1.18932 11.6781 0.220879 12.7213 0.205254 12.7328C-0.00177735 12.9516 -0.0564648 13.2719 0.0607227 13.5453C0.181848 13.8188 0.44941 14 0.750035 14C2.67191 14 4.15941 13.1953 5.09691 12.5547C5.97191 12.8375 6.97816 13 8.00004 13C12.4188 13 15.9719 10.0897 15.9719 6.5C15.9719 2.91031 12.4188 0 8.00004 0ZM8.00316 11.5C7.16722 11.5 6.34316 11.3711 5.55379 11.1213L4.84285 10.8986L4.23347 11.3283C3.78816 11.6445 3.17472 11.9964 2.4366 12.2345C2.66707 11.8558 2.88566 11.4298 3.05785 10.9767L3.38972 10.1017L2.74535 9.41828C2.18191 8.81563 1.50222 7.81875 1.50222 6.5C1.50222 3.74219 4.41629 1.5 8.00222 1.5C11.5882 1.5 14.5022 3.74219 14.5022 6.5C14.5022 9.25781 11.5875 11.5 8.00316 11.5Z" fill="#6E80C1"/>
</svg>
