<svg width="82" height="82" viewBox="0 0 82 82" fill="none" xmlns="http://www.w3.org/2000/svg">
<path d="M41 0C33.5794 0 26.7194 1.82845 20.4199 5.48535C14.1204 9.14225 9.14225 14.1204 5.48535 20.4199C1.82845 26.7194 0 33.5794 0 41C0 48.4206 1.82845 55.2806 5.48535 61.5801C9.14225 67.8796 14.1204 72.8577 20.4199 76.5146C26.7194 80.1715 33.5794 82 41 82C48.4206 82 55.2806 80.1715 61.5801 76.5146C67.8796 72.8577 72.8577 67.8796 76.5146 61.5801C80.1715 55.2806 82 48.4206 82 41C82 33.5794 80.1715 26.7194 76.5146 20.4199C72.8577 14.1204 67.8796 9.14225 61.5801 5.48535C55.2806 1.82845 48.4206 0 41 0ZM41 76.9551C37.1029 76.9551 33.3258 76.3545 29.6689 75.1533C26.012 73.9521 22.7155 72.2305 19.7793 69.9883C16.8431 67.7461 14.2673 65.1569 12.0518 62.2207C9.83626 59.2845 8.12793 55.988 6.92676 52.3311C5.72559 48.6742 5.125 44.8971 5.125 41C5.125 36.1419 6.07259 31.4974 7.96777 27.0664C9.86296 22.6354 12.4121 18.8184 15.6152 15.6152C18.8184 12.4121 22.6354 9.86296 27.0664 7.96777C31.4974 6.07259 36.1419 5.125 41 5.125C45.8581 5.125 50.5026 6.07259 54.9336 7.96777C59.3646 9.86296 63.1816 12.4121 66.3848 15.6152C69.5879 18.8184 72.137 22.6354 74.0322 27.0664C75.9274 31.4974 76.875 36.1419 76.875 41C76.875 45.8581 75.9274 50.5026 74.0322 54.9336C72.137 59.3646 69.5879 63.195 66.3848 66.4248C63.1816 69.6546 59.3646 72.2171 54.9336 74.1123C50.5026 76.0075 45.8581 76.9551 41 76.9551Z" fill="#68F9FC"/>
<path fill-rule="evenodd" clip-rule="evenodd" d="M60.7648 27.1291C61.3173 27.6817 61.6276 28.4311 61.6276 29.2125C61.6276 29.9939 61.3173 30.7433 60.7648 31.2959L37.1898 54.8709C36.6372 55.4234 35.8878 55.7337 35.1064 55.7337C34.325 55.7337 33.5755 55.4234 33.0229 54.8709L21.2354 43.0834C20.6986 42.5277 20.4016 41.7833 20.4083 41.0106C20.415 40.2379 20.7249 39.4988 21.2713 38.9525C21.8177 38.4061 22.5568 38.0962 23.3295 38.0895C24.1021 38.0827 24.8465 38.3798 25.4023 38.9166L35.1064 48.6206L56.5979 27.1291C57.1506 26.5766 57.9 26.2663 58.6814 26.2663C59.4628 26.2663 60.2122 26.5766 60.7648 27.1291Z" fill="#68F9FC"/>
</svg>
