<svg width="60" height="54" viewBox="0 0 60 54" fill="none" xmlns="http://www.w3.org/2000/svg">
<path d="M16.875 21.375C14.8007 21.375 13.125 23.0508 13.125 25.125C13.125 27.1992 14.8007 28.875 16.875 28.875C18.9492 28.875 20.625 27.1992 20.625 25.125C20.625 23.0508 18.9492 21.375 16.875 21.375ZM30 21.375C27.9257 21.375 26.25 23.0508 26.25 25.125C26.25 27.1992 27.9257 28.875 30 28.875C32.0742 28.875 33.75 27.1992 33.75 25.125C33.75 23.0508 32.0742 21.375 30 21.375ZM43.125 21.375C41.0507 21.375 39.375 23.0508 39.375 25.125C39.375 27.1992 41.0507 28.875 43.125 28.875C45.1992 28.875 46.875 27.1992 46.875 25.125C46.875 23.0508 45.1992 21.375 43.125 21.375ZM30 0.75C13.4297 0.75 -3.49768e-05 11.6602 -3.49768e-05 25.125C-3.49768e-05 30.7031 2.332 35.8125 6.19918 39.9258C4.45309 44.543 0.820278 48.457 0.761684 48.5039C-0.0117537 49.3242 -0.222691 50.5195 0.222621 51.5508C0.667934 52.582 1.68746 53.25 2.81246 53.25C10.0195 53.25 15.7031 50.2383 19.1132 47.8242C22.5 48.8906 26.1562 49.5 30 49.5C46.5703 49.5 60 38.5898 60 25.125C60 11.6602 46.5703 0.75 30 0.75ZM30 43.875C26.8711 43.875 23.7773 43.3945 20.8125 42.457L18.1523 41.6133L15.8672 43.2305C14.1914 44.4141 11.8945 45.7383 9.12887 46.6289C9.98434 45.2109 10.8164 43.6172 11.4609 41.918L12.7031 38.625L10.289 36.0703C8.16793 33.8086 5.62497 30.0703 5.62497 25.125C5.62497 14.7891 16.5586 6.375 30 6.375C43.4414 6.375 54.375 14.7891 54.375 25.125C54.375 35.4609 43.4414 43.875 30 43.875Z" fill="#6E80C1"/>
</svg>
