<svg width="25" height="24" viewBox="0 0 25 24" fill="none" xmlns="http://www.w3.org/2000/svg">
<path d="M23.5 4H15.5C15.5 3.20435 15.1839 2.44129 14.6213 1.87868C14.0587 1.31607 13.2956 1 12.5 1C11.7044 1 10.9413 1.31607 10.3787 1.87868C9.81607 2.44129 9.5 3.20435 9.5 4H1.5V6H2.5V17C2.5 17.7956 2.81607 18.5587 3.37868 19.1213C3.94129 19.6839 4.70435 20 5.5 20H11.5V21H8.5V23H16.5V21H13.5V20H19.5C20.2956 20 21.0587 19.6839 21.6213 19.1213C22.1839 18.5587 22.5 17.7956 22.5 17V6H23.5V4ZM12.5 3C12.7652 3 13.0196 3.10536 13.2071 3.29289C13.3946 3.48043 13.5 3.73478 13.5 4H11.5C11.5 3.73478 11.6054 3.48043 11.7929 3.29289C11.9804 3.10536 12.2348 3 12.5 3ZM20.5 17C20.5 17.2652 20.3946 17.5196 20.2071 17.7071C20.0196 17.8946 19.7652 18 19.5 18H5.5C5.23478 18 4.98043 17.8946 4.79289 17.7071C4.60536 17.5196 4.5 17.2652 4.5 17V6H20.5V17ZM13.79 9.29C13.8934 9.19106 14.0159 9.1143 14.15 9.06443C14.2842 9.01456 14.4271 8.99263 14.57 9C14.7133 9.01033 14.8526 9.05141 14.9786 9.12043C15.1046 9.18946 15.2142 9.28481 15.3 9.4L18.3 13.4L16.7 14.6L14.39 11.52L11.21 14.71C11.1166 14.8027 11.0057 14.876 10.8839 14.9258C10.7621 14.9755 10.6316 15.0008 10.5 15H10.43C10.2867 14.9897 10.1474 14.9486 10.0214 14.8796C9.89543 14.8105 9.78581 14.7152 9.7 14.6L6.7 10.6L8.3 9.4L10.61 12.48L13.79 9.29Z" fill="white"/>
</svg>
