<svg width="18" height="21" viewBox="0 0 18 21" fill="none" xmlns="http://www.w3.org/2000/svg">
<path d="M11.1484 20.5H3.6875C1.96432 20.5 0.5625 19.0982 0.5625 17.375V6.78906C0.5625 5.06589 1.96432 3.66406 3.6875 3.66406H11.1484C12.8716 3.66406 14.2734 5.06589 14.2734 6.78906V17.375C14.2734 19.0982 12.8716 20.5 11.1484 20.5ZM3.6875 5.22656C2.82599 5.22656 2.125 5.92755 2.125 6.78906V17.375C2.125 18.2365 2.82599 18.9375 3.6875 18.9375H11.1484C12.0099 18.9375 12.7109 18.2365 12.7109 17.375V6.78906C12.7109 5.92755 12.0099 5.22656 11.1484 5.22656H3.6875ZM17.3984 15.4219V3.625C17.3984 1.90182 15.9966 0.5 14.2734 0.5H5.60156C5.17004 0.5 4.82031 0.849731 4.82031 1.28125C4.82031 1.71277 5.17004 2.0625 5.60156 2.0625H14.2734C15.1349 2.0625 15.8359 2.76349 15.8359 3.625V15.4219C15.8359 15.8534 16.1857 16.2031 16.6172 16.2031C17.0487 16.2031 17.3984 15.8534 17.3984 15.4219Z" fill="white"/>
</svg>
