<svg width="16" height="16" viewBox="0 0 16 16" fill="none" xmlns="http://www.w3.org/2000/svg">
<path d="M9.0464 14.88L8.376 15.1328C8.13363 15.2241 7.86636 15.2241 7.624 15.1328L6.9536 14.88C5.27118 14.2549 3.81924 13.1319 2.79131 11.6606C1.76338 10.1893 1.20828 8.43964 1.2 6.64485V3.56965C2.47718 3.75178 3.77983 3.59131 4.97464 3.10468C6.16944 2.61804 7.21351 1.8227 8 0.800049C8.78074 1.82928 9.82401 2.62949 11.0204 3.11678C12.2168 3.60407 13.5223 3.7605 14.8 3.56965V6.64485C14.7917 8.43964 14.2366 10.1893 13.2087 11.6606C12.1808 13.1319 10.7288 14.2549 9.0464 14.88V14.88Z" stroke="#68F9FC" stroke-width="1.6" stroke-linecap="round" stroke-linejoin="round"/>
</svg>
