<svg width="20" height="20" viewBox="0 0 20 20" fill="none" xmlns="http://www.w3.org/2000/svg">
<path d="M19.0003 11.31L11.7623 18.55L8.48828 19L8.93828 15.726L16.1763 8.48804L19.0003 11.31Z" stroke="#B1BBD2" stroke-width="2" stroke-linecap="round" stroke-linejoin="round"/>
<path d="M3.5 4.5C3.5 5.42826 3.86875 6.3185 4.52513 6.97487C5.1815 7.63125 6.07174 8 7 8C7.92826 8 8.8185 7.63125 9.47487 6.97487C10.1313 6.3185 10.5 5.42826 10.5 4.5C10.5 3.57174 10.1313 2.6815 9.47487 2.02513C8.8185 1.36875 7.92826 1 7 1C6.07174 1 5.1815 1.36875 4.52513 2.02513C3.86875 2.6815 3.5 3.57174 3.5 4.5Z" stroke="#B1BBD2" stroke-width="2" stroke-linecap="round" stroke-linejoin="round"/>
<path d="M8.898 11.306C7.99589 11.0052 7.03519 10.9231 6.09512 11.0666C5.15505 11.21 4.26253 11.5748 3.49115 12.1309C2.71977 12.687 2.09162 13.4185 1.65849 14.2651C1.22537 15.1117 0.999666 16.0491 1 17V19H4" stroke="#B1BBD2" stroke-width="2" stroke-linecap="round" stroke-linejoin="round"/>
</svg>
