<svg width="13" height="13" viewBox="0 0 13 13" fill="none" xmlns="http://www.w3.org/2000/svg">
<path d="M6.5 13C10.0899 13 13 10.0899 13 6.5C13 2.91015 10.0899 0 6.5 0C2.91015 0 0 2.91015 0 6.5C0 10.0899 2.91015 13 6.5 13Z" fill="#F13F87"/>
<path d="M5.21021 9.87697L6.04121 9.40697C6.16782 9.34132 6.30919 9.30932 6.45174 9.31404C6.59428 9.31877 6.73321 9.36009 6.8552 9.43398L7.7002 9.88997C7.84182 9.96841 8.00289 10.0048 8.16447 9.9948C8.32606 9.98482 8.48142 9.92891 8.61231 9.83364C8.74319 9.73836 8.84415 9.60768 8.9033 9.45699C8.96245 9.30629 8.97734 9.14183 8.94621 8.98296L8.7842 7.99095C8.76656 7.85237 8.78081 7.7116 8.82587 7.57936C8.87093 7.44713 8.94561 7.32693 9.04421 7.22795L9.7342 6.54598C9.84918 6.43004 9.93078 6.28526 9.97039 6.12685C10.01 5.96844 10.0062 5.80227 9.95927 5.64586C9.91239 5.48945 9.82421 5.34859 9.704 5.23809C9.58378 5.12758 9.436 5.05154 9.27621 5.01796L8.3372 4.89296C8.20303 4.86353 8.07719 4.8043 7.969 4.71965C7.86082 4.63501 7.77305 4.52714 7.7122 4.40398L7.2832 3.50395C7.21817 3.35561 7.11216 3.22893 6.97762 3.13875C6.84307 3.04857 6.68559 2.99864 6.52367 2.99486C6.36174 2.99108 6.2021 3.03362 6.0635 3.11742C5.9249 3.20122 5.81309 3.32283 5.7412 3.46797L5.3012 4.34496C5.23973 4.46788 5.15007 4.57453 5.03954 4.65621C4.92902 4.73789 4.80076 4.79228 4.66521 4.81496L3.7342 4.94997C3.57557 4.97259 3.42647 5.03927 3.30387 5.14244C3.18127 5.24562 3.09008 5.38112 3.0407 5.53356C2.99131 5.68599 2.9857 5.84925 3.02451 6.00472C3.06331 6.16018 3.14497 6.30164 3.2602 6.41298L3.91621 7.12996C4.01654 7.23026 4.08932 7.35475 4.1275 7.49138C4.16569 7.62802 4.168 7.77218 4.1342 7.90996L3.96021 8.89296C3.932 9.05354 3.94794 9.21877 4.00633 9.37099C4.06471 9.52321 4.16334 9.6567 4.2917 9.75722C4.42005 9.85775 4.5733 9.92152 4.73507 9.94173C4.89684 9.96194 5.06107 9.93783 5.21021 9.87197" fill="#FCEBF2"/>
<path d="M3.99146 8.91772L4.16547 7.93375C4.19346 7.79021 4.18535 7.64195 4.14189 7.50232C4.09843 7.36269 4.02097 7.23603 3.91647 7.13373L3.26046 6.41574C3.11626 6.27194 3.02555 6.08317 3.00337 5.88074C2.98118 5.6783 3.02885 5.47436 3.13847 5.30273C2.83847 5.98473 4.29446 6.41073 4.84946 6.79373C5.01094 6.88833 5.13616 7.03421 5.20519 7.20816C5.27423 7.38211 5.28312 7.57414 5.23046 7.75372C5.23046 7.75372 4.93046 8.43574 4.53846 9.24774C4.20846 9.90574 4.80347 9.96372 4.99947 9.96472C4.85888 9.98713 4.71496 9.97532 4.57993 9.93024C4.44489 9.88516 4.32273 9.80815 4.22379 9.70578C4.12486 9.60341 4.05209 9.47869 4.01164 9.34219C3.9712 9.2057 3.96427 9.06146 3.99146 8.92172" fill="white"/>
<path d="M7.82642 5.66395C7.64926 5.65461 7.47927 5.59098 7.33955 5.48167C7.19982 5.37235 7.09713 5.22266 7.04543 5.05296C7.04543 5.05296 6.89742 4.37796 6.78242 3.52396C6.61142 2.67896 5.98242 3.20496 5.98242 3.20496C6.08066 3.11968 6.19767 3.05882 6.32391 3.02738C6.45014 2.99594 6.58203 2.9948 6.70879 3.02406C6.83555 3.05331 6.95359 3.11214 7.05328 3.19572C7.15298 3.27929 7.2315 3.38524 7.28242 3.50495L7.71143 4.40495C7.77215 4.52819 7.85988 4.63617 7.96809 4.72083C8.07629 4.80549 8.20219 4.86467 8.33643 4.89396L9.28342 5.07496C9.48221 5.11238 9.66142 5.21875 9.78947 5.37534C9.91753 5.53193 9.98621 5.72868 9.98342 5.93095C9.96042 5.96295 9.96742 6.01997 9.92142 6.08497C9.85942 5.42597 8.47343 5.71496 7.82143 5.66496" fill="#FCD8E7"/>
</svg>
