<svg width="53" height="52" viewBox="0 0 53 52" fill="none" xmlns="http://www.w3.org/2000/svg">
<path d="M12.5 26C12.512 31.1688 11.3223 36.2697 9.02498 40.9C8.89694 41.1478 8.70337 41.3558 8.46534 41.5013C8.22731 41.6467 7.95394 41.7241 7.67498 41.725C7.44191 41.7232 7.21186 41.6721 6.99998 41.575C6.64489 41.3929 6.37533 41.0789 6.24914 40.7003C6.12294 40.3217 6.15017 39.9087 6.32498 39.55C8.42553 35.3427 9.51282 30.7025 9.49998 26C9.49222 23.3757 10.0799 20.7837 11.2188 18.4194C12.3576 16.055 14.0181 13.9798 16.075 12.35C16.2266 12.2245 16.4018 12.1307 16.5903 12.074C16.7788 12.0173 16.9767 11.9989 17.1724 12.0198C17.3681 12.0408 17.5576 12.1007 17.7298 12.1961C17.902 12.2914 18.0534 12.4203 18.175 12.575C18.4219 12.884 18.5369 13.278 18.4947 13.6713C18.4526 14.0646 18.2568 14.4253 17.95 14.675C16.2446 16.028 14.8682 17.75 13.9242 19.7115C12.9803 21.6731 12.4933 23.8231 12.5 26ZM27 24.5C26.6022 24.5 26.2206 24.658 25.9393 24.9393C25.658 25.2206 25.5 25.6022 25.5 26C25.5039 33.8782 23.5082 41.6284 19.7 48.525C19.603 48.6953 19.5408 48.8832 19.5173 49.0777C19.4937 49.2723 19.5091 49.4696 19.5626 49.6581C19.6162 49.8467 19.7067 50.0226 19.829 50.1758C19.9513 50.3289 20.1029 50.4561 20.275 50.55C20.4463 50.651 20.6363 50.7164 20.8335 50.7421C21.0307 50.7678 21.2311 50.7534 21.4226 50.6997C21.6141 50.646 21.7928 50.5541 21.9478 50.4295C22.1029 50.305 22.2312 50.1504 22.325 49.975C26.3819 42.6358 28.5068 34.3858 28.5 26C28.5 25.6022 28.3419 25.2206 28.0606 24.9393C27.7793 24.658 27.3978 24.5 27 24.5ZM27 16.5C24.4804 16.5 22.0641 17.5009 20.2825 19.2825C18.5009 21.0641 17.5 23.4804 17.5 26C17.5 26.3978 17.658 26.7794 17.9393 27.0607C18.2206 27.342 18.6022 27.5 19 27.5C19.3978 27.5 19.7793 27.342 20.0606 27.0607C20.3419 26.7794 20.5 26.3978 20.5 26C20.5 24.2761 21.1848 22.6228 22.4038 21.4038C23.6228 20.1848 25.2761 19.5 27 19.5C28.7239 19.5 30.3772 20.1848 31.5962 21.4038C32.8152 22.6228 33.5 24.2761 33.5 26C33.5179 34.0215 31.7502 41.9465 28.325 49.2C28.2407 49.3788 28.1926 49.5726 28.1834 49.7701C28.1743 49.9675 28.2042 50.1649 28.2716 50.3508C28.339 50.5366 28.4424 50.7073 28.576 50.8531C28.7096 50.9988 28.8707 51.1167 29.05 51.2C29.2442 51.2969 29.4579 51.3482 29.675 51.35C29.9602 51.3485 30.2395 51.2684 30.4821 51.1184C30.7247 50.9685 30.9212 50.7545 31.05 50.5C34.6636 42.8394 36.5254 34.4701 36.5 26C36.5 23.4804 35.4991 21.0641 33.7175 19.2825C31.9359 17.5009 29.5195 16.5 27 16.5ZM27 0.5C20.241 0.513214 13.7627 3.20406 8.98335 7.98337C4.20404 12.7627 1.5132 19.241 1.49998 26C1.50573 28.5544 1.07451 31.091 0.224982 33.5C0.148496 33.6879 0.110908 33.8893 0.114492 34.0921C0.118076 34.2949 0.162758 34.4949 0.245834 34.68C0.32891 34.865 0.448655 35.0313 0.597828 35.1687C0.747001 35.3062 0.922503 35.4119 1.11372 35.4796C1.30494 35.5473 1.50789 35.5755 1.71032 35.5625C1.91275 35.5495 2.11043 35.4956 2.29143 35.4041C2.47243 35.3125 2.63297 35.1852 2.76335 35.0298C2.89373 34.8744 2.99124 34.6941 3.04998 34.5C4.02002 31.7715 4.51059 28.8958 4.49998 26C4.49998 20.0326 6.87051 14.3097 11.0901 10.0901C15.3096 5.87053 21.0326 3.5 27 3.5C32.9674 3.5 38.6903 5.87053 42.9099 10.0901C47.1295 14.3097 49.5 20.0326 49.5 26C49.4999 30.5986 49.0562 35.1866 48.175 39.7C48.1349 39.8938 48.1335 40.0935 48.1709 40.2878C48.2083 40.4821 48.2838 40.6671 48.3931 40.832C48.5023 40.997 48.6431 41.1388 48.8073 41.2491C48.9715 41.3595 49.156 41.4362 49.35 41.475H49.65C49.9954 41.4716 50.3294 41.351 50.5974 41.133C50.8654 40.915 51.0514 40.6125 51.125 40.275C52.0325 35.5707 52.4929 30.7911 52.5 26C52.4934 19.239 49.8046 12.7568 45.0239 7.97609C40.2432 3.19534 33.761 0.506619 27 0.5ZM18.5 32.525C18.11 32.4572 17.7089 32.5411 17.3789 32.7596C17.0488 32.9781 16.8149 33.3145 16.725 33.7C15.9102 37.7444 14.4408 41.6288 12.375 45.2C12.273 45.3698 12.2062 45.5584 12.1787 45.7546C12.1512 45.9507 12.1634 46.1504 12.2148 46.3418C12.2661 46.5331 12.3554 46.7121 12.4775 46.8682C12.5995 47.0242 12.7517 47.1541 12.925 47.25C13.15 47.3886 13.4108 47.4582 13.675 47.45C13.9395 47.4555 14.2004 47.3885 14.4296 47.2563C14.6587 47.1241 14.8473 46.9317 14.975 46.7C17.1977 42.8461 18.7848 38.659 19.675 34.3C19.7151 34.1062 19.7165 33.9065 19.679 33.7122C19.6416 33.5179 19.5661 33.3329 19.4569 33.168C19.3477 33.003 19.2069 32.8612 19.0427 32.7509C18.8784 32.6405 18.694 32.5638 18.5 32.525ZM27 8.5C26.2733 8.50355 25.5473 8.54528 24.825 8.625C24.4272 8.67473 24.0654 8.88046 23.8192 9.19692C23.5731 9.51339 23.4628 9.91468 23.5125 10.3125C23.5622 10.7103 23.7679 11.0721 24.0844 11.3182C24.4009 11.5644 24.8022 11.6747 25.2 11.625C25.7967 11.5452 26.3979 11.5035 27 11.5C30.8456 11.5 34.5338 13.0277 37.253 15.747C39.9723 18.4662 41.5 22.1544 41.5 26C41.5052 28.6157 41.3466 31.2291 41.025 33.825C40.9821 34.2183 41.0937 34.6129 41.3363 34.9254C41.5788 35.2379 41.9333 35.444 42.325 35.5H42.5C42.8693 35.5025 43.2265 35.3687 43.5033 35.1242C43.78 34.8798 43.9569 34.5418 44 34.175C44.3299 31.4624 44.4969 28.7325 44.5 26C44.4934 21.3607 42.6475 16.9134 39.367 13.6329C36.0866 10.3525 31.6392 8.50661 27 8.5ZM41.35 40.55C40.9658 40.4579 40.5608 40.5185 40.2204 40.719C39.88 40.9195 39.6307 41.2443 39.525 41.625C39.175 43.05 38.75 44.5 38.275 45.9C38.2123 46.0871 38.1872 46.2848 38.201 46.4816C38.2149 46.6785 38.2675 46.8706 38.3557 47.0471C38.444 47.2236 38.5662 47.381 38.7153 47.5102C38.8645 47.6394 39.0377 47.7379 39.225 47.8C39.378 47.8513 39.5386 47.8766 39.7 47.875C40.0142 47.8718 40.3197 47.7715 40.5747 47.5881C40.8298 47.4046 41.022 47.1468 41.125 46.85C41.6 45.375 42.05 43.875 42.45 42.375C42.4985 42.1829 42.5085 41.9831 42.4794 41.7871C42.4503 41.5912 42.3826 41.4029 42.2804 41.2332C42.1781 41.0635 42.0432 40.9158 41.8835 40.7985C41.7238 40.6813 41.5425 40.5968 41.35 40.55Z" fill="#6E7991"/>
</svg>
