<svg width="88" height="88" viewBox="0 0 88 88" fill="none" xmlns="http://www.w3.org/2000/svg">
<path d="M62.3333 70.4733H18.3333V25.6666H54V18.3333H18.3333C14.3 18.3333 11 21.6333 11 25.6666V69.6666C11 73.7 14.3 77 18.3333 77H62.3333C66.3667 77 69.6667 73.7 69.6667 69.6666V34H62.3333V70.4733Z" fill="#4D5D98"/>
<path d="M25.667 33H55.0003V40.3333H25.667V33ZM25.667 44V51.3333H55.0003V44H44.0003H25.667ZM25.667 55H55.0003V62.3333H25.667V55Z" fill="#4D5D98"/>
<path d="M66.7675 23L70.3037 19.465C70.5383 19.2304 70.6701 18.9123 70.6701 18.5806C70.6701 18.2489 70.5383 17.9308 70.3037 17.6962C70.0692 17.4617 69.7511 17.3299 69.4194 17.3299C69.0877 17.3299 68.7695 17.4617 68.535 17.6962L65 21.2325L61.465 17.6962C61.2304 17.4617 60.9123 17.3299 60.5806 17.3299C60.2489 17.3299 59.9308 17.4617 59.6962 17.6962C59.4617 17.9308 59.3299 18.2489 59.3299 18.5806C59.3299 18.9123 59.4617 19.2304 59.6962 19.465L63.2325 23L59.6962 26.535C59.4617 26.7695 59.3299 27.0877 59.3299 27.4194C59.3299 27.7511 59.4617 28.0692 59.6962 28.3037C59.9308 28.5383 60.2489 28.6701 60.5806 28.6701C60.9123 28.6701 61.2304 28.5383 61.465 28.3037L65 24.7675L68.535 28.3037C68.7695 28.5383 69.0877 28.6701 69.4194 28.6701C69.7511 28.6701 70.0692 28.5383 70.3037 28.3037C70.5383 28.0692 70.6701 27.7511 70.6701 27.4194C70.6701 27.0877 70.5383 26.7695 70.3037 26.535L66.7675 23ZM65 35.5C58.0962 35.5 52.5 29.9037 52.5 23C52.5 16.0962 58.0962 10.5 65 10.5C71.9037 10.5 77.5 16.0962 77.5 23C77.5 29.9037 71.9037 35.5 65 35.5Z" fill="#4D5D98"/>
</svg>
