<svg width="29" height="23" viewBox="0 0 29 23" fill="none" xmlns="http://www.w3.org/2000/svg">
<path d="M20.9585 21.8333H27.4168V19.25C27.4168 18.4447 27.1658 17.6594 26.6988 17.0033C26.2319 16.3472 25.5721 15.8529 24.8112 15.5891C24.0503 15.3253 23.2262 15.3051 22.4533 15.5313C21.6804 15.7575 20.9972 16.2189 20.4987 16.8514M20.9585 21.8333L20.4987 16.8514M20.9585 21.8333H8.04183M20.9585 21.8333V19.25C20.9585 18.4027 20.7957 17.5928 20.4987 16.8514M20.4987 16.8514C20.019 15.6526 19.1912 14.6251 18.122 13.9014C17.0528 13.1776 15.7913 12.7907 14.5002 12.7907C13.209 12.7907 11.9475 13.1776 10.8783 13.9014C9.80915 14.6251 8.98133 15.6526 8.50166 16.8514M8.04183 21.8333H1.5835V19.25C1.58355 18.4447 1.83451 17.6594 2.30148 17.0033C2.76845 16.3472 3.42824 15.8529 4.18911 15.5891C4.94999 15.3253 5.77415 15.3051 6.54703 15.5313C7.31992 15.7575 8.00312 16.2189 8.50166 16.8514M8.04183 21.8333L8.50166 16.8514M8.04183 21.8333V19.25C8.04183 18.4027 8.20458 17.5928 8.50166 16.8514M18.3752 5.04166C18.3752 6.06937 17.9669 7.05499 17.2402 7.7817C16.5135 8.5084 15.5279 8.91666 14.5002 8.91666C13.4724 8.91666 12.4868 8.5084 11.7601 7.7817C11.0334 7.05499 10.6252 6.06937 10.6252 5.04166C10.6252 4.01394 11.0334 3.02832 11.7601 2.30162C12.4868 1.57491 13.4724 1.16666 14.5002 1.16666C15.5279 1.16666 16.5135 1.57491 17.2402 2.30162C17.9669 3.02832 18.3752 4.01394 18.3752 5.04166ZM26.1252 8.91666C26.1252 9.6018 25.853 10.2589 25.3685 10.7433C24.8841 11.2278 24.227 11.5 23.5418 11.5C22.8567 11.5 22.1996 11.2278 21.7151 10.7433C21.2307 10.2589 20.9585 9.6018 20.9585 8.91666C20.9585 8.23151 21.2307 7.57443 21.7151 7.08996C22.1996 6.6055 22.8567 6.33332 23.5418 6.33332C24.227 6.33332 24.8841 6.6055 25.3685 7.08996C25.853 7.57443 26.1252 8.23151 26.1252 8.91666ZM8.04183 8.91666C8.04183 9.6018 7.76966 10.2589 7.28519 10.7433C6.80072 11.2278 6.14364 11.5 5.4585 11.5C4.77335 11.5 4.11627 11.2278 3.6318 10.7433C3.14733 10.2589 2.87516 9.6018 2.87516 8.91666C2.87516 8.23151 3.14733 7.57443 3.6318 7.08996C4.11627 6.6055 4.77335 6.33332 5.4585 6.33332C6.14364 6.33332 6.80072 6.6055 7.28519 7.08996C7.76966 7.57443 8.04183 8.23151 8.04183 8.91666Z" stroke="#828282" stroke-width="2" stroke-linecap="round" stroke-linejoin="round"/>
</svg>
