<svg width="25" height="24" viewBox="0 0 25 24" fill="none" xmlns="http://www.w3.org/2000/svg">
<g clip-path="url(#clip0_276:1873)">
<path d="M21.7436 9.11434L21.6295 9.07365L21.1836 8.00933L21.2319 7.89997C22.5827 4.83656 22.4895 4.74518 22.2655 4.52309L20.4638 2.76543C20.3901 2.69235 20.2608 2.64095 20.1493 2.64095C20.0479 2.64095 19.7408 2.64095 17.0798 3.84617L16.9731 3.89406L15.8752 3.45195L15.8312 3.34266C14.5798 0.244141 14.4516 0.244141 14.1402 0.244141H11.5958C11.2856 0.244141 11.1443 0.244141 9.98389 3.34805L9.94021 3.46104L8.84805 3.90626L8.74363 3.86285C6.94248 3.1035 5.89082 2.71844 5.61668 2.71844C5.50544 2.71844 5.37564 2.76835 5.30165 2.84123L3.49823 4.60395C3.26946 4.82962 3.17457 4.92411 4.59604 7.92359L4.64829 8.03483L4.2017 9.09798L4.09241 9.14023C0.921326 10.3657 0.921326 10.4852 0.921326 10.8044V13.2977C0.921326 13.6178 0.921326 13.7507 4.0987 14.8894L4.21228 14.9295L4.65893 15.9895L4.61097 16.0979C3.26024 19.1627 3.34591 19.2456 3.57586 19.4743L5.37486 21.2344C5.45027 21.3069 5.58079 21.3587 5.69209 21.3587C5.79282 21.3587 6.09916 21.3587 8.76193 20.1541L8.86856 20.1042L9.96715 20.5485L10.0099 20.6583C11.262 23.7558 11.3906 23.7558 11.7022 23.7558H14.2475C14.567 23.7558 14.6996 23.7558 15.8608 20.6498L15.9041 20.5368L16.998 20.0945L17.1021 20.137C18.9018 20.8985 19.9529 21.2828 20.2253 21.2828C20.3356 21.2828 20.4666 21.2344 20.5418 21.1599L22.3481 19.3933C22.5753 19.1665 22.67 19.0738 21.246 16.0772L21.1931 15.9646L21.6389 14.9061L21.7453 14.8643C24.9215 13.6324 24.9215 13.5124 24.9215 13.1928V10.7009C24.9214 10.381 24.9214 10.2488 21.7436 9.11434ZM12.9213 16.0438C10.6473 16.0438 8.79736 14.2292 8.79736 12.0004C8.79736 9.7716 10.6474 7.95942 12.9213 7.95942C15.1944 7.95942 17.044 9.77198 17.044 12.0004C17.0441 14.2288 15.1944 16.0438 12.9213 16.0438Z" fill="white"/>
</g>
<defs>
<clipPath id="clip0_276:1873">
<rect width="24.0001" height="24" fill="white" transform="translate(0.921326)"/>
</clipPath>
</defs>
</svg>
