<?xml version="1.0" encoding="UTF-8"?>
<svg
    width="190px"
    height="185px"
    viewBox="0 0 190 185"
    version="1.1"
    xmlns="http://www.w3.org/2000/svg">
    <title>Group 4</title>
    <g id="File-TK" stroke="none" stroke-width="1" fill="none" fill-rule="evenodd">
        <g id="Not-found" transform="translate(-92.000000, -194.000000)" fill-rule="nonzero">
            <g id="Group-2" transform="translate(75.000000, 188.000000)">
                <g id="Group-4" transform="translate(17.000000, 6.398104)">
                    <g id="Cabin-fever-pana" opacity="0.509951637" transform="translate(0.000000, 2.601896)">
                        <g id="freepik--background-complete--inject-2">
                            <path d="M159.486864,165.508475 C151.65,163.037288 147.584746,155.169915 145.464407,147.584746 C145.113559,146.322458 144.560593,145.048729 144.808475,143.771186 C145.056356,142.493644 146.208051,141.3 147.477966,141.483051 C148.545763,141.627966 149.289407,142.581356 150.090254,143.309746 C151.157988,144.283868 152.480529,144.934558 153.903814,145.186017 C154.826695,145.35 155.890678,145.292797 156.542797,144.610169 C157.431356,143.675847 157.088136,142.14661 156.691525,140.907203 C155.944068,138.591102 155.199153,136.278814 154.45678,133.970339 C154.056356,132.730932 153.655932,131.461017 153.667373,130.15678 C153.678814,128.852542 154.193644,127.487288 155.269068,126.785593 C156.344492,126.083898 158.026271,126.305085 158.659322,127.441525 C158.866522,127.938075 159.041046,128.447635 159.18178,128.966949 C159.380085,129.474153 159.799576,129.966102 160.325847,129.958475 C160.852119,129.950847 161.256356,129.436017 161.511864,128.955508 C162.400424,127.29661 162.758898,125.405085 163.067797,123.544068 C163.376695,121.683051 163.647458,119.783898 164.379661,118.048729 C165.111864,116.313559 166.377966,114.719492 168.12839,114.059746 C169.878814,113.4 172.117373,113.899576 173.120339,115.505085 C174.123305,117.110593 173.661864,119.215678 172.994492,120.981356 C172.007772,123.606834 170.646196,126.075653 168.952119,128.311017 C168.601554,128.678727 168.37831,129.149276 168.315254,129.65339 C168.315254,130.564831 169.348729,131.140678 170.252542,131.155932 C171.27839,131.175 172.250847,130.774576 173.257627,130.568644 C174.264407,130.362712 175.44661,130.473305 176.102542,131.274153 C177.010169,132.383898 176.369492,134.050424 175.599153,135.251695 C174.053948,137.65771 172.107508,139.780865 169.844492,141.528814 C169.036017,142.150424 168.162712,142.749153 167.628814,143.622458 C167.094915,144.495763 167.00339,145.754237 167.724153,146.490254 C168.444915,147.226271 169.676695,147.146186 170.576695,146.665678 C171.476695,146.185169 172.174576,145.395763 172.975424,144.758898 C174.48178,143.576695 176.724153,142.997034 178.283898,144.129661 C179.309746,144.873305 179.809322,146.204237 179.809322,147.474153 C179.751718,148.744579 179.440526,149.990643 178.894068,151.138983 C177.21109,155.244103 174.468542,158.828893 170.94661,161.527119 C167.415254,164.173729 163.876271,165.699153 159.486864,165.508475" id="Path" fill="#EBEBEB"></path>
                            <path d="M159.940678,160.2 C159.896083,155.729517 160.109999,151.260195 160.581356,146.814407 C160.699576,145.636017 160.817797,144.465254 160.932203,143.317373 C161.04661,142.169492 161.164831,141.029237 161.347881,139.923305 C161.701804,137.798915 162.172861,135.695708 162.758898,133.623305 C163.304237,131.640254 163.902966,129.779237 164.459746,128.044068 C165.016525,126.308898 165.603814,124.699576 166.164407,123.258051 C167.057581,120.975207 168.129996,118.766619 169.37161,116.652966 C169.810169,115.890254 170.172458,115.337288 170.420339,114.955932 C170.538559,114.772881 170.633898,114.63178 170.706356,114.525 C170.736499,114.473858 170.770946,114.425377 170.809322,114.380085 C170.788399,114.435687 170.760186,114.488265 170.725424,114.536441 L170.462288,114.982627 C170.225847,115.363983 169.878814,115.947458 169.455508,116.702542 C168.245541,118.827323 167.19765,121.040387 166.320763,123.322881 C165.760169,124.764407 165.207203,126.373729 164.650424,128.108898 C164.093644,129.844068 163.506356,131.705085 162.972458,133.684322 C162.392955,135.748357 161.927002,137.842598 161.576695,139.957627 C161.397458,141.059746 161.283051,142.188559 161.168644,143.340254 C161.054237,144.491949 160.939831,145.655085 160.82161,146.837288 C160.353198,151.270702 160.131669,155.726733 160.158051,160.184746" id="Path" fill="#E0E0E0"></path>
                            <path d="M161.408898,139.892797 C161.295477,139.739316 161.198344,139.574444 161.119068,139.400847 C160.947458,139.076695 160.711017,138.603814 160.428814,138.012712 C159.864407,136.830508 159.139831,135.17161 158.34661,133.337288 C157.55339,131.502966 156.821186,129.859322 156.222458,128.688559 C155.932627,128.105085 155.696186,127.632203 155.524576,127.308051 C155.426542,127.144064 155.346015,126.970228 155.284322,126.789407 C155.409822,126.934334 155.518562,127.092966 155.608475,127.262288 C155.802966,127.575 156.062288,128.025 156.371186,128.612288 C156.992797,129.756356 157.766949,131.407627 158.560169,133.241949 L160.581356,137.940254 C160.825424,138.504661 161.035169,138.977542 161.199153,139.358898 C161.290006,139.527911 161.360417,139.707138 161.408898,139.892797 L161.408898,139.892797 Z" id="Path" fill="#E0E0E0"></path>
                            <path d="M176.449576,131.872881 C176.254024,131.983548 176.048448,132.075482 175.835593,132.147458 C175.435169,132.315254 174.859322,132.551695 174.153814,132.86822 C172.738983,133.486017 170.816949,134.393644 168.738559,135.537712 C166.660169,136.68178 164.829661,137.741949 163.525424,138.569492 C162.869492,138.977542 162.347034,139.332203 162,139.557203 C161.820615,139.693627 161.627646,139.811197 161.424153,139.908051 C161.583424,139.748389 161.758472,139.605284 161.94661,139.480932 C162.293644,139.22161 162.800847,138.851695 163.445339,138.424576 C164.730508,137.558898 166.561017,136.441525 168.639407,135.320339 C170.409524,134.359593 172.2271,133.48899 174.085169,132.711864 C174.802119,132.41822 175.39322,132.204661 175.801271,132.063559 C176.011305,131.980941 176.228258,131.917131 176.449576,131.872881 L176.449576,131.872881 Z" id="Path" fill="#E0E0E0"></path>
                            <path d="M160.043644,159.841525 C160.043644,159.841525 159.978814,159.791949 159.872034,159.681356 C159.765254,159.570763 159.597458,159.387712 159.41822,159.189407 C159.036864,158.762288 158.468644,158.125424 157.797458,157.332203 C156.447458,155.745763 154.655085,153.491949 152.710169,150.982627 C150.765254,148.473305 148.995763,146.204237 147.683898,144.591102 L146.124153,142.684322 L145.700847,142.161864 C145.609322,142.039831 145.559746,141.975 145.567373,141.967373 C145.630729,142.01521 145.688317,142.070239 145.738983,142.131356 C145.861017,142.261017 146.013559,142.425 146.192797,142.623305 C146.574153,143.050424 147.142373,143.687288 147.813559,144.480508 C149.163559,146.066949 150.955932,148.320763 152.900847,150.833898 C154.845763,153.347034 156.615254,155.608475 157.927119,157.22161 L159.486864,159.12839 L159.906356,159.650847 C159.958108,159.709872 160.004081,159.773724 160.043644,159.841525 Z" id="Path" fill="#E0E0E0"></path>
                            <path d="M179.122881,146.311017 C179.065353,146.367432 179.002807,146.41849 178.936017,146.463559 L178.386864,146.863983 L176.342797,148.316949 C174.619068,149.544915 172.258475,151.268644 169.653814,153.175424 C167.049153,155.082203 164.665678,156.783051 162.915254,157.976695 C162.041949,158.57161 161.328814,159.048305 160.829237,159.368644 L160.25339,159.75 C160.18909,159.796652 160.118463,159.833892 160.043644,159.860593 C160.099185,159.803513 160.160535,159.752388 160.226695,159.708051 L160.779661,159.307627 L162.819915,157.854661 C164.543644,156.626695 166.904237,154.902966 169.512712,152.996186 C172.121186,151.089407 174.497034,149.388559 176.247458,148.194915 C177.120763,147.6 177.833898,147.123305 178.333475,146.802966 L178.909322,146.440678 C178.972898,146.386013 179.045052,146.342205 179.122881,146.311017 Z" id="Path" fill="#E0E0E0"></path>
                            <rect id="Rectangle" fill="#EBEBEB" x="87.5173729" y="52.4211864" width="42.8682203" height="77.0110169"></rect>
                            <rect id="Rectangle" fill="#FAFAFA" x="89.229661" y="54.6559322" width="39.0012712" height="72.4805085"></rect>
                            <polygon id="Path" fill="#E0E0E0" points="132.197034 130.126271 130.385593 129.432203 130.385593 51.1169492 132.197034 51.1169492"></polygon>
                            <rect id="Rectangle" fill="#E0E0E0" x="89.229661" y="75.504661" width="39.8478814" height="1"></rect>
                            <rect id="Rectangle" fill="#E0E0E0" x="89.229661" y="92.7648305" width="39.8478814" height="1"></rect>
                            <rect id="Rectangle" fill="#E0E0E0" x="89.229661" y="110.028814" width="39.8478814" height="1"></rect>
                            <polygon id="Rectangle" fill="#E0E0E0" transform="translate(108.730297, 102.540890) rotate(-90.000000) translate(-108.730297, -102.540890) " points="82.0792373 101.555085 135.381356 101.555085 135.381356 103.526695 82.0792373 103.526695"></polygon>
                            <rect id="Rectangle" fill="#E0E0E0" x="96.7385593" y="54.6559322" width="1" height="21.2377119"></rect>
                            <rect id="Rectangle" fill="#E0E0E0" x="104.438136" y="54.6559322" width="1" height="21.2377119"></rect>
                            <rect id="Rectangle" fill="#E0E0E0" x="112.137712" y="54.6559322" width="1" height="21.2377119"></rect>
                            <rect id="Rectangle" fill="#E0E0E0" x="119.837288" y="54.6559322" width="1" height="21.2377119"></rect>
                            <rect id="Rectangle" fill="#E0E0E0" x="85.7059322" y="51.1169492" width="1.81144068" height="78.7919492"></rect>
                            <rect id="Rectangle" fill="#E0E0E0" x="85.7059322" y="50.3199153" width="46.4949153" height="2.10127119"></rect>
                            <rect id="Rectangle" fill="#E0E0E0" x="84.4169492" y="130.385593" width="49.0080508" height="1.95635593"></rect>
                            <polygon id="Path" fill="#E0E0E0" points="130.385593 129.432203 133.425 130.385593 84.4169492 130.385593 87.5173729 129.432203"></polygon>
                            <rect id="Rectangle" fill="#E0E0E0" x="28.4262712" y="99.1411017" width="19.9677966" height="20.8144068"></rect>
                            <rect id="Rectangle" fill="#FAFAFA" x="27.0762712" y="99.1411017" width="19.9677966" height="20.8144068"></rect>
                            <path d="M47.0478814,119.963136 L27.0762712,119.963136 L27.0762712,99.1525424 L47.0555085,99.1525424 L47.0478814,119.963136 Z M27.0800847,119.963136 L47.0364407,119.963136 L47.0364407,99.1525424 L27.0762712,99.1525424 L27.0800847,119.963136 Z" id="Shape" fill="#E0E0E0"></path>
                            <rect id="Rectangle" fill="#FFFFFF" x="29.7610169" y="101.940254" width="14.5983051" height="15.2161017"></rect>
                            <path d="M29.7457627,117.259322 C29.6337612,117.412184 29.5059341,117.552794 29.3644068,117.678814 C29.1317797,117.922881 28.8038136,118.254661 28.4377119,118.616949 C28.0716102,118.979237 27.7322034,119.30339 27.484322,119.532203 C27.356476,119.664282 27.2145251,119.781935 27.0610169,119.883051 C27.1635857,119.729602 27.2839098,119.588797 27.4194915,119.463559 C27.6521186,119.219492 27.9800847,118.883898 28.35,118.52161 C28.7199153,118.159322 29.0555085,117.835169 29.3033898,117.606356 C29.4350568,117.471853 29.5837804,117.355182 29.7457627,117.259322 L29.7457627,117.259322 Z" id="Path" fill="#E0E0E0"></path>
                            <path d="M44.359322,117.221186 C44.5118865,117.324918 44.6525647,117.445134 44.7788136,117.579661 C45.0228814,117.816102 45.354661,118.140254 45.7169492,118.510169 C46.0792373,118.880085 46.4033898,119.215678 46.6322034,119.463559 C46.7646409,119.589671 46.8823427,119.730402 46.9830508,119.883051 C46.8278441,119.784319 46.6867301,119.665014 46.5635593,119.52839 C46.3194915,119.291949 45.9838983,118.963983 45.6216102,118.597881 C45.259322,118.23178 44.9351695,117.888559 44.7063559,117.640678 C44.5728171,117.516638 44.456142,117.375603 44.359322,117.221186 L44.359322,117.221186 Z" id="Path" fill="#E0E0E0"></path>
                            <path d="M44.3173729,101.97839 C44.4229737,101.827313 44.5444268,101.687961 44.679661,101.562712 C44.9122881,101.314831 45.2402542,100.983051 45.6063559,100.620763 C45.9724576,100.258475 46.3118644,99.934322 46.5597458,99.7055085 C46.6856246,99.571322 46.8278361,99.453453 46.9830508,99.354661 C46.8804821,99.5081099 46.760158,99.6489147 46.6245763,99.7741525 C46.3919492,100.01822 46.0639831,100.353814 45.6940678,100.716102 C45.3241525,101.07839 44.9885593,101.402542 44.7368644,101.631356 C44.6128248,101.764895 44.471789,101.88157 44.3173729,101.97839 L44.3173729,101.97839 Z" id="Path" fill="#E0E0E0"></path>
                            <path d="M29.7190678,102.016525 C29.5656189,101.913957 29.4248141,101.793633 29.2995763,101.658051 C29.0555085,101.425424 28.7199153,101.097458 28.3614407,100.727542 C28.0029661,100.357627 27.675,100.025847 27.4461864,99.7741525 C27.3137489,99.6480407 27.1960471,99.5073102 27.095339,99.354661 C27.2493849,99.4549206 27.3892045,99.575499 27.5110169,99.7131356 C27.7588983,99.9457627 28.090678,100.273729 28.4567797,100.639831 C28.8228814,101.005932 29.1394068,101.349153 29.3682203,101.597034 C29.5020719,101.721813 29.6199216,101.86272 29.7190678,102.016525 Z" id="Path" fill="#E0E0E0"></path>
                            <path d="M44.3173729,117.156356 C44.3173729,117.156356 44.3173729,117.129661 44.3173729,117.083898 L44.3173729,116.870339 C44.3173729,116.679661 44.3173729,116.405085 44.3173729,116.050424 C44.3173729,115.329661 44.3173729,114.280932 44.3173729,112.946186 C44.3173729,110.276695 44.3173729,106.486017 44.2868644,101.940254 L44.3440678,101.993644 L29.7877119,101.993644 L29.7877119,101.993644 L29.8525424,101.928814 C29.8525424,107.511864 29.8525424,112.740254 29.8525424,117.144915 L29.7991525,117.091525 L40.3398305,117.11822 L43.2991525,117.11822 L44.0847458,117.11822 L44.0847458,117.11822 L43.3220339,117.11822 L40.3741525,117.11822 L29.7457627,117.213559 L29.6885593,117.213559 L29.6885593,117.156356 C29.6885593,112.751695 29.6885593,107.523305 29.6885593,101.940254 L29.6885593,101.875424 L29.7457627,101.875424 L44.3021186,101.875424 L44.359322,101.875424 L44.359322,101.932627 C44.359322,106.508898 44.3364407,110.30339 44.3288136,112.991949 C44.3288136,114.319068 44.3288136,115.363983 44.3288136,116.080932 C44.3288136,116.43178 44.3288136,116.702542 44.3288136,116.889407 C44.3288136,116.977119 44.3288136,117.045763 44.3288136,117.095339 C44.3267908,117.115973 44.3229626,117.13639 44.3173729,117.156356 Z" id="Path" fill="#E0E0E0"></path>
                            <rect id="Rectangle" fill="#EBEBEB" x="34.6233051" y="107.111441" width="4.86991525" height="4.86991525"></rect>
                            <rect id="Rectangle" fill="#E0E0E0" x="56.6923729" y="89.7559322" width="20.3567797" height="21.2224576"></rect>
                            <rect id="Rectangle" fill="#FAFAFA" x="55.3118644" y="89.7559322" width="20.3567797" height="21.2224576"></rect>
                            <path d="M75.6762712,110.974576 L55.2966102,110.974576 L55.2966102,89.7521186 L75.6648305,89.7521186 L75.6762712,110.974576 Z M55.3194915,110.974576 L75.6648305,110.974576 L75.6648305,89.7635593 L55.3194915,89.7635593 L55.3194915,110.974576 Z" id="Shape" fill="#E0E0E0"></path>
                            <rect id="Rectangle" fill="#FFFFFF" x="58.05" y="92.6084746" width="14.884322" height="15.5173729"></rect>
                            <path d="M58.05,108.228814 C57.9400248,108.385612 57.8120311,108.528965 57.6686441,108.655932 C57.4283898,108.907627 57.0966102,109.247034 56.7190678,109.613136 C56.3415254,109.979237 56.0021186,110.311017 55.7466102,110.543644 C55.6205772,110.681353 55.4769717,110.801879 55.3194915,110.902119 C55.4287853,110.745924 55.5568643,110.603756 55.7008475,110.478814 C55.9411017,110.227119 56.2766949,109.887712 56.6504237,109.517797 C57.0241525,109.147881 57.3711864,108.819915 57.6266949,108.583475 C57.7521732,108.447769 57.8944185,108.32859 58.05,108.228814 L58.05,108.228814 Z" id="Path" fill="#E0E0E0"></path>
                            <path d="M72.934322,108.190678 C73.0901811,108.301834 73.2334066,108.429714 73.3614407,108.572034 C73.6131356,108.812288 73.9525424,109.144068 74.3186441,109.517797 C74.6847458,109.891525 75.0165254,110.238559 75.2491525,110.490254 C75.3865264,110.618029 75.5069951,110.762848 75.6076271,110.921186 C75.4523155,110.810787 75.3102729,110.682821 75.184322,110.539831 C74.9326271,110.30339 74.5932203,109.967797 74.2233051,109.594068 C73.8533898,109.220339 73.5254237,108.873305 73.2889831,108.617797 C73.1530234,108.491139 73.0338346,108.3476 72.934322,108.190678 Z" id="Path" fill="#E0E0E0"></path>
                            <path d="M72.8923729,92.6694915 C73.0023481,92.5126927 73.1303418,92.3693397 73.2737288,92.2423729 C73.5139831,91.990678 73.8457627,91.6512712 74.2233051,91.2851695 C74.6008475,90.9190678 74.9402542,90.5872881 75.1957627,90.354661 C75.3217957,90.2169522 75.4654012,90.0964262 75.6228814,89.9961864 C75.5195136,90.1512929 75.3978787,90.2934137 75.2605932,90.4194915 C75.020339,90.6711864 74.6847458,91.0105932 74.3110169,91.3805085 C73.9372881,91.7504237 73.5902542,92.0783898 73.3347458,92.3148305 C73.2033753,92.4518252 73.0546573,92.571056 72.8923729,92.6694915 L72.8923729,92.6694915 Z" id="Path" fill="#E0E0E0"></path>
                            <path d="M58.0080508,92.6885593 C57.851252,92.5785841 57.707899,92.4505904 57.5809322,92.3072034 C57.3292373,92.0669492 56.9898305,91.7351695 56.6237288,91.3614407 C56.2576271,90.9877119 55.9258475,90.640678 55.6932203,90.3889831 C55.5558465,90.2612084 55.4353777,90.1163896 55.3347458,89.9580508 C55.4900574,90.0684504 55.6321,90.1964168 55.7580508,90.3394068 C56.0097458,90.5758475 56.3491525,90.9114407 56.7190678,91.2851695 C57.0889831,91.6588983 57.4207627,92.0059322 57.6533898,92.2614407 C57.7893495,92.3880984 57.9085383,92.5316375 58.0080508,92.6885593 Z" id="Path" fill="#E0E0E0"></path>
                            <path d="M72.8923729,108.125847 C72.8923729,108.125847 72.8923729,108.099153 72.8923729,108.049576 C72.8923729,108 72.8923729,107.923729 72.8923729,107.832203 C72.8923729,107.637712 72.8923729,107.359322 72.8923729,106.997034 C72.8923729,106.261017 72.8923729,105.189407 72.8923729,103.83178 C72.8923729,101.116525 72.8923729,97.2457627 72.8618644,92.6084746 L72.9190678,92.665678 L58.0766949,92.665678 L58.0766949,92.665678 L58.1415254,92.5970339 C58.1415254,98.2944915 58.1415254,103.622034 58.1415254,108.114407 L58.084322,108.057203 L68.8309322,108.087712 L71.8512712,108.087712 L72.6483051,108.087712 L72.6483051,108.087712 L71.8627119,108.087712 L68.8576271,108.087712 L58.0728814,108.11822 L58.015678,108.11822 L58.015678,108.061017 C58.015678,103.568644 58.015678,98.2411017 58.015678,92.5436441 L58.015678,92.4788136 L58.0805085,92.4788136 L72.9228814,92.4788136 L72.9800847,92.4788136 L72.9800847,92.5360169 C72.9800847,97.1885593 72.9572034,101.070763 72.9533898,103.797458 C72.9533898,105.151271 72.9533898,106.215254 72.9533898,106.947458 C72.9533898,107.305932 72.9533898,107.580508 72.9533898,107.775 C72.9533898,107.862712 72.9533898,107.931356 72.9533898,107.984746 C72.940949,108.034815 72.9203332,108.082489 72.8923729,108.125847 L72.8923729,108.125847 Z" id="Path" fill="#E0E0E0"></path>
                            <rect id="Rectangle" fill="#EBEBEB" x="63.0076271" y="97.8826271" width="4.96525424" height="4.96525424"></rect>
                            <path d="M4.12245763,112.690678 C4.12245763,112.690678 1.18601695,113.110169 2.85635593,119.532203 C4.52669492,125.954237 5.93389831,129.279661 5.93389831,129.279661 C5.93389831,129.279661 6.16271186,130.732627 4.98813559,130.694492 C3.81355932,130.656356 1.41864407,129.70678 0.610169492,130.976695 C-0.198305085,132.24661 0.514830508,133.871186 2.36059322,135.522458 C4.20635593,137.173729 8.12288136,140.937712 8.46228814,141.280932 C8.80169492,141.624153 9.07245763,142.325847 8.26779661,142.425 C7.46313559,142.524153 1.76186441,141.864407 1.61313559,144.591102 C1.46440678,147.317797 7.36779661,151.074153 8.00466102,151.497458 C8.64152542,151.920763 8.74067797,152.260169 8.59957627,152.622458 C8.45847458,152.984746 6.55932203,152.591949 4.92711864,152.473729 C3.29491525,152.355508 1.37669492,152.504237 1.42627119,154.086864 C1.47584746,155.669492 4.57627119,159.654661 13.6067797,162.598729 L17.8779661,163.689407 L21.0241525,160.569915 C27.3470339,153.488136 28.0258475,148.477119 27.2707627,147.085169 C26.515678,145.69322 24.784322,146.52839 23.434322,147.466525 C22.084322,148.404661 20.6389831,149.693644 20.3338983,149.445763 C20.0288136,149.197881 19.9525424,148.858475 20.284322,148.172034 C20.6161017,147.485593 23.8347458,141.277119 22.3360169,138.988983 C20.8372881,136.700847 16.234322,140.133051 15.4716102,140.457203 C14.7088983,140.781356 14.5983051,140.026271 14.7279661,139.564831 C14.8576271,139.10339 16.3487288,133.871186 17.1152542,131.514407 C17.8817797,129.157627 17.7292373,127.422458 16.3525424,126.705508 C14.9758475,125.988559 13.4199153,128.036441 12.4283898,128.661864 C11.4368644,129.287288 10.9029661,127.899153 10.9029661,127.899153 C10.9029661,127.899153 10.445339,124.322034 8.65677966,117.941949 C6.86822034,111.561864 4.06144068,112.705932 4.06144068,112.705932" id="Path" fill="#EBEBEB"></path>
                            <path d="M17.8779661,164.745763 C16.5851695,160.047458 14.4266949,151.657627 12.5389831,144.465254 C10.6512712,137.272881 8.93135593,130.763136 7.66144068,126.057203 L6.13601695,120.489407 L5.7279661,118.963983 C5.68601695,118.796186 5.65169492,118.666525 5.625,118.582627 C5.59830508,118.498729 5.59449153,118.445339 5.59449153,118.445339 C5.59449153,118.445339 5.61355932,118.491102 5.64025424,118.578814 L5.75466102,118.960169 C5.85762712,119.307203 6.00254237,119.814407 6.18940678,120.466525 C6.57076271,121.77839 7.09322034,123.677542 7.74152542,126.026695 C9.03432203,130.725 10.765678,137.230932 12.6572034,144.423305 C14.5487288,151.615678 16.7033898,160.020763 17.9733051,164.745763" id="Path" fill="#E0E0E0"></path>
                            <path d="M3.90889831,132.41822 C4.00849859,132.456502 4.1032238,132.506425 4.19110169,132.566949 C4.36652542,132.669915 4.61822034,132.826271 4.92711864,133.024576 C5.54491525,133.405932 6.38389831,133.985593 7.29915254,134.630085 L9.63305085,136.281356 L10.3423729,136.777119 C10.4335774,136.833613 10.5191404,136.898743 10.5978814,136.97161 C10.4982811,136.933328 10.4035559,136.883406 10.315678,136.822881 C10.1364407,136.719915 9.88474576,136.563559 9.57966102,136.361441 C8.96567797,135.961017 8.13432203,135.385169 7.2190678,134.740678 L4.87372881,133.09322 L4.16059322,132.601271 C4.07139256,132.547899 3.98715701,132.486637 3.90889831,132.41822 L3.90889831,132.41822 Z" id="Path" fill="#E0E0E0"></path>
                            <path d="M10.9525424,136.761864 C10.9182203,136.738983 12.0127119,134.961864 13.3932203,132.784322 C14.7737288,130.60678 15.9177966,128.860169 15.9483051,128.883051 C15.9788136,128.905932 14.8881356,130.683051 13.5076271,132.85678 C12.1271186,135.030508 10.9830508,136.780932 10.9525424,136.761864 Z" id="Path" fill="#E0E0E0"></path>
                            <path d="M13.3474576,147.935593 C13.4187723,147.853088 13.4979604,147.777732 13.5838983,147.710593 L14.2474576,147.123305 C14.8042373,146.631356 15.5745763,145.944915 16.3983051,145.155508 C17.2220339,144.366102 17.9237288,143.630085 18.4614407,143.092373 L19.0677966,142.455508 C19.1394144,142.373293 19.2185735,142.297964 19.3042373,142.230508 C19.2483066,142.324273 19.1817668,142.411287 19.1059322,142.489831 C18.9724576,142.65 18.7741525,142.871186 18.5224576,143.157203 C18.0228814,143.713983 17.3097458,144.465254 16.4860169,145.254661 C15.6622881,146.044068 14.8766949,146.722881 14.3008475,147.199576 C14.0110169,147.436017 13.7745763,147.622881 13.6105932,147.752542 C13.5305994,147.823967 13.4422432,147.885432 13.3474576,147.935593 L13.3474576,147.935593 Z" id="Path" fill="#E0E0E0"></path>
                            <path d="M6.12076271,145.411017 C6.22101082,145.422225 6.31957869,145.445267 6.41440678,145.479661 L7.17711864,145.719915 C7.83686441,145.925847 8.74449153,146.223305 9.74364407,146.558898 C10.7427966,146.894492 11.6504237,147.20339 12.2949153,147.432203 L13.0576271,147.714407 C13.1531006,147.743925 13.2451481,147.783557 13.3322034,147.832627 C13.2316236,147.823404 13.1328045,147.800304 13.0385593,147.763983 L12.2758475,147.523729 C11.6199153,147.317797 10.7122881,147.020339 9.71313559,146.688559 C8.71398305,146.35678 7.80635593,146.044068 7.15805085,145.811441 L6.39533898,145.529237 C6.30016363,145.498916 6.20819669,145.459319 6.12076271,145.411017 L6.12076271,145.411017 Z" id="Path" fill="#E0E0E0"></path>
                            <path d="M6.99025424,155.547458 C7.12047072,155.563193 7.24843603,155.593905 7.37161017,155.638983 L8.37838983,155.944068 C9.22118644,156.20339 10.3881356,156.573305 11.6733051,156.988983 C12.9584746,157.404661 14.1177966,157.793644 14.9567797,158.075847 L15.9483051,158.419068 C16.0715757,158.45744 16.1914733,158.505909 16.3067797,158.563983 C16.1765632,158.548248 16.0485979,158.517536 15.9254237,158.472458 L14.9186441,158.167373 C14.0758475,157.908051 12.9088983,157.538136 11.6237288,157.122458 C10.3385593,156.70678 9.17923729,156.317797 8.34025424,156.035593 L7.34872881,155.692373 C7.2262283,155.651873 7.10648516,155.603466 6.99025424,155.547458 L6.99025424,155.547458 Z" id="Path" fill="#E0E0E0"></path>
                            <path d="M16.0970339,158.430508 C16.182134,158.321996 16.2779575,158.222339 16.3830508,158.133051 L17.1991525,157.370339 C17.8855932,156.71822 18.8313559,155.814407 19.8495763,154.784746 C20.8677966,153.755085 21.7563559,152.801695 22.4084746,152.115254 L23.1711864,151.291525 C23.260226,151.18763 23.3571217,151.090734 23.4610169,151.001695 C23.3884395,151.119257 23.3041084,151.229143 23.209322,151.329661 C23.0415254,151.53178 22.7936441,151.825424 22.4771186,152.180085 C21.8516949,152.89322 20.9516949,153.858051 19.9449153,154.887712 C18.9381356,155.917373 17.9694915,156.813559 17.2754237,157.450424 C16.9245763,157.766949 16.6347458,158.018644 16.4326271,158.190254 C16.3269135,158.2786 16.2147357,158.358909 16.0970339,158.430508 L16.0970339,158.430508 Z" id="Path" fill="#E0E0E0"></path>
                            <path d="M39.1766949,23.9987288 C39.4322034,22.1567797 36.8275424,20.6389831 34.875,20.4826271 C33.940678,20.4063559 32.9682203,20.5474576 32.0911017,20.2423729 C30.184322,19.575 29.4216102,17.1 27.545339,16.3144068 C26.1457627,15.7233051 24.5402542,16.2495763 23.1864407,16.9283898 C21.8326271,17.6072034 20.4940678,18.4538136 18.9915254,18.5644068 C17.6758475,18.6483051 16.2495763,18.1601695 15.0978814,18.804661 C14.2398305,19.2813559 13.7898305,20.2728814 13.0004237,20.8525424 C12.2110169,21.4322034 11.2194915,21.5466102 10.2584746,21.5961864 C9.29745763,21.6457627 8.3059322,21.6572034 7.43262712,22.0576271 C6.55932203,22.4580508 5.83474576,23.3809322 6.01779661,24.3457627 L39.1766949,23.9987288 Z" id="Path" fill="#F5F5F5"></path>
                            <path d="M60.7080508,6.10169492 C60.879661,4.86228814 59.1330508,3.8440678 57.8173729,3.74110169 C57.1919492,3.68771186 56.5436441,3.78305085 55.9487288,3.57711864 C54.6635593,3.1309322 54.1487288,1.46822034 52.8978814,0.938135593 C51.9597458,0.556779661 50.8805085,0.896186441 49.9728814,1.35381356 C49.0652542,1.81144068 48.1652542,2.38728814 47.1470339,2.45211864 C46.2661017,2.50932203 45.3050847,2.18135593 44.5309322,2.61228814 C43.9550847,2.93262712 43.6538136,3.6 43.1237288,3.98898305 C42.5714768,4.33128315 41.9313059,4.50491129 41.2817797,4.48855932 C40.6324933,4.47184412 39.9858009,4.5766083 39.375,4.79745763 C38.7915254,5.06822034 38.3033898,5.68983051 38.4254237,6.32288136 L60.7080508,6.10169492 Z" id="Path" fill="#F5F5F5"></path>
                            <path d="M171.064831,13.309322 C171.236441,12.0737288 169.489831,11.0516949 168.174153,10.9487288 C167.548729,10.895339 166.900424,10.990678 166.305508,10.7847458 C165.020339,10.3385593 164.505508,8.67584746 163.254661,8.14576271 C162.316525,7.76440678 161.237288,8.10381356 160.329661,8.56144068 C159.422034,9.0190678 158.522034,9.59491525 157.503814,9.65974576 C156.622881,9.71694915 155.661864,9.38898305 154.887712,9.81991525 C154.311864,10.1440678 154.010593,10.8076271 153.480508,11.1966102 C152.928256,11.5389103 152.288086,11.7125384 151.638559,11.6961864 C150.988907,11.6788686 150.341869,11.7849828 149.73178,12.0088983 C149.144492,12.2758475 148.660169,12.8974576 148.782203,13.534322 L171.064831,13.309322 Z" id="Path" fill="#FAFAFA"></path>
                            <path d="M30.8021186,56.6237288 C30.9699153,55.3881356 29.2233051,54.3661017 27.9114407,54.2631356 C27.2860169,54.2097458 26.6338983,54.3050847 26.0389831,54.0991525 C24.7538136,53.6529661 24.2427966,51.9902542 22.9881356,51.4601695 C22.05,51.0788136 20.9707627,51.4182203 20.059322,51.8758475 C19.1478814,52.3334746 18.2516949,52.909322 17.2372881,52.9741525 C16.3525424,53.0313559 15.395339,52.7033898 14.6211864,53.134322 C14.045339,53.4584746 13.7440678,54.1220339 13.2101695,54.5110169 C12.659279,54.8532158 12.0203513,55.0268662 11.3720339,55.0105932 C10.7223819,54.9932753 10.075344,55.0993896 9.46525424,55.3233051 C8.8779661,55.5902542 8.39364407,56.2118644 8.51186441,56.8487288 L30.8021186,56.6237288 Z" id="Path" fill="#FAFAFA"></path>
                            <path d="M132.990254,11.7076271 C133.37161,9.01144068 129.558051,6.79194915 126.697881,6.56313559 C125.332627,6.45254237 123.917797,6.65847458 122.625,6.20847458 C119.825847,5.23601695 118.708475,1.63220339 115.977966,0.465254237 C113.937712,-0.381355932 111.584746,0.381355932 109.605508,1.3690678 C107.626271,2.35677966 105.669915,3.6190678 103.458051,3.76016949 C101.551271,3.88220339 99.4461864,3.1690678 97.7644068,4.11101695 C96.5097458,4.80889831 95.8576271,6.25423729 94.7135593,7.10847458 C93.5694915,7.96271186 92.1088983,8.1190678 90.7055085,8.19533898 C89.3021186,8.27161017 87.8491525,8.28305085 86.5716102,8.87033898 C85.2940678,9.45762712 84.2377119,10.8038136 84.5008475,12.184322 L132.990254,11.7076271 Z" id="Path" fill="#EBEBEB"></path>
                            <path d="M157.290254,34.4288136 C157.614407,32.0834746 154.304237,30.1538136 151.817797,29.9516949 C150.63178,29.8563559 149.4,30.0394068 148.275,29.6466102 C145.841949,28.8 144.869492,25.6538136 142.493644,24.6508475 C140.716525,23.8881356 138.680085,24.5669492 136.948729,25.4364407 C135.217373,26.3059322 133.516525,27.3927966 131.609746,27.5148305 C129.939407,27.6216102 128.120339,27.0038136 126.652119,27.8199153 C125.561441,28.4300847 124.989407,29.6847458 123.982627,30.4283898 C122.975847,31.1720339 121.713559,31.3055085 120.49322,31.3741525 C119.272881,31.4427966 118.010593,31.4504237 116.897034,31.9614407 C115.783475,32.4724576 114.86822,33.6432203 115.097034,34.8444915 L157.290254,34.4288136 Z" id="Path" fill="#F5F5F5"></path>
                        </g>
                        <g id="freepik--Floor--inject-2" transform="translate(0.381356, 164.364407)" fill="#263238">
                            <path d="M178.440254,0.44 C178.440254,0.51 138.497034,0.57 89.2411017,0.57 C39.9851695,0.57 0.0343220339,0.5 0.0343220339,0.44 C0.0343220339,0.38 39.9661017,0.31 89.2411017,0.31 C138.516102,0.31 178.440254,0.365 178.440254,0.44 Z" id="Path"></path>
                        </g>
                        <g id="freepik--House--inject-2" transform="translate(17.923729, 17.923729)" fill="#263238">
                            <path d="M43.2991525,59.2360169 C43.2935311,59.1827751 43.2935311,59.1290893 43.2991525,59.0758475 C43.2991525,58.9614407 43.2800847,58.8088983 43.2648305,58.6105932 C43.2648305,58.5076271 43.2648305,58.3932203 43.2457627,58.2673729 C43.2266949,58.1415254 43.2038136,58.0080508 43.1809322,57.859322 C43.1364957,57.5179744 43.0676757,57.1802465 42.975,56.8487288 C42.7431686,55.9334429 42.3755295,55.0580506 41.884322,54.2516949 C41.2397488,53.1807819 40.395675,52.2434975 39.3978814,51.490678 C36.7659119,49.4903149 33.2967411,48.9672088 30.1919492,50.1025424 C29.757913,50.2595484 29.3349251,50.4455612 28.9258475,50.659322 C28.5116083,50.887003 28.1128591,51.1417948 27.7322034,51.4220339 C27.3439333,51.7093305 26.9757062,52.0227694 26.6300847,52.3601695 C26.2865309,52.7193026 25.9679883,53.1015538 25.6766949,53.5042373 C25.0740485,54.3140114 24.6053684,55.2153193 24.2885593,56.1737288 C23.6225307,58.1635428 23.6225307,60.3161183 24.2885593,62.3059322 C24.6060364,63.2640597 25.0746631,64.1652647 25.6766949,64.9754237 C25.9688736,65.3774187 26.2873679,65.7596118 26.6300847,66.1194915 C26.9757062,66.4568916 27.3439333,66.7703305 27.7322034,67.0576271 C28.1106413,67.3391563 28.5082118,67.5940092 28.9220339,67.820339 C29.3319875,68.0350062 29.7563064,68.2210439 30.1919492,68.3771186 C34.5801318,69.9699398 39.4817273,68.2305608 41.884322,64.2279661 C42.3770856,63.4224064 42.7448264,62.5467719 42.975,61.6309322 C43.0676757,61.2994145 43.1364957,60.9616866 43.1809322,60.620339 C43.2038136,60.4754237 43.2305085,60.3381356 43.2457627,60.2122881 C43.2610169,60.0864407 43.2457627,59.9720339 43.2648305,59.8690678 C43.2648305,59.6745763 43.2915254,59.5182203 43.2991525,59.4038136 C43.2935425,59.3518459 43.2935425,59.2994253 43.2991525,59.2474576 C43.3033328,59.2994924 43.3033328,59.3517787 43.2991525,59.4038136 C43.2991525,59.5182203 43.2991525,59.6745763 43.2991525,59.8728814 C43.2991525,59.9771186 43.2991525,60.0915254 43.2991525,60.2161017 C43.2991525,60.3457627 43.2610169,60.4792373 43.2419492,60.6317797 C43.2048524,60.9756119 43.1411013,61.3160429 43.0512712,61.65 C42.8333063,62.5781815 42.473118,63.4670748 41.9834746,64.2851695 C39.5743082,68.3767768 34.5875189,70.1652201 30.1271186,68.5372881 C29.6823574,68.3794288 29.2491095,68.1908385 28.8305085,67.9728814 C28.4081944,67.7464888 28.00175,67.4916647 27.6139831,67.2101695 C27.212326,66.9175572 26.8301606,66.5990861 26.4699153,66.2567797 C26.1226934,65.8956496 25.797932,65.5135773 25.4974576,65.1127119 C24.881326,64.284435 24.4023352,63.3625067 24.0788136,62.3822034 C23.3974532,60.351825 23.3974532,58.1545309 24.0788136,56.1241525 C24.4023352,55.1438493 24.881326,54.2219209 25.4974576,53.3936441 C25.797932,52.9927786 26.1226934,52.6107064 26.4699153,52.2495763 C26.8311667,51.908402 27.2132581,51.5899925 27.6139831,51.2961864 C28.0023168,51.0155316 28.4087039,50.7607435 28.8305085,50.5334746 C29.2491095,50.3155174 29.6823574,50.1269271 30.1271186,49.9690678 C31.7912798,49.3679557 33.5859797,49.2231157 35.325,49.5495763 C38.0951645,50.0806095 40.5059466,51.7710715 41.9491525,54.1944915 C42.438796,55.0125862 42.7989843,55.9014795 43.0169492,56.829661 C43.1068082,57.1649033 43.1705583,57.5066037 43.2076271,57.8516949 C43.2076271,58.0004237 43.2533898,58.1377119 43.2648305,58.2635593 C43.2762712,58.3894068 43.2648305,58.5038136 43.2648305,58.6067797 C43.2648305,58.8050847 43.2648305,58.9614407 43.2648305,59.0758475 C43.2805702,59.1282248 43.2920483,59.1817892 43.2991525,59.2360169 Z" id="Path"></path>
                            <path d="M11.475,51.9063559 L26.7292373,33.654661 L26.7063559,33.7118644 C26.7063559,30.2491525 26.7063559,26.4394068 26.7063559,22.4466102 L26.8055085,22.5457627 L11.475,22.5457627 L11.570339,22.4504237 C11.5169492,39.3673729 11.4788136,50.9987288 11.475,51.9101695 C11.475,50.9987288 11.4330508,39.3673729 11.379661,22.4504237 L11.379661,22.3550847 L26.8817797,22.3550847 L26.8817797,22.4542373 C26.8817797,26.4470339 26.8817797,30.2567797 26.8817797,33.7194915 L26.8817797,33.7538136 L26.8588983,33.7766949 L11.475,51.9063559 Z" id="Path"></path>
                            <path d="M0,146.745763 L144.827542,146.654237 L144.736017,146.741949 C144.976271,120.241525 145.239407,91.0220339 145.498729,60.2694915 L145.525424,60.3381356 L135.922881,49.4885593 L115.264831,26.1228814 L115.341102,26.1572034 L33.2275424,26.1572034 L33.2961864,26.1266949 L0.556779661,65.509322 L0.556779661,65.4635593 C0.221186441,115.592797 0,146.162288 0,146.745763 C0,146.162288 0.163983051,115.592797 0.427118644,65.4597458 L0.427118644,65.4330508 L0.427118644,65.4139831 L33.1779661,26.0008475 L33.204661,25.970339 L33.2427966,25.970339 L115.356356,25.970339 L115.398305,25.970339 L115.428814,26.004661 L136.102119,49.3665254 C139.389407,53.0847458 142.657627,56.7762712 145.704661,60.2161017 L145.727542,60.2466102 L145.727542,60.2847458 C145.445339,91.0334746 145.174576,120.252966 144.930508,146.757203 L144.930508,146.822034 L144.842797,146.822034 L0,146.745763 Z" id="Path"></path>
                            <path d="M71.4889831,146.776271 C71.4889831,146.776271 71.4889831,146.658051 71.4889831,146.425424 C71.4889831,146.192797 71.4889831,145.841949 71.4889831,145.391949 C71.4889831,144.480508 71.4889831,143.145763 71.4889831,141.425847 C71.4889831,137.993644 71.4699153,132.997881 71.4584746,126.842797 C71.4584746,114.525 71.4394068,97.5165254 71.4279661,78.7309322 L71.4279661,66.5275424 L71.454661,66.5923729 L44.0275424,37.7084746 L35.9542373,29.1775424 L33.7881356,26.8894068 L33.1779661,26.2677966 C33.0521186,26.1305085 32.9911017,26.0580508 32.9911017,26.0580508 L33.1894068,26.2525424 L33.7614407,26.8398305 C34.2610169,27.3622881 34.9970339,28.1288136 35.9504237,29.1279661 L44.065678,37.6207627 L71.5461864,66.4588983 L71.5728814,66.4855932 L71.5728814,78.7423729 C71.5728814,97.5279661 71.55,114.536441 71.5423729,126.854237 C71.5423729,133.009322 71.5194915,137.989831 71.5118644,141.437288 C71.5118644,143.157203 71.5118644,144.488136 71.4927966,145.40339 C71.4927966,145.85339 71.4927966,146.19661 71.4927966,146.436864 C71.4927966,146.677119 71.4889831,146.776271 71.4889831,146.776271 Z" id="Path"></path>
                        </g>
                    </g>
                    <g id="Group-3" transform="translate(0.061611, 0.000000)">
                        <g id="freepik--Planets--inject-2" transform="translate(-0.000000, 0.000000)">
                            <g id="Group" opacity="0.3" fill="#3052B7">
                                <path d="M69.3128106,41.9182464 C69.3127904,42.3219946 69.069289,42.6858836 68.6960665,42.8398885 C68.322844,42.9938934 67.8935851,42.9076092 67.6088585,42.6213518 C67.3241318,42.3350944 67.2401506,41.9053791 67.3961544,41.5329876 C67.5521583,41.1605962 67.9173477,40.9190494 68.32109,40.9211942 C68.5850333,40.9211942 68.838089,41.0264193 69.024224,41.2135551 C69.210359,41.4006908 69.3142153,41.654307 69.3128106,41.9182464 Z" id="Path"></path>
                                <circle id="Oval" cx="1.05035545" cy="79.5124408" r="1"></circle>
                                <circle id="Oval" cx="117.325237" cy="181.988744" r="1.00770142"></circle>
                                <circle id="Oval" cx="141.558057" cy="141.291469" r="1"></circle>
                                <path d="M188.30154,15.2594787 C188.30154,15.648172 187.986442,15.9632701 187.597749,15.9632701 C187.209056,15.9632701 186.893957,15.648172 186.893957,15.2594787 C186.893957,14.8707854 187.209056,14.5556872 187.597749,14.5556872 C187.986442,14.5556872 188.30154,14.8707854 188.30154,15.2594787 L188.30154,15.2594787 Z" id="Path"></path>
                                <path d="M54.2505924,1.06635071 C54.2505924,1.35100779 54.0791191,1.6076357 53.8161303,1.71656924 C53.5531414,1.82550279 53.2504282,1.76528938 53.0491452,1.56400643 C52.8478623,1.36272348 52.7876489,1.06001022 52.8965824,0.797021376 C53.005516,0.534032528 53.2621439,0.362559242 53.5468009,0.362559242 C53.9342856,0.36546187 54.2476898,0.678866092 54.2505924,1.06635071 Z" id="Path"></path>
                                <circle id="Oval" cx="110.207346" cy="37.2902844" r="1"></circle>
                            </g>
                            <circle id="Oval" fill="#3052B7" cx="37.4449052" cy="26.3175355" r="11.681872"></circle>
                            <circle id="Oval" fill="#FFFFFF" opacity="0.7" cx="37.4449052" cy="26.3175355" r="11.681872"></circle>
                            <path d="M33.4194313,17.5040922 C31.8285071,17.4992707 30.253458,17.8204501 28.7914692,18.4478673 C25.0891705,22.5169744 24.7259005,28.6171671 27.9191105,33.0969057 C31.1123206,37.5766443 36.9973857,39.2229507 42.0515403,37.0503555 L42.0515403,37.0503555 C45.1586444,33.626192 45.9549221,28.6921482 44.0827169,24.4644019 C42.2105116,20.2366556 38.0218463,17.5101323 33.3981043,17.5094787 L33.4194313,17.5040922 Z" id="Path" fill="#3052B7" opacity="0.2"></path>
                            <path d="M32.257109,20.5912322 C32.257109,21.1801615 31.7796875,21.6575829 31.1907583,21.6575829 C30.6018291,21.6575829 30.1244076,21.1801615 30.1244076,20.5912322 C30.1244076,20.002303 30.6018291,19.5248815 31.1907583,19.5248815 C31.7796875,19.5248815 32.257109,20.002303 32.257109,20.5912322 Z" id="Path" fill="#3052B7" opacity="0.2"></path>
                            <path d="M44.8187204,19.5248815 C44.8187204,20.1138108 44.3412989,20.5912322 43.7523697,20.5912322 C43.1634404,20.5912322 42.686019,20.1138108 42.686019,19.5248815 C42.686019,18.9359523 43.1634404,18.4585308 43.7523697,18.4585308 C44.3412989,18.4585308 44.8187204,18.9359523 44.8187204,19.5248815 Z" id="Path" fill="#3052B7" opacity="0.2"></path>
                            <path d="M42.686019,27.1386256 C42.686019,28.1044695 41.9030477,28.8874408 40.9372038,28.8874408 C39.9713598,28.8874408 39.1883886,28.1044695 39.1883886,27.1386256 C39.1883886,26.1727816 39.9713598,25.3898104 40.9372038,25.3898104 C41.4010184,25.3898104 41.8458364,25.5740601 42.1738029,25.9020265 C42.5017693,26.229993 42.686019,26.674811 42.686019,27.1386256 L42.686019,27.1386256 Z" id="Path" fill="#3052B7" opacity="0.2"></path>
                            <path d="M37.1303318,32.1238152 C37.1303318,33.0683591 36.5613522,33.9198972 35.6887074,34.2813585 C34.8160626,34.6428198 33.811605,34.4430208 33.1437115,33.7751273 C32.4758181,33.1072339 32.2760191,32.1027763 32.6374804,31.2301315 C32.9989417,30.3574867 33.8504798,29.7885071 34.7950237,29.7885071 C36.0847787,29.7885071 37.1303318,30.8340601 37.1303318,32.1238152 L37.1303318,32.1238152 Z" id="Path" fill="#3052B7" opacity="0.2"></path>
                            <circle id="Oval" fill="#3052B7" transform="translate(165.915593, 164.873154) rotate(-76.720000) translate(-165.915593, -164.873154) " cx="165.915593" cy="164.873154" r="10.2529621"></circle>
                            <circle id="Oval" fill="#FFFFFF" opacity="0.3" transform="translate(165.915593, 164.873154) rotate(-76.720000) translate(-165.915593, -164.873154) " cx="165.915593" cy="164.873154" r="10.2529621"></circle>
                            <path d="M172.391588,156.934834 C167.70432,155.5201 162.671048,157.61872 160.377174,161.944237 C158.0833,166.269754 159.169687,171.613703 162.970379,174.700237 C163.926265,174.990555 164.919838,175.137884 165.918839,175.137442 C170.2562,175.136464 174.123702,172.406331 175.576902,168.319655 C177.030102,164.23298 175.754565,159.67401 172.391588,156.934834 L172.391588,156.934834 Z" id="Path" fill="#3052B7" opacity="0.4"></path>
                            <path d="M156.129739,167.950237 C145.183649,173.100711 153.346564,177.072867 168.771327,171.527844 C183.055095,166.393365 188.498815,159.920616 175.702607,161.930687 C176.390403,164.623223 158.50237,171.591825 156.129739,167.950237 Z" id="Path" fill="#3052B7"></path>
                        </g>
                        <g id="freepik--Astronaut--inject-2" transform="translate(72.511848, 6.931280)">
                            <path d="M99.757109,57.4922986 C85.4200237,67.1800948 66.8601896,79.9763033 61.7363744,110.708531 L60.6433649,110.708531 C65.6285545,80.3175355 83.5112559,67.2174171 97.853673,57.4922986 L99.757109,57.4922986 Z" id="Path" fill="#000000" opacity="0.2"></path>
                            <path d="M25.5924171,153.698891 C16.528436,153.698891 7.56575829,149.609005 3.19905213,142.933649 C0.506516588,138.806872 -2.62322275,130.1641 6.69668246,118.631517 L7.52310427,119.303318 C0.933056872,127.4609 -0.282582938,135.645142 4.09478673,142.352488 C9.42654028,150.510071 22.0041469,154.615521 32.7422986,151.69372 C43.7417062,148.702607 50.4170616,139.137441 51.0622038,125.450829 C53.264218,78.6327014 78.1368483,64.2103081 96.2968009,53.6800948 C107.584123,47.1380332 115.736374,42.4140995 113.944905,32.4383886 C113.694313,31.0574645 113.145142,30.1030806 112.254739,29.5165877 C109.935427,27.9863744 105.403436,29.0473934 100.156991,30.2683649 C89.8613744,32.667654 75.764218,35.9520142 67.3667062,21.6682464 L68.2890995,21.1350711 C76.2867299,34.7470379 89.3868483,31.6919431 99.9170616,29.2393365 C105.403436,27.9650474 110.138033,26.8613744 112.841232,28.6368483 C113.987559,29.3886256 114.691351,30.5776066 114.973934,32.2624408 C116.898697,42.9686019 108.042654,48.1084123 96.8193128,54.6131517 C78.8672986,65.0207346 54.2879147,79.2725118 52.1125592,125.525474 C51.4407583,139.707938 44.4774882,149.630332 33.0035545,152.749408 C30.5862177,153.393139 28.0939598,153.712292 25.5924171,153.698891 Z" id="Path" fill="#3052B7"></path>
                            <path d="M25.5924171,153.698891 C16.528436,153.698891 7.56575829,149.609005 3.19905213,142.933649 C0.506516588,138.806872 -2.62322275,130.1641 6.69668246,118.631517 L7.52310427,119.303318 C0.933056872,127.4609 -0.282582938,135.645142 4.09478673,142.352488 C9.42654028,150.510071 22.0041469,154.615521 32.7422986,151.69372 C43.7417062,148.702607 50.4170616,139.137441 51.0622038,125.450829 C53.264218,78.6327014 78.1368483,64.2103081 96.2968009,53.6800948 C107.584123,47.1380332 115.736374,42.4140995 113.944905,32.4383886 C113.694313,31.0574645 113.145142,30.1030806 112.254739,29.5165877 C109.935427,27.9863744 105.403436,29.0473934 100.156991,30.2683649 C89.8613744,32.667654 75.764218,35.9520142 67.3667062,21.6682464 L68.2890995,21.1350711 C76.2867299,34.7470379 89.3868483,31.6919431 99.9170616,29.2393365 C105.403436,27.9650474 110.138033,26.8613744 112.841232,28.6368483 C113.987559,29.3886256 114.691351,30.5776066 114.973934,32.2624408 C116.898697,42.9686019 108.042654,48.1084123 96.8193128,54.6131517 C78.8672986,65.0207346 54.2879147,79.2725118 52.1125592,125.525474 C51.4407583,139.707938 44.4774882,149.630332 33.0035545,152.749408 C30.5862177,153.393139 28.0939598,153.712292 25.5924171,153.698891 Z" id="Path" fill="#FFFFFF" opacity="0.2"></path>
                            <path d="M56.3886256,9.06398104 C58.845358,9.07815622 61.2860503,9.46097466 63.6291469,10.1996445 C63.6291469,10.1996445 69.4940758,20.207346 70.1872038,22.5 C69.9419431,24.7606635 66.1297393,28.4662322 66.1297393,28.4662322 L56.3886256,9.06398104 Z" id="Path" fill="#3052B7"></path>
                            <path d="M56.3886256,9.06398104 C58.845358,9.07815622 61.2860503,9.46097466 63.6291469,10.1996445 C63.6291469,10.1996445 69.4940758,20.207346 70.1872038,22.5 C69.9419431,24.7606635 66.1297393,28.4662322 66.1297393,28.4662322 L56.3886256,9.06398104 Z" id="Path" fill="#FFFFFF" opacity="0.3"></path>
                            <path d="M73.7594787,57.6522512 C71.5009408,54.890602 69.4412634,51.9721318 67.5959716,48.9188389 C67.1481043,48.1475118 66.7233412,47.3619668 66.3216825,46.5622038 C66.0924171,46.1090047 65.8738152,45.6558057 65.660545,45.1972749 C65.3806791,44.7510759 65.1635925,44.268462 65.0154028,43.7630332 C64.3755924,37.0077014 66.6895735,32.0331754 64.4822275,26.610782 L55.6954976,30.0444313 C55.6954976,30.0444313 56.4419431,39.7055687 58.1481043,45.5065166 C59.214455,49.0947867 61.6030806,52.1978673 63.9117299,55.0716825 C64.6315166,55.9674171 65.3246445,56.8898104 66.0444313,57.7908768 C66.764218,58.6919431 67.4893365,59.4223934 68.1771327,60.2701422 C69.2168246,61.5550948 69.5580569,62.7867299 68.7742891,64.3009479 L68.6409953,64.5408768 C68.4170616,64.9354265 69.4620853,65.3832938 70.1232227,64.5408768 C71.1895735,63.1652844 71.0402844,63.2505924 71.9680095,62.0776066 C72.5331754,61.3684834 73.1783175,60.5953791 73.7381517,59.9449052 C74.2952645,59.2851035 74.3042208,58.3223027 73.7594787,57.6522512 L73.7594787,57.6522512 Z" id="Path" fill="#3052B7"></path>
                            <path d="M73.7594787,57.6522512 C71.5009408,54.890602 69.4412634,51.9721318 67.5959716,48.9188389 C67.1481043,48.1475118 66.7233412,47.3619668 66.3216825,46.5622038 C66.0924171,46.1090047 65.8738152,45.6558057 65.660545,45.1972749 C65.3806791,44.7510759 65.1635925,44.268462 65.0154028,43.7630332 C64.3755924,37.0077014 66.6895735,32.0331754 64.4822275,26.610782 L55.6954976,30.0444313 C55.6954976,30.0444313 56.4419431,39.7055687 58.1481043,45.5065166 C59.214455,49.0947867 61.6030806,52.1978673 63.9117299,55.0716825 C64.6315166,55.9674171 65.3246445,56.8898104 66.0444313,57.7908768 C66.764218,58.6919431 67.4893365,59.4223934 68.1771327,60.2701422 C69.2168246,61.5550948 69.5580569,62.7867299 68.7742891,64.3009479 L68.6409953,64.5408768 C68.4170616,64.9354265 69.4620853,65.3832938 70.1232227,64.5408768 C71.1895735,63.1652844 71.0402844,63.2505924 71.9680095,62.0776066 C72.5331754,61.3684834 73.1783175,60.5953791 73.7381517,59.9449052 C74.2952645,59.2851035 74.3042208,58.3223027 73.7594787,57.6522512 L73.7594787,57.6522512 Z" id="Path" fill="#FFFFFF" opacity="0.7"></path>
                            <path d="M71.610782,54.8744076 C70.2164657,56.3690391 68.668858,57.7129202 66.9934834,58.8838863 C67.2227488,59.1398104 67.4466825,59.4170616 67.6759479,59.6623223 C69.3533319,58.5291025 70.8766955,57.183166 72.2079384,55.6581754 L71.610782,54.8744076 Z" id="Path" fill="#3052B7" opacity="0.3"></path>
                            <path d="M73.7594787,57.6522512 L73.6954976,57.5776066 C73.2852285,58.0482598 73.0465402,58.6440407 73.0183649,59.2677725 C72.984042,59.6956472 73.0535474,60.1254829 73.2209716,60.5207346 L73.7274882,59.9182464 C74.2731915,59.2657129 74.2865437,58.3199297 73.7594787,57.6522512 L73.7594787,57.6522512 Z" id="Path" fill="#3052B7" opacity="0.3"></path>
                            <path d="M54.2985782,15.4620853 C53.3460115,16.8883886 52.2033735,18.1781166 50.9022512,19.2956161 C50.1807125,19.9174889 49.3899584,20.4541999 48.5456161,20.8951422 C48.1020074,21.1224409 47.6422277,21.316689 47.1700237,21.4763033 L46.8074645,21.5936019 L46.6901659,21.6255924 L46.4395735,21.6949052 C46.2852687,21.7315187 46.128428,21.7564706 45.9703791,21.7695498 C45.5205691,21.8039498 45.0681762,21.7624955 44.632109,21.6469194 C44.0821963,21.4908349 43.5551744,21.2631757 43.0645735,20.9697867 C42.6698228,20.7390221 42.287208,20.4880979 41.9182464,20.2180095 C41.2516093,19.7221754 40.6142838,19.1881037 40.0094787,18.6184834 C38.8432046,17.5134493 37.7729993,16.311252 36.8104265,15.0248815 C36.4280427,14.5079039 36.4673949,13.7920495 36.9041424,13.3201015 C37.3408898,12.8481535 38.0515548,12.7535415 38.596564,13.0947867 L38.639218,13.0947867 C39.8975118,13.8945498 41.1664692,14.7369668 42.403436,15.4887441 C43.0325829,15.8566351 43.6404028,16.2298578 44.242891,16.5177725 C44.5179337,16.6617724 44.8009777,16.7899433 45.0906398,16.9016588 C45.2710831,16.9813247 45.4642569,17.0282641 45.6611374,17.0402844 C45.693128,17.0402844 45.6611374,17.0029621 45.4638626,17.0082938 C45.4017143,17.0045753 45.3393994,17.0045753 45.2772512,17.0082938 L45.1599526,17.0349526 L45.1599526,17.0349526 L45.3359005,16.9443128 C45.5728413,16.816846 45.8024655,16.6762234 46.0236967,16.5231043 C46.500752,16.1867321 46.9468344,15.8084543 47.3566351,15.3927725 C48.2881109,14.41662 49.1605141,13.3857599 49.9691943,12.3056872 L49.9691943,12.3056872 C50.8874661,11.2783282 52.4373553,11.1200572 53.5443307,11.9406027 C54.6513062,12.7611483 54.9505497,14.2900889 54.2345972,15.4674171 L54.2985782,15.4620853 Z" id="Path" fill="#3052B7"></path>
                            <path d="M54.2985782,15.4620853 C53.3460115,16.8883886 52.2033735,18.1781166 50.9022512,19.2956161 C50.1807125,19.9174889 49.3899584,20.4541999 48.5456161,20.8951422 C48.1020074,21.1224409 47.6422277,21.316689 47.1700237,21.4763033 L46.8074645,21.5936019 L46.6901659,21.6255924 L46.4395735,21.6949052 C46.2852687,21.7315187 46.128428,21.7564706 45.9703791,21.7695498 C45.5205691,21.8039498 45.0681762,21.7624955 44.632109,21.6469194 C44.0821963,21.4908349 43.5551744,21.2631757 43.0645735,20.9697867 C42.6698228,20.7390221 42.287208,20.4880979 41.9182464,20.2180095 C41.2516093,19.7221754 40.6142838,19.1881037 40.0094787,18.6184834 C38.8432046,17.5134493 37.7729993,16.311252 36.8104265,15.0248815 C36.4280427,14.5079039 36.4673949,13.7920495 36.9041424,13.3201015 C37.3408898,12.8481535 38.0515548,12.7535415 38.596564,13.0947867 L38.639218,13.0947867 C39.8975118,13.8945498 41.1664692,14.7369668 42.403436,15.4887441 C43.0325829,15.8566351 43.6404028,16.2298578 44.242891,16.5177725 C44.5179337,16.6617724 44.8009777,16.7899433 45.0906398,16.9016588 C45.2710831,16.9813247 45.4642569,17.0282641 45.6611374,17.0402844 C45.693128,17.0402844 45.6611374,17.0029621 45.4638626,17.0082938 C45.4017143,17.0045753 45.3393994,17.0045753 45.2772512,17.0082938 L45.1599526,17.0349526 L45.1599526,17.0349526 L45.3359005,16.9443128 C45.5728413,16.816846 45.8024655,16.6762234 46.0236967,16.5231043 C46.500752,16.1867321 46.9468344,15.8084543 47.3566351,15.3927725 C48.2881109,14.41662 49.1605141,13.3857599 49.9691943,12.3056872 L49.9691943,12.3056872 C50.8874661,11.2783282 52.4373553,11.1200572 53.5443307,11.9406027 C54.6513062,12.7611483 54.9505497,14.2900889 54.2345972,15.4674171 L54.2985782,15.4620853 Z" id="Path" fill="#FFFFFF" opacity="0.7"></path>
                            <path d="M34.811019,11.9537915 L35.4348341,13.0201422 C35.4348341,13.0201422 35.9093602,14.4170616 36.8637441,14.6729858 L39.4549763,13.8359005 L39.3216825,13.6172986 L39.3216825,13.6172986 C38.9911137,13.1161137 39.028436,12.1404028 39.1404028,11.3299763 C39.2523697,10.5195498 38.8364929,10.492891 38.5272512,10.6954976 C38.3080789,10.9475803 38.1542722,11.2497006 38.0793839,11.575237 C37.9521968,11.3991663 37.8113598,11.2333708 37.6581754,11.0793839 L36.8690758,10.2902844 C36.5257059,9.95464045 35.9815654,9.94068813 35.6214455,10.2582938 L34.9816351,10.8287915 C34.6690229,11.1179338 34.598194,11.5849619 34.811019,11.9537915 Z" id="Path" fill="#3052B7"></path>
                            <path d="M34.811019,11.9537915 L35.4348341,13.0201422 C35.4348341,13.0201422 35.9093602,14.4170616 36.8637441,14.6729858 L39.4549763,13.8359005 L39.3216825,13.6172986 L39.3216825,13.6172986 C38.9911137,13.1161137 39.028436,12.1404028 39.1404028,11.3299763 C39.2523697,10.5195498 38.8364929,10.492891 38.5272512,10.6954976 C38.3080789,10.9475803 38.1542722,11.2497006 38.0793839,11.575237 C37.9521968,11.3991663 37.8113598,11.2333708 37.6581754,11.0793839 L36.8690758,10.2902844 C36.5257059,9.95464045 35.9815654,9.94068813 35.6214455,10.2582938 L34.9816351,10.8287915 C34.6690229,11.1179338 34.598194,11.5849619 34.811019,11.9537915 Z" id="Path" fill="#FFFFFF" opacity="0.7"></path>
                            <path d="M59.0065166,8.11492891 C56.1323371,8.87675693 53.3792158,10.0379496 50.8276066,11.5645735 C50.0124052,12.0747829 49.5999985,13.0377738 49.7932464,13.9798578 C50.8222749,19.0130332 53.1629147,25.7523697 55.6901659,30.0444313 L67.478673,25.1658768 C67.5586493,23.0864929 64.6954976,16.3578199 61.7790284,9.85308057 C61.2565166,8.68542654 60.2488152,7.81635071 59.0065166,8.11492891 Z" id="Path" fill="#3052B7"></path>
                            <path d="M59.0065166,8.11492891 C56.1323371,8.87675693 53.3792158,10.0379496 50.8276066,11.5645735 C50.0124052,12.0747829 49.5999985,13.0377738 49.7932464,13.9798578 C50.8222749,19.0130332 53.1629147,25.7523697 55.6901659,30.0444313 L67.478673,25.1658768 C67.5586493,23.0864929 64.6954976,16.3578199 61.7790284,9.85308057 C61.2565166,8.68542654 60.2488152,7.81635071 59.0065166,8.11492891 Z" id="Path" fill="#FFFFFF" opacity="0.8"></path>
                            <path d="M63.6078199,13.9745261 L61.2671801,13.1907583 C61.8003555,14.561019 63.6824645,16.2938389 64.9994076,17.3122038 C64.5728673,16.2458531 64.0983412,15.1261848 63.6078199,13.9745261 Z" id="Path" fill="#3052B7" opacity="0.3"></path>
                            <path d="M58.2334123,2.83649289 C57.2577014,0.981042654 55.1516588,0.047985782 52.6244076,0.255924171 C50.4917062,0.437203791 48.6042654,2.61255924 48.8281991,3.78554502 C49.0521327,4.95853081 50.8436019,5.45971564 51.1848341,5.86492891 L49.7079384,6.93127962 C49.3544106,7.18645627 49.1203701,7.57488956 49.0599787,8.00668802 C48.9995873,8.43848647 49.1180793,8.87622502 49.3880332,9.2186019 C50.0118483,10.0077014 50.8329384,10.818128 51.3074645,11.4152844 C55.3915877,11.3086493 58.4146919,9.75177725 59.5077014,8.2535545 C59.0971564,6.35545024 59.1824645,4.68127962 58.2334123,2.83649289 Z" id="Path" fill="#3052B7"></path>
                            <path d="M58.2334123,2.83649289 C57.2577014,0.981042654 55.1516588,0.047985782 52.6244076,0.255924171 C50.4917062,0.437203791 48.6042654,2.61255924 48.8281991,3.78554502 C49.0521327,4.95853081 50.8436019,5.45971564 51.1848341,5.86492891 L49.7079384,6.93127962 C49.3544106,7.18645627 49.1203701,7.57488956 49.0599787,8.00668802 C48.9995873,8.43848647 49.1180793,8.87622502 49.3880332,9.2186019 C50.0118483,10.0077014 50.8329384,10.818128 51.3074645,11.4152844 C55.3915877,11.3086493 58.4146919,9.75177725 59.5077014,8.2535545 C59.0971564,6.35545024 59.1824645,4.68127962 58.2334123,2.83649289 Z" id="Path" fill="#FFFFFF" opacity="0.8"></path>
                            <path d="M56.228673,3.98815166 C57.0382644,6.06446072 56.0118361,8.40399693 53.935801,9.21429063 C51.8597659,10.0245843 49.5198827,8.99894743 48.7088868,6.92318653 C47.8978909,4.84742564 48.9227363,2.50719558 50.9982227,1.69549763 C53.0756302,0.886207708 55.4160089,1.91206179 56.228673,3.98815166 Z" id="Path" fill="#263238"></path>
                            <path d="M90.8477488,52.0379147 C90.7890995,50.2837678 90.7091232,50.4383886 90.6611374,48.9614929 C90.6291469,48.0550948 90.6238152,47.0473934 90.6184834,46.1783175 C90.6147997,45.3274889 90.0131723,44.596623 89.17891,44.4295024 C88.4751185,44.285545 87.7659953,44.1522512 87.0462085,44.0029621 C86.1238152,43.8056872 85.2120853,43.5924171 84.311019,43.3311611 C83.6072275,43.1285545 82.9140995,42.9046209 82.2263033,42.6540284 C81.5385071,42.403436 80.7654028,42.1208531 80.0509479,41.7902844 C79.2085308,41.4330569 78.3767773,41.0491706 77.5556872,40.6492891 C76.6332938,40.2120853 75.721564,39.7535545 74.8098341,39.2896919 C71.3015403,33.4834123 71.2268957,29.6552133 67.4626777,25.1658768 L59.3797393,28.8234597 C59.3797393,28.8234597 65.3193128,39.3590047 69.360782,43.8270142 C71.6907583,46.3969194 75.3430095,47.5592417 78.6007109,48.4016588 C80.9520142,49.0041469 83.3353081,49.4680095 85.7186019,49.910545 C86.646327,50.0811611 87.6540284,50.1451422 88.4537915,50.6996445 C89.0455008,51.1533318 89.4512299,51.8074278 89.5947867,52.5390995 C89.6303318,52.6883886 89.6623223,52.8376777 89.6907583,52.9869668 C89.7920616,53.4348341 90.8850711,53.0936019 90.8477488,52.0379147 Z" id="Path" fill="#3052B7"></path>
                            <path d="M90.8477488,52.0379147 C90.7890995,50.2837678 90.7091232,50.4383886 90.6611374,48.9614929 C90.6291469,48.0550948 90.6238152,47.0473934 90.6184834,46.1783175 C90.6147997,45.3274889 90.0131723,44.596623 89.17891,44.4295024 C88.4751185,44.285545 87.7659953,44.1522512 87.0462085,44.0029621 C86.1238152,43.8056872 85.2120853,43.5924171 84.311019,43.3311611 C83.6072275,43.1285545 82.9140995,42.9046209 82.2263033,42.6540284 C81.5385071,42.403436 80.7654028,42.1208531 80.0509479,41.7902844 C79.2085308,41.4330569 78.3767773,41.0491706 77.5556872,40.6492891 C76.6332938,40.2120853 75.721564,39.7535545 74.8098341,39.2896919 C71.3015403,33.4834123 71.2268957,29.6552133 67.4626777,25.1658768 L59.3797393,28.8234597 C59.3797393,28.8234597 65.3193128,39.3590047 69.360782,43.8270142 C71.6907583,46.3969194 75.3430095,47.5592417 78.6007109,48.4016588 C80.9520142,49.0041469 83.3353081,49.4680095 85.7186019,49.910545 C86.646327,50.0811611 87.6540284,50.1451422 88.4537915,50.6996445 C89.0455008,51.1533318 89.4512299,51.8074278 89.5947867,52.5390995 C89.6303318,52.6883886 89.6623223,52.8376777 89.6907583,52.9869668 C89.7920616,53.4348341 90.8850711,53.0936019 90.8477488,52.0379147 Z" id="Path" fill="#FFFFFF" opacity="0.8"></path>
                            <path d="M86.7476303,43.9336493 C86.4277251,43.8643365 86.1078199,43.7950237 85.7825829,43.7150474 C85.8092417,45.5598341 84.9454976,48.7375592 84.6309242,49.7026066 L85.6439573,49.8945498 C86.3078493,47.97395 86.6798798,45.9646259 86.7476303,43.9336493 Z" id="Path" fill="#3052B7" opacity="0.3"></path>
                            <path d="M90.6398104,46.1783175 C90.6366445,45.3291266 90.0377125,44.5988304 89.2055687,44.4295024 L88.6723934,44.3281991 C88.7580474,44.9343122 89.0682185,45.4861505 89.5414692,45.8744076 C89.8458368,46.1557912 90.2106157,46.3637152 90.6078199,46.4822275 C90.6398104,46.3862559 90.6398104,46.2796209 90.6398104,46.1783175 Z" id="Path" fill="#3052B7" opacity="0.3"></path>
                            <path d="M55.4768957,4.02014218 C55.6901659,4.83056872 54.7837678,5.67831754 54.063981,4.97985782 C53.3921766,4.25956357 52.6569915,3.60110891 51.8672986,3.01244076 C51.1261848,2.5485782 52.1125592,1.73815166 53.2802133,2.05272512 C54.2917174,2.30683604 55.1132754,3.04264891 55.4768957,4.02014218 Z" id="Path" fill="#FFFFFF"></path>
                            <path d="M55.535545,29.7831754 C55.1623223,29.9218009 55.8447867,30.5616114 55.8447867,30.5616114 C55.8447867,30.5616114 63.3092417,28.0077014 67.8412322,25.3791469 C67.8634607,25.0562774 67.7284346,24.7425403 67.478673,24.5367299 C63.5999501,26.509785 59.6125127,28.2614093 55.535545,29.7831754 L55.535545,29.7831754 Z" id="Path" fill="#3052B7"></path>
                            <path d="M55.535545,29.7831754 C55.1623223,29.9218009 55.8447867,30.5616114 55.8447867,30.5616114 C55.8447867,30.5616114 63.3092417,28.0077014 67.8412322,25.3791469 C67.8634607,25.0562774 67.7284346,24.7425403 67.478673,24.5367299 C63.5999501,26.509785 59.6125127,28.2614093 55.535545,29.7831754 L55.535545,29.7831754 Z" id="Path" fill="#FFFFFF" opacity="0.5"></path>
                            <path d="M61.0272512,7.76303318 C62.4988152,8.50947867 63.8797393,9.29324645 65.292654,10.1623223 C65.9804502,10.5995261 66.6629147,11.0420616 67.3400474,11.5219194 C68.0171801,12.0017773 68.688981,12.4922986 69.3661137,13.0468009 L69.6167062,13.2547393 L69.9312796,13.542654 C70.1187395,13.7103702 70.2967388,13.8883695 70.464455,14.0758294 C70.6350711,14.2624408 70.7790284,14.4437204 70.917654,14.6090047 C71.0562796,14.7742891 71.2055687,14.971564 71.3281991,15.1421801 C71.8250473,15.8276217 72.284256,16.5395732 72.7037915,17.2748815 C73.5301166,18.7007809 74.2432084,20.1893601 74.8364929,21.7268957 C75.0626365,22.3258849 74.8347089,23.0012335 74.2918448,23.3406854 C73.7489808,23.6801374 73.0420085,23.5893802 72.6024882,23.1238152 L72.5758294,23.0918246 C71.5094787,21.9561611 70.4804502,20.7618483 69.44609,19.6475118 C68.4117299,18.5331754 67.3613744,17.4028436 66.4922986,16.9069905 C65.2819905,16.1552133 63.9330569,15.403436 62.5947867,14.667654 L58.563981,12.4283175 L58.563981,12.4283175 C57.2624474,11.7392703 56.7659291,10.1255857 57.4549763,8.82405213 C58.1440235,7.52251852 59.7577081,7.02600019 61.0592417,7.71504739 L61.0272512,7.76303318 Z" id="Path" fill="#3052B7"></path>
                            <path d="M61.0272512,7.76303318 C62.4988152,8.50947867 63.8797393,9.29324645 65.292654,10.1623223 C65.9804502,10.5995261 66.6629147,11.0420616 67.3400474,11.5219194 C68.0171801,12.0017773 68.688981,12.4922986 69.3661137,13.0468009 L69.6167062,13.2547393 L69.9312796,13.542654 C70.1187395,13.7103702 70.2967388,13.8883695 70.464455,14.0758294 C70.6350711,14.2624408 70.7790284,14.4437204 70.917654,14.6090047 C71.0562796,14.7742891 71.2055687,14.971564 71.3281991,15.1421801 C71.8250473,15.8276217 72.284256,16.5395732 72.7037915,17.2748815 C73.5301166,18.7007809 74.2432084,20.1893601 74.8364929,21.7268957 C75.0626365,22.3258849 74.8347089,23.0012335 74.2918448,23.3406854 C73.7489808,23.6801374 73.0420085,23.5893802 72.6024882,23.1238152 L72.5758294,23.0918246 C71.5094787,21.9561611 70.4804502,20.7618483 69.44609,19.6475118 C68.4117299,18.5331754 67.3613744,17.4028436 66.4922986,16.9069905 C65.2819905,16.1552133 63.9330569,15.403436 62.5947867,14.667654 L58.563981,12.4283175 L58.563981,12.4283175 C57.2624474,11.7392703 56.7659291,10.1255857 57.4549763,8.82405213 C58.1440235,7.52251852 59.7577081,7.02600019 61.0592417,7.71504739 L61.0272512,7.76303318 Z" id="Path" fill="#FFFFFF" opacity="0.8"></path>
                            <path d="M76.1001185,24.3874408 L75.6469194,23.2517773 C75.6469194,23.2517773 75.396327,21.8015403 74.4952607,21.396327 L71.8293839,21.8175355 L71.9200237,22.0521327 L71.9200237,22.0521327 C72.1652844,22.5853081 71.978673,23.561019 71.7387441,24.339455 C71.4988152,25.117891 71.9040284,25.2191943 72.2452607,25.0645735 C72.4372038,24.9792654 72.6238152,24.6327014 72.8264218,24.2648104 C72.925822,24.450149 73.0380626,24.6283087 73.1623223,24.7979858 L73.818128,25.6990521 C74.1023408,26.0863964 74.6373179,26.1887398 75.0444313,25.9336493 L75.7695498,25.4697867 C76.1191019,25.2305633 76.256363,24.7811439 76.1001185,24.3874408 L76.1001185,24.3874408 Z" id="Path" fill="#3052B7"></path>
                            <path d="M76.1001185,24.3874408 L75.6469194,23.2517773 C75.6469194,23.2517773 75.396327,21.8015403 74.4952607,21.396327 L71.8293839,21.8175355 L71.9200237,22.0521327 L71.9200237,22.0521327 C72.1652844,22.5853081 71.978673,23.561019 71.7387441,24.339455 C71.4988152,25.117891 71.9040284,25.2191943 72.2452607,25.0645735 C72.4372038,24.9792654 72.6238152,24.6327014 72.8264218,24.2648104 C72.925822,24.450149 73.0380626,24.6283087 73.1623223,24.7979858 L73.818128,25.6990521 C74.1023408,26.0863964 74.6373179,26.1887398 75.0444313,25.9336493 L75.7695498,25.4697867 C76.1191019,25.2305633 76.256363,24.7811439 76.1001185,24.3874408 L76.1001185,24.3874408 Z" id="Path" fill="#FFFFFF" opacity="0.8"></path>
                            <path d="M58.7772512,13.8945498 L58.1267773,13.9478673 L54.1332938,23.5876777 C54.3515698,23.6033836 54.5709628,23.5854006 54.7837678,23.5343602 C54.7837678,23.5343602 59.9875592,21.5936019 61.5604265,20.8684834 C60.5047393,18.6877962 58.7772512,13.8945498 58.7772512,13.8945498 Z" id="Path" fill="#3052B7" opacity="0.3"></path>
                            <path d="M51.4887441,16.4218009 C51.9739712,18.9416975 52.8748861,21.3633569 54.1546209,23.5876777 C56.1060427,22.9158768 59.3584123,21.6469194 60.9366114,20.9218009 C59.8758479,18.6477695 58.9344034,16.3199635 58.1161137,13.9478673 C56.4472749,14.0598341 52.7843602,15.4620853 51.4887441,16.4218009 Z" id="Path" fill="#FFFFFF"></path>
                            <path d="M55.450237,18.5065166 C55.2908354,19.0397237 54.8258587,19.4243524 54.2722223,19.4809698 C53.718586,19.5375873 53.1853804,19.2550376 52.9213506,18.7651325 C52.6573208,18.2752275 52.714492,17.6744995 53.0661934,17.2431936 C53.4178948,16.8118876 53.994826,16.6349895 54.5278436,16.7950237 C55.2548631,17.0133054 55.6676557,17.7792385 55.450237,18.5065166 Z" id="Path" fill="#3052B7" opacity="0.3"></path>
                            <path d="M56.4686019,16.6723934 C56.4260685,16.8545576 56.2759819,16.9918715 56.0907627,17.0180777 C55.9055435,17.0442838 55.7232544,16.9539968 55.6318543,16.7907824 C55.5404543,16.627568 55.5587261,16.4249669 55.6778532,16.2807391 C55.7969802,16.1365114 55.9924819,16.0802959 56.1700237,16.139218 C56.3941701,16.2108991 56.5246092,16.4438262 56.4686019,16.6723934 L56.4686019,16.6723934 Z" id="Path" fill="#3052B7" opacity="0.6"></path>
                            <path d="M57.6629147,16.2085308 C57.628781,16.3772225 57.5020386,16.5120213 57.3357676,16.556473 C57.1694966,16.6009248 56.9923953,16.5473571 56.8786343,16.4182043 C56.7648733,16.2890516 56.7340877,16.1066054 56.7991706,15.9472749 C56.833636,15.8333216 56.912053,15.7377797 57.0170982,15.6817556 C57.1221435,15.6257314 57.2451719,15.6138358 57.3590047,15.6486967 C57.596489,15.7206385 57.7319587,15.9701879 57.6629147,16.2085308 L57.6629147,16.2085308 Z" id="Path" fill="#3052B7" opacity="0.6"></path>
                            <polygon id="Path" fill="#3052B7" opacity="0.5" points="59.3370853 20.3619668 54.4052133 22.3080569 54.1119668 21.3376777 59.0385071 19.3915877"></polygon>
                        </g>
                        <g id="freepik--Rocket--inject-2" transform="translate(13.329384, 83.175355)">
                            <path d="M19.9354265,46.3862559 L29.2659953,55.7168246 L55.3915877,31.1001185 C46.3862559,27.6611374 28.8767773,37.4235782 19.9354265,46.3862559 Z" id="Path" fill="#263238"></path>
                            <path d="M52.4751185,78.9099526 C49.4946682,75.9241706 43.1445498,69.5793839 43.1445498,69.5793839 L67.7612559,43.4537915 C71.17891,52.4377962 61.4164692,69.9632701 52.4751185,78.9099526 Z" id="Path" fill="#263238"></path>
                            <path d="M88.1872038,20.1007109 L98.3655213,0.474526066 L78.7393365,10.6635071 C72.4353354,13.9329045 66.6146135,18.0598035 61.443128,22.9265403 L27.9863744,54.4212085 L44.4241706,70.8590047 L75.9188389,37.4022512 C80.7878595,32.2294633 84.9165806,26.4069079 88.1872038,20.1007109 Z" id="Path" fill="#3052B7"></path>
                            <path d="M88.1872038,20.1007109 L98.3655213,0.474526066 L78.7393365,10.6635071 C72.4353354,13.9329045 66.6146135,18.0598035 61.443128,22.9265403 L27.9863744,54.4212085 L44.4241706,70.8590047 L75.9188389,37.4022512 C80.7878595,32.2294633 84.9165806,26.4069079 88.1872038,20.1007109 Z" id="Path" fill="#FFFFFF" opacity="0.6"></path>
                            <circle id="Oval" fill="#FFFFFF" cx="67.2867299" cy="31.5533175" r="6.87796209"></circle>
                            <circle id="Oval" fill="#3052B7" cx="67.2867299" cy="31.5533175" r="4.4200237"></circle>
                            <polygon id="Path" fill="#3052B7" opacity="0.3" points="49.9851896 64.9514218 33.8886256 48.8548578 47.0687204 36.4531991 62.3868483 51.7766588"></polygon>
                            <path d="M23.5770142,61.1125592 C11.5272512,62.0882701 7.53376777,69.8033175 6.16883886,80.0562796 C5.4757109,85.2867299 5.16646919,90.5811611 0.778436019,93.6415877 C0.236234755,94.0100939 0.00184684848,94.6919163 0.202858077,95.3159144 C0.403869306,95.9399124 0.992163866,96.3567205 1.64751185,96.339455 C17.8240521,95.8329384 25.3684834,87.9152844 26.3175355,84.6095972 C26.0684264,86.3376592 25.6230117,88.0316661 24.9899289,89.6587678 C24.7512377,90.2476884 24.9175336,90.9233015 25.402308,91.3341479 C25.8870825,91.7449942 26.580819,91.7982585 27.1226303,91.4662322 C31.6599526,88.6244076 37.3542654,83.3886256 37.7328199,74.8951422 C34.3951422,70.1658768 23.5770142,61.1125592 23.5770142,61.1125592 Z" id="Path" fill="#3052B7"></path>
                            <path d="M23.5770142,61.1125592 C11.5272512,62.0882701 7.53376777,69.8033175 6.16883886,80.0562796 C5.4757109,85.2867299 5.16646919,90.5811611 0.778436019,93.6415877 C0.236234755,94.0100939 0.00184684848,94.6919163 0.202858077,95.3159144 C0.403869306,95.9399124 0.992163866,96.3567205 1.64751185,96.339455 C17.8240521,95.8329384 25.3684834,87.9152844 26.3175355,84.6095972 C26.0684264,86.3376592 25.6230117,88.0316661 24.9899289,89.6587678 C24.7512377,90.2476884 24.9175336,90.9233015 25.402308,91.3341479 C25.8870825,91.7449942 26.580819,91.7982585 27.1226303,91.4662322 C31.6599526,88.6244076 37.3542654,83.3886256 37.7328199,74.8951422 C34.3951422,70.1658768 23.5770142,61.1125592 23.5770142,61.1125592 Z" id="Path" fill="#FFFFFF" opacity="0.2"></path>
                            <polygon id="Path" fill="#3052B7" points="39.6042654 78.5367299 20.3033175 59.235782 30.5829384 57.0124408 41.8276066 68.257109"></polygon>
                        </g>
                    </g>
                </g>
            </g>
        </g>
    </g>
</svg>