<svg width="64" height="64" viewBox="0 0 64 64" fill="none" xmlns="http://www.w3.org/2000/svg">
<path d="M35.4005 52.2494C33.0241 52.5772 30.3198 52.7411 27.2878 52.7411C13.357 52.7411 5.73598 48.8896 5.73598 46.9229V36.8435C10.5708 39.7117 18.9293 41.1048 27.2878 41.1048C29.7462 41.1048 32.1227 40.9409 34.4991 40.695C34.9908 39.138 35.7283 37.663 36.7117 36.3519C34.0074 36.7616 30.8115 37.0074 27.2878 37.0074C13.357 37.0074 5.73598 33.156 5.73598 31.1893V21.1099C5.73598 21.1099 5.81793 21.1099 5.81793 21.1918C6.06377 21.3557 6.30961 21.4377 6.55545 21.6015C6.63739 21.6835 6.71934 21.6835 6.80128 21.7654C7.04712 21.8474 7.21102 22.0113 7.45685 22.0932C7.5388 22.1752 7.62075 22.1752 7.70269 22.2571C8.35826 22.503 9.01383 22.8307 9.75135 23.0766C9.83329 23.0766 9.99719 23.1585 10.0791 23.1585C10.325 23.2405 10.6528 23.3224 10.8986 23.4044C10.9805 23.4044 11.1444 23.4863 11.2264 23.4863C11.5542 23.5683 11.8819 23.6502 12.2097 23.7321C12.2917 23.7321 12.2917 23.7322 12.3736 23.8141C12.7834 23.896 13.1931 23.978 13.6028 24.1419C13.6848 24.1419 13.8487 24.2238 13.9306 24.2238C14.2584 24.3058 14.5862 24.3877 14.832 24.3877C14.9959 24.3877 15.0779 24.4697 15.2417 24.4697C15.5695 24.5516 15.8973 24.5516 16.2251 24.6336C16.307 24.6336 16.389 24.6336 16.5529 24.7155C16.9626 24.7975 17.4543 24.8794 17.864 24.8794C17.946 24.8794 18.1099 24.8794 18.1918 24.8794C18.5196 24.9613 18.9293 24.9613 19.2571 25.0433C19.421 25.0433 19.5849 25.0433 19.6668 25.1252C19.9946 25.1252 20.3224 25.2072 20.6502 25.2072C20.8141 25.2072 20.896 25.2072 21.0599 25.2072C21.5516 25.2072 21.9613 25.2891 22.453 25.2891C22.535 25.2891 22.6169 25.2891 22.6989 25.2891C23.1086 25.2891 23.5183 25.3711 23.8461 25.3711C24.01 25.3711 24.1739 25.3711 24.2558 25.3711C24.5836 25.3711 24.9114 25.3711 25.2392 25.3711C25.4031 25.3711 25.485 25.3711 25.6489 25.3711C26.1406 25.3711 26.5503 25.3711 27.042 25.3711C27.5337 25.3711 28.0254 25.3711 28.4351 25.3711C28.599 25.3711 28.6809 25.3711 28.8448 25.3711C29.1726 25.3711 29.5004 25.3711 29.8282 25.3711C29.9921 25.3711 30.156 25.3711 30.2379 25.3711C30.6476 25.3711 31.0574 25.3711 31.3852 25.2891C31.4671 25.2891 31.549 25.2891 31.631 25.2891C32.1227 25.2891 32.5324 25.2072 33.0241 25.2072C33.188 25.2072 33.2699 25.2072 33.4338 25.2072C33.7616 25.2072 34.0894 25.1252 34.4172 25.1252C34.5811 25.1252 34.7449 25.1252 34.8269 25.0433C35.1547 25.0433 35.5644 24.9613 35.8922 24.8794C35.9741 24.8794 36.138 24.8794 36.22 24.8794C36.6297 24.7975 37.1214 24.7155 37.5311 24.7155C37.6131 24.7155 37.695 24.7155 37.8589 24.6336C38.1867 24.5516 38.5145 24.5516 38.8423 24.4697C39.0062 24.4697 39.0881 24.3877 39.252 24.3877C39.5798 24.3058 39.9076 24.2238 40.1534 24.2238C40.2353 24.2238 40.3992 24.1419 40.4812 24.1419C40.8909 24.0599 41.3006 23.978 41.7104 23.8141C41.7923 23.8141 41.7923 23.8141 41.8743 23.7321C42.2021 23.6502 42.5298 23.5683 42.8576 23.4863C42.9396 23.4863 43.1035 23.4044 43.1854 23.4044C43.4312 23.3224 43.759 23.2405 44.0049 23.1585C44.0868 23.1585 44.2507 23.0766 44.3327 23.0766C45.0702 22.8307 45.7257 22.5849 46.3813 22.2571C46.4633 22.1752 46.5452 22.1752 46.6272 22.0932C46.873 22.0113 47.1188 21.8474 47.2827 21.7654C47.3647 21.6835 47.4466 21.6835 47.5286 21.6015C47.7744 21.4377 48.0202 21.3557 48.2661 21.1918C48.2661 21.1918 48.348 21.1918 48.348 21.1099V29.8781C48.5119 29.8781 48.7578 29.8781 48.9216 29.8781C50.1508 29.8781 51.2981 30.042 52.4453 30.2878V15.5375C52.4453 9.06378 39.5798 5.62204 26.7962 5.62204C14.5042 5.54009 1.63867 8.98183 1.63867 15.4556V46.9229C1.63867 53.3967 14.5042 56.8384 27.2878 56.8384C30.8935 56.8384 34.5811 56.5926 37.9408 56.019C36.8755 54.9537 36.0561 53.6425 35.4005 52.2494ZM27.2878 9.6374C41.2187 9.6374 48.8397 13.4889 48.8397 15.4556C48.8397 17.4223 41.2187 21.2738 27.2878 21.2738C13.357 21.2738 5.73598 17.4223 5.73598 15.4556C5.73598 13.4889 13.357 9.6374 27.2878 9.6374Z" fill="#C7C7CC"/>
<path d="M45.6278 50.7255C45.1033 50.7255 44.5789 50.7255 44.5789 50.2011C44.0544 49.6766 44.0544 48.6277 44.5789 48.1033L51.9213 40.7609C52.4457 39.712 53.4946 39.712 54.0191 40.7609C54.5436 41.8098 54.5436 42.3342 54.0191 42.8587L46.6767 50.2011C46.6767 50.7255 46.1523 50.7255 45.6278 50.7255Z" fill="#C7C7CC"/>
<path d="M52.9702 50.7256C52.4457 50.7256 52.4457 50.7256 51.9213 50.2011L44.5789 42.8587C44.0544 42.3343 44.0544 41.2854 44.5789 40.7609C45.1033 40.2364 46.1523 40.2364 46.6767 40.7609L54.0191 48.1033C54.5436 48.6277 54.5436 49.6766 54.0191 50.2011C54.0191 50.7256 53.4946 50.7256 52.9702 50.7256Z" fill="#C7C7CC"/>
<path d="M49.2989 58.0679C42.4809 58.0679 36.7119 52.2989 36.7119 45.481C36.7119 38.6631 42.4809 32.894 49.2989 32.894C56.1168 32.894 61.8858 38.6631 61.8858 45.481C61.8858 52.2989 56.6412 58.0679 49.2989 58.0679ZM49.2989 36.0408C44.0543 36.0408 39.8586 40.2364 39.8586 45.481C39.8586 50.7255 44.0543 54.9212 49.2989 54.9212C54.5434 54.9212 58.7391 50.7255 58.7391 45.481C58.7391 40.2364 54.5434 36.0408 49.2989 36.0408Z" fill="#C7C7CC"/>
</svg>
