<svg width="12" height="12" viewBox="0 0 12 12" fill="none" xmlns="http://www.w3.org/2000/svg">
<path fill-rule="evenodd" clip-rule="evenodd" d="M5.9999 11.6001C4.51469 11.6001 3.09031 11.0101 2.0401 9.95994C0.989901 8.90974 0.399902 7.48536 0.399902 6.00015C0.399902 4.51493 0.989901 3.09055 2.0401 2.04035C3.09031 0.990145 4.51469 0.400146 5.9999 0.400146C7.48511 0.400146 8.9095 0.990145 9.9597 2.04035C11.0099 3.09055 11.5999 4.51493 11.5999 6.00015C11.5999 7.48536 11.0099 8.90974 9.9597 9.95994C8.9095 11.0101 7.48511 11.6001 5.9999 11.6001ZM5.9999 5.25045C5.81425 5.25045 5.6362 5.3242 5.50493 5.45547C5.37365 5.58675 5.2999 5.76479 5.2999 5.95045V8.75045C5.2999 8.9361 5.37365 9.11414 5.50493 9.24542C5.6362 9.3767 5.81425 9.45045 5.9999 9.45045C6.18555 9.45045 6.3636 9.3767 6.49488 9.24542C6.62615 9.11414 6.6999 8.9361 6.6999 8.75045V5.95045C6.6999 5.76479 6.62615 5.58675 6.49488 5.45547C6.3636 5.3242 6.18555 5.25045 5.9999 5.25045ZM5.9999 4.25015C6.18555 4.25015 6.3636 4.1764 6.49488 4.04512C6.62615 3.91385 6.6999 3.7358 6.6999 3.55015C6.6999 3.36449 6.62615 3.18645 6.49488 3.05517C6.3636 2.9239 6.18555 2.85015 5.9999 2.85015C5.81425 2.85015 5.6362 2.9239 5.50493 3.05517C5.37365 3.18645 5.2999 3.36449 5.2999 3.55015C5.2999 3.7358 5.37365 3.91385 5.50493 4.04512C5.6362 4.1764 5.81425 4.25015 5.9999 4.25015Z" fill="#BCBCBC"/>
</svg>
