<svg width="17" height="16" viewBox="0 0 17 16" fill="none" xmlns="http://www.w3.org/2000/svg">
<path d="M10.6029 5.05263H15.3192C16.2462 5.05263 17 5.808 17 6.73684V8.42105C17.0002 8.52196 16.9822 8.62208 16.9471 8.71663L14.6301 14.9069C14.509 15.2274 14.2936 15.5034 14.0126 15.6986C13.7315 15.8938 13.398 15.9989 13.056 16H4V5.05263L7.94983 0.303158C8.11035 0.111158 8.3465 0 8.5961 0H9.95081C10.4895 0 11.0005 0.261895 11.3156 0.69979C11.6307 1.13768 11.7165 1.70526 11.5467 2.21726L10.6029 5.05263Z" fill="#2EC9EB"/>
<path d="M0 6C0 5.44771 0.447715 5 1 5H3V16H1C0.447715 16 0 15.5523 0 15V6Z" fill="#2EC9EB"/>
</svg>
