<?xml version="1.0" encoding="UTF-8"?>
<svg
    width="20px"
    height="20px"
    viewBox="0 0 20 20"
    version="1.1"
    xmlns="http://www.w3.org/2000/svg">
    <!-- Generator: Sketch 64 (93537) - https://sketch.com -->
    <title>Group 8</title>
    <desc>Created with Sketch.</desc>
    <g id="Page-1" stroke="none" stroke-width="1" fill="none" fill-rule="evenodd">
        <g id="05a.-Quản-lý_Đã-xác-minh-tài-khoản-" transform="translate(-38.000000, -1025.000000)" fill="#474F62" fill-rule="nonzero">
            <g id="Group-9" transform="translate(16.000000, 595.000000)">
                <g id="Group-28" transform="translate(16.000000, 424.000000)">
                    <g id="Group-8" transform="translate(6.000000, 6.000000)">
                        <path d="M9.96679688,18.2724609 L2.49167969,18.2724609 C2.03320313,18.2724609 1.66113281,17.9003516 1.66113281,17.4419141 L1.66113281,2.49171875 C1.66113281,2.03324219 2.03324219,1.66117187 2.49167969,1.66117187 L9.96679688,1.66117187 C10.4260938,1.66117187 10.7973438,1.28992187 10.7973438,0.830625 C10.7973438,0.371328125 10.4260938,-1.77635684e-14 9.96679688,-1.77635684e-14 L2.49167969,-1.77635684e-14 C1.11792969,-1.77635684e-14 2.18343862e-13,1.11796875 2.18343862e-13,2.49171875 L2.18343862e-13,17.441875 C2.18343862e-13,18.815625 1.11792969,19.9335547 2.49167969,19.9335547 L9.96679688,19.9335547 C10.4260938,19.9335547 10.7973438,19.5623047 10.7973438,19.1030078 C10.7973438,18.6437109 10.4260938,18.2724609 9.96679688,18.2724609 Z" id="Path"></path>
                        <path d="M19.7525,9.37542969 L14.7026563,4.39203125 C14.3770703,4.06976563 13.8505078,4.07394531 13.5282422,4.40035156 C13.2059766,4.72675781 13.2092969,5.2525 13.5365625,5.57476563 L17.1453516,9.13621094 L7.47507813,9.13621094 C7.01578125,9.13621094 6.64453125,9.50746094 6.64453125,9.96675781 C6.64453125,10.4260547 7.01578125,10.7973438 7.47507813,10.7973438 L17.1453516,10.7973438 L13.5365625,14.3587891 C13.2093359,14.6810547 13.2068359,15.2067969 13.5282422,15.5332031 C13.6910156,15.6976563 13.9053125,15.7807031 14.1196094,15.7807031 C14.3305859,15.7807031 14.5415234,15.7009766 14.7026563,15.5414844 L19.7525,10.5580859 C19.9103125,10.4019531 20,10.1892969 20,9.96671875 C20,9.74421875 19.9111328,9.53242188 19.7525,9.37542969 Z" id="Path"></path>
                    </g>
                </g>
            </g>
        </g>
    </g>
</svg>