<svg width="16" height="20" viewBox="0 0 16 20" fill="none" xmlns="http://www.w3.org/2000/svg">
<path d="M1 9H15V19H1V9Z" stroke="#B1BBD2" stroke-width="2" stroke-linecap="round" stroke-linejoin="round"/>
<path d="M6.5 14C6.5 14.3978 6.65804 14.7794 6.93934 15.0607C7.22064 15.342 7.60218 15.5 8 15.5C8.39782 15.5 8.77936 15.342 9.06066 15.0607C9.34196 14.7794 9.5 14.3978 9.5 14C9.5 13.6022 9.34196 13.2206 9.06066 12.9393C8.77936 12.658 8.39782 12.5 8 12.5C7.60218 12.5 7.22064 12.658 6.93934 12.9393C6.65804 13.2206 6.5 13.6022 6.5 14V14Z" fill="#B1BBD2"/>
<path d="M3 9V6C3 4.67392 3.52678 3.40215 4.46447 2.46447C5.40215 1.52678 6.67392 1 8 1C9.32608 1 10.5979 1.52678 11.5355 2.46447C12.4732 3.40215 13 4.67392 13 6V9" stroke="#B1BBD2" stroke-width="2" stroke-linecap="round" stroke-linejoin="round"/>
</svg>
