<svg width="17" height="16" viewBox="0 0 17 16" fill="none" xmlns="http://www.w3.org/2000/svg">
<path d="M15 5H10.3233L11.2592 2.19417C11.4275 1.6875 11.3425 1.12583 11.03 0.6925C10.7175 0.259167 10.2108 0 9.67667 0H8.33333C8.08583 0 7.85167 0.11 7.6925 0.3L3.77583 5H1.66667C0.7475 5 0 5.7475 0 6.66667V14.1667C0 15.0858 0.7475 15.8333 1.66667 15.8333H12.7558C13.0949 15.8322 13.4257 15.7282 13.7043 15.5351C13.983 15.3419 14.1966 15.0688 14.3167 14.7517L16.6142 8.62583C16.649 8.53227 16.6668 8.43319 16.6667 8.33333V6.66667C16.6667 5.7475 15.9192 5 15 5ZM1.66667 6.66667H3.33333V14.1667H1.66667V6.66667ZM15 8.1825L12.7558 14.1667H5V6.135L8.72333 1.66667H9.67833L8.37667 5.56917C8.33441 5.69443 8.32262 5.82796 8.34229 5.95869C8.36195 6.08942 8.41249 6.21358 8.48972 6.32087C8.56695 6.42816 8.66864 6.5155 8.78637 6.57563C8.9041 6.63577 9.03447 6.66698 9.16667 6.66667H15V8.1825Z" fill="#6E80C1"/>
</svg>
