<svg width="24" height="24" viewBox="0 0 24 24" fill="none" xmlns="http://www.w3.org/2000/svg">
<path d="M12 20.4V22.8" stroke="#47207A" stroke-width="2" stroke-linecap="round" stroke-linejoin="round"/>
<path d="M20.4 9.60004V12C20.4 14.2279 19.515 16.3644 17.9397 17.9397C16.3644 19.515 14.2278 20.4 12 20.4C9.77216 20.4 7.63558 19.515 6.06028 17.9397C4.48497 16.3644 3.59998 14.2279 3.59998 12V9.60004" stroke="#47207A" stroke-width="2" stroke-linecap="round" stroke-linejoin="round"/>
<path d="M8.39996 10.8C8.39996 11.7548 8.77925 12.6705 9.45438 13.3456C10.1295 14.0207 11.0452 14.4 12 14.4C12.9547 14.4 13.8704 14.0207 14.5455 13.3456C15.2207 12.6705 15.6 11.7548 15.6 10.8V4.80001C15.6 3.84523 15.2207 2.92956 14.5455 2.25443C13.8704 1.5793 12.9547 1.20001 12 1.20001C11.0452 1.20001 10.1295 1.5793 9.45438 2.25443C8.77925 2.92956 8.39996 3.84523 8.39996 4.80001V10.8Z" stroke="#47207A" stroke-width="2" stroke-linecap="round" stroke-linejoin="round"/>
</svg>
