<svg width="25" height="24" viewBox="0 0 25 24" fill="none" xmlns="http://www.w3.org/2000/svg">
<g clip-path="url(#clip0_52_2481)">
<path d="M2.90002 14.3999C4.22551 14.3999 5.30003 13.3254 5.30003 11.9999C5.30003 10.6744 4.22551 9.59985 2.90002 9.59985C1.57452 9.59985 0.5 10.6744 0.5 11.9999C0.5 13.3254 1.57452 14.3999 2.90002 14.3999Z" fill="#4C10F4"/>
<path d="M12.4999 14.3999C13.8254 14.3999 14.8999 13.3254 14.8999 11.9999C14.8999 10.6744 13.8254 9.59985 12.4999 9.59985C11.1744 9.59985 10.0999 10.6744 10.0999 11.9999C10.0999 13.3254 11.1744 14.3999 12.4999 14.3999Z" fill="#4C10F4"/>
<path d="M22.1 14.3999C23.4255 14.3999 24.5 13.3254 24.5 11.9999C24.5 10.6744 23.4255 9.59985 22.1 9.59985C20.7745 9.59985 19.7 10.6744 19.7 11.9999C19.7 13.3254 20.7745 14.3999 22.1 14.3999Z" fill="#4C10F4"/>
</g>
<defs>
<clipPath id="clip0_52_2481">
<rect width="24" height="24" fill="white" transform="translate(0.5)"/>
</clipPath>
</defs>
</svg>
