<svg width="12" height="10" viewBox="0 0 12 10" fill="none" xmlns="http://www.w3.org/2000/svg">
    <path
        d="M7.79961 2.6C7.79961 3.07739 7.60997 3.53523 7.2724 3.8728C6.93484 4.21036 6.477 4.4 5.99961 4.4C5.52222 4.4 5.06438 4.21036 4.72682 3.8728C4.38925 3.53523 4.19961 3.07739 4.19961 2.6C4.19961 2.12261 4.38925 1.66478 4.72682 1.32721C5.06438 0.989645 5.52222 0.800003 5.99961 0.800003C6.477 0.800003 6.93484 0.989645 7.2724 1.32721C7.60997 1.66478 7.79961 2.12261 7.79961 2.6ZM10.7996 3.8C10.7996 4.11826 10.6732 4.42349 10.4481 4.64853C10.2231 4.87357 9.91787 5 9.59961 5C9.28135 5 8.97612 4.87357 8.75108 4.64853C8.52604 4.42349 8.39961 4.11826 8.39961 3.8C8.39961 3.48174 8.52604 3.17652 8.75108 2.95147C8.97612 2.72643 9.28135 2.6 9.59961 2.6C9.91787 2.6 10.2231 2.72643 10.4481 2.95147C10.6732 3.17652 10.7996 3.48174 10.7996 3.8ZM8.39961 8C8.39961 7.36348 8.14675 6.75303 7.69667 6.30295C7.24658 5.85286 6.63613 5.6 5.99961 5.6C5.36309 5.6 4.75264 5.85286 4.30255 6.30295C3.85247 6.75303 3.59961 7.36348 3.59961 8V9.8H8.39961V8ZM3.59961 3.8C3.59961 4.11826 3.47318 4.42349 3.24814 4.64853C3.02309 4.87357 2.71787 5 2.39961 5C2.08135 5 1.77612 4.87357 1.55108 4.64853C1.32604 4.42349 1.19961 4.11826 1.19961 3.8C1.19961 3.48174 1.32604 3.17652 1.55108 2.95147C1.77612 2.72643 2.08135 2.6 2.39961 2.6C2.71787 2.6 3.02309 2.72643 3.24814 2.95147C3.47318 3.17652 3.59961 3.48174 3.59961 3.8ZM9.59961 9.8V8C9.60048 7.38997 9.44559 6.78982 9.14961 6.2564C9.41562 6.18833 9.69366 6.18191 9.96253 6.23763C10.2314 6.29336 10.484 6.40976 10.701 6.57795C10.9181 6.74614 11.0938 6.96168 11.2149 7.20813C11.336 7.45458 11.3991 7.72542 11.3996 8V9.8H9.59961ZM2.84961 6.2564C2.55366 6.78983 2.39877 7.38998 2.39961 8V9.8H0.59961V8C0.599494 7.72523 0.662287 7.45407 0.783178 7.20732C0.904068 6.96057 1.07985 6.74476 1.29704 6.57645C1.51423 6.40814 1.76708 6.29179 2.0362 6.23631C2.30531 6.18084 2.58356 6.18771 2.84961 6.2564Z"
        fill="#6E80C1" />
</svg>
