<svg width="24" height="24" viewBox="0 0 24 24" fill="none" xmlns="http://www.w3.org/2000/svg">
<g clip-path="url(#clip0_267:1795)">
<path d="M21.38 16.913C19.868 15.635 19.001 13.767 19.001 11.788V9C19.001 5.481 16.387 2.568 13.001 2.08V1C13.001 0.447 12.553 0 12.001 0C11.449 0 11.001 0.447 11.001 1V2.08C7.61399 2.568 5.00099 5.481 5.00099 9V11.788C5.00099 13.767 4.13399 15.635 2.61299 16.921C2.22399 17.254 2.00099 17.738 2.00099 18.25C2.00099 19.215 2.78599 20 3.75099 20H20.251C21.216 20 22.001 19.215 22.001 18.25C22.001 17.738 21.778 17.254 21.38 16.913Z" fill="white"/>
<path d="M12.0006 24C13.8116 24 15.3266 22.709 15.6746 21H8.32661C8.67461 22.709 10.1896 24 12.0006 24Z" fill="white"/>
</g>
<defs>
<clipPath id="clip0_267:1795">
<rect width="24" height="24" fill="white"/>
</clipPath>
</defs>
</svg>
