<svg width="64" height="64" viewBox="0 0 64 64" fill="none" xmlns="http://www.w3.org/2000/svg">
<path d="M14.8928 32.5696L6.62401 40.8384C4.43229 43.0321 3.20117 46.0062 3.20117 49.1072C3.20117 52.2082 4.43229 55.1823 6.62401 57.376V57.376C8.81772 59.5677 11.7918 60.7988 14.8928 60.7988C17.9938 60.7988 20.9679 59.5677 23.1616 57.376L28.0832 52.48" stroke="#C7C7CC" stroke-width="5" stroke-linecap="round" stroke-linejoin="round"/>
<path d="M40.8642 45.7856H49.1073C52.2085 45.7856 55.1826 44.5537 57.3754 42.3609C59.5682 40.1681 60.8001 37.1939 60.8001 34.0928V34.0928C60.8001 30.9917 59.5682 28.0176 57.3754 25.8248C55.1826 23.6319 52.2085 22.4 49.1073 22.4H37.4146" stroke="#C7C7CC" stroke-width="5" stroke-linecap="round" stroke-linejoin="round"/>
<path d="M14.7266 5.20963L20.9282 16.0448" stroke="#C7C7CC" stroke-width="5" stroke-linecap="round" stroke-linejoin="round"/>
<path d="M33.3764 3.20001L31.5396 9.97121" stroke="#C7C7CC" stroke-width="5" stroke-linecap="round" stroke-linejoin="round"/>
<path d="M3.2002 20.1856L10.317 22.1184" stroke="#C7C7CC" stroke-width="5" stroke-linecap="round" stroke-linejoin="round"/>
</svg>
