<svg width="64" height="64" viewBox="0 0 64 64" fill="none" xmlns="http://www.w3.org/2000/svg">
<path d="M5.03659 56.472L3.19979 24.5232C3.18404 24.2221 3.23014 23.9209 3.33524 23.6383C3.44035 23.3557 3.60223 23.0975 3.8109 22.8799C4.01958 22.6622 4.27063 22.4896 4.54857 22.3727C4.82652 22.2557 5.12547 22.197 5.42699 22.2H25.8302C26.3234 22.1985 26.8032 22.3612 27.1937 22.6625C27.5842 22.9638 27.8633 23.3865 27.987 23.864L29.7918 31.8H58.5918C58.8962 31.7975 59.1979 31.858 59.4778 31.9776C59.7577 32.0973 60.0099 32.2735 60.2185 32.4953C60.427 32.7171 60.5874 32.9796 60.6897 33.2664C60.7919 33.5531 60.8338 33.8579 60.8126 34.1616L59.0782 56.5616C58.9832 57.6718 58.4733 58.7054 57.65 59.4562C56.8268 60.2071 55.7508 60.6201 54.6366 60.6128H9.48459C8.35493 60.6201 7.26518 60.1954 6.43833 59.4257C5.61148 58.6559 5.11003 57.5993 5.03659 56.472V56.472Z" stroke="#C7C7CC" stroke-width="5" stroke-linecap="round" stroke-linejoin="round"/>
<path d="M16 9.4V6.2C16 5.35131 16.3371 4.53737 16.9373 3.93726C17.5374 3.33714 18.3513 3 19.2 3H51.2C52.0487 3 52.8626 3.33714 53.4627 3.93726C54.0629 4.53737 54.4 5.35131 54.4 6.2V19" stroke="#C7C7CC" stroke-width="5" stroke-linecap="round" stroke-linejoin="round"/>
</svg>
