<svg width="17" height="17" viewBox="0 0 17 17" fill="none" xmlns="http://www.w3.org/2000/svg">
<g clip-path="url(#clip0_1557_12851)">
<path d="M3.39961 6.80015C3.39915 5.7405 3.72876 4.70702 4.34264 3.84332C4.95653 2.97961 5.82421 2.32856 6.82511 1.98065C6.78635 1.73781 6.80073 1.48946 6.86727 1.25272C6.93381 1.01598 7.05091 0.796497 7.21051 0.609409C7.3701 0.422322 7.56838 0.272085 7.79167 0.169065C8.01497 0.0660457 8.25795 0.0126953 8.50386 0.0126953C8.74977 0.0126953 8.99275 0.0660457 9.21604 0.169065C9.43933 0.272085 9.63762 0.422322 9.79721 0.609409C9.9568 0.796497 10.0739 1.01598 10.1404 1.25272C10.207 1.48946 10.2214 1.73781 10.1826 1.98065C11.1819 2.32999 12.0478 2.98164 12.66 3.84523C13.2723 4.70882 13.6007 5.74153 13.5996 6.80015V11.9001L16.1496 13.6001V14.4501H0.849609V13.6001L3.39961 11.9001V6.80015ZM10.1996 15.3001C10.1996 15.751 10.0205 16.1834 9.70169 16.5022C9.38288 16.821 8.95048 17.0001 8.49961 17.0001C8.04874 17.0001 7.61634 16.821 7.29753 16.5022C6.97872 16.1834 6.79961 15.751 6.79961 15.3001H10.1996Z" fill="white"/>
</g>
<defs>
<clipPath id="clip0_1557_12851">
<rect width="17" height="17" fill="white"/>
</clipPath>
</defs>
</svg>
