<svg width="25" height="25" viewBox="0 0 25 25" fill="none" xmlns="http://www.w3.org/2000/svg">
<g clip-path="url(#clip0_525_753)">
<path d="M12.5 0.299683C5.88322 0.299683 0.5 5.6829 0.5 12.2997C0.5 18.9165 5.88322 24.2997 12.5 24.2997C19.1168 24.2997 24.5 18.9165 24.5 12.2997C24.5 5.6829 19.1168 0.299683 12.5 0.299683ZM12.5 22.3999C6.93059 22.3999 2.39975 17.8688 2.39975 12.2997C2.39975 6.7306 6.93059 2.19943 12.5 2.19943C18.0691 2.19943 22.6003 6.73093 22.6003 12.3C22.6003 17.8691 18.0691 22.3999 12.5 22.3999Z" fill="#7F8390"/>
<path d="M12.5 14.429C9.12513 14.429 5.96744 16.1213 3.60921 19.1938L5.11633 20.3501C7.10693 17.757 9.72921 16.3287 12.5 16.3287C15.2708 16.3287 17.893 17.757 19.8833 20.3501L21.3904 19.1938C19.0322 16.1213 15.8748 14.429 12.5 14.429Z" fill="#7F8390"/>
<path d="M12.5 4.60577C9.77642 4.60577 7.56068 6.83576 7.56068 9.57673C7.56068 12.3177 9.77642 14.5477 12.5 14.5477C15.2236 14.5477 17.4393 12.3177 17.4393 9.57677C17.4393 6.83581 15.2236 4.60577 12.5 4.60577ZM12.5 12.648C10.8241 12.648 9.46043 11.2704 9.46043 9.57673C9.46043 7.88309 10.8241 6.50548 12.5 6.50548C14.1759 6.50548 15.5396 7.88341 15.5396 9.57673C15.5396 11.27 14.1759 12.648 12.5 12.648Z" fill="#7F8390"/>
</g>
<defs>
<clipPath id="clip0_525_753">
<rect width="24" height="24" fill="white" transform="translate(0.5 0.299683)"/>
</clipPath>
</defs>
</svg>
