<svg width="288" height="277" viewBox="0 0 288 277" fill="none" xmlns="http://www.w3.org/2000/svg">
<path d="M79.9997 0.833328L77.4997 7.5L70.833 10L77.4997 12.5L79.9997 19.1667L82.4997 12.5L89.1663 10L82.4997 7.5L79.9997 0.833328Z" fill="white"/>
<path d="M211 59.5833L209.25 64.25L204.583 66L209.25 67.75L211 72.4167L212.75 67.75L217.416 66L212.75 64.25L211 59.5833Z" fill="white"/>
<path d="M104.233 129H184.912L204.353 145H85.7646L104.233 129Z" fill="#FCEB78"/>
<path d="M18.4687 174H99.1475L118.588 190H0L18.4687 174Z" fill="#DFE2E6"/>
<path d="M187.881 174H268.56L288 190H169.412L187.881 174Z" fill="#FFC886"/>
<rect y="190" width="118.588" height="87" fill="#A8B1C9"/>
<rect x="169.412" y="190" width="118.588" height="87" fill="#D39142"/>
<path d="M86 145H204.588V277H86V145Z" fill="#FADB25"/>
</svg>
