<svg width="14" height="16" viewBox="0 0 14 16" fill="none" xmlns="http://www.w3.org/2000/svg">
<path d="M4.4608 1.15691C4.17037 0.949141 3.82749 0.827001 3.47112 0.804374C3.11474 0.781747 2.75917 0.85954 2.4448 1.02891C2.1269 1.20348 1.86202 1.46062 1.67813 1.77322C1.49424 2.08581 1.39814 2.44225 1.4 2.80491V13.1953C1.39814 13.558 1.49424 13.9144 1.67813 14.227C1.86202 14.5396 2.1269 14.7968 2.4448 14.9713C2.75917 15.1407 3.11474 15.2185 3.47112 15.1959C3.82749 15.1732 4.17037 15.0511 4.4608 14.8433L11.76 9.64811C12.0201 9.45919 12.2318 9.21138 12.3778 8.92495C12.5238 8.63852 12.5999 8.3216 12.5999 8.00011C12.5999 7.67863 12.5238 7.36171 12.3778 7.07528C12.2318 6.78885 12.0201 6.54104 11.76 6.35211L4.4608 1.15691Z" stroke="#FAFAFA" stroke-width="1.6" stroke-linecap="round" stroke-linejoin="round"/>
</svg>
