<svg width="20" height="20" viewBox="0 0 20 20" fill="none" xmlns="http://www.w3.org/2000/svg">
<path fill-rule="evenodd" clip-rule="evenodd" d="M18.2969 1H1.70312C1.31479 1 1 1.31479 1 1.70312V18.2969C1 18.6852 1.31479 19 1.70312 19H18.2969C18.6852 19 19 18.6852 19 18.2969V1.70312C19 1.31479 18.6852 1 18.2969 1ZM2.40625 17.5938V15.2806C4.56066 13.7698 7.34444 13.0828 10 13.0828C12.6545 13.0828 15.4387 13.7694 17.5938 15.2806V17.5938H2.40625ZM10 11.6766C12.6615 11.6766 15.3682 12.3068 17.5938 13.6108V2.40625H2.40625V13.6108C4.63013 12.3078 7.33632 11.6766 10 11.6766Z" fill="#B1BBD2"/>
<path d="M2.40625 15.2806L2.34883 15.1988L2.30625 15.2286V15.2806H2.40625ZM2.40625 17.5938H2.30625V17.6938H2.40625V17.5938ZM17.5938 15.2806H17.6938V15.2286L17.6512 15.1988L17.5938 15.2806ZM17.5938 17.5938V17.6938H17.6938V17.5938H17.5938ZM17.5938 13.6108L17.5432 13.6971L17.6938 13.7853V13.6108H17.5938ZM17.5938 2.40625H17.6938V2.30625H17.5938V2.40625ZM2.40625 2.40625V2.30625H2.30625V2.40625H2.40625ZM2.40625 13.6108H2.30625V13.7853L2.4568 13.6971L2.40625 13.6108ZM1.70312 1.1H18.2969V0.9H1.70312V1.1ZM1.1 1.70312C1.1 1.37002 1.37002 1.1 1.70312 1.1V0.9C1.25956 0.9 0.9 1.25956 0.9 1.70312H1.1ZM1.1 18.2969V1.70312H0.9V18.2969H1.1ZM1.70312 18.9C1.37002 18.9 1.1 18.63 1.1 18.2969H0.9C0.9 18.7404 1.25956 19.1 1.70312 19.1V18.9ZM18.2969 18.9H1.70312V19.1H18.2969V18.9ZM18.9 18.2969C18.9 18.63 18.63 18.9 18.2969 18.9V19.1C18.7404 19.1 19.1 18.7404 19.1 18.2969H18.9ZM18.9 1.70312V18.2969H19.1V1.70312H18.9ZM18.2969 1.1C18.63 1.1 18.9 1.37002 18.9 1.70312H19.1C19.1 1.25956 18.7404 0.9 18.2969 0.9V1.1ZM2.30625 15.2806V17.5938H2.50625V15.2806H2.30625ZM10 12.9828C7.329 12.9828 4.52381 13.6735 2.34883 15.1988L2.46367 15.3625C4.59751 13.8661 7.35988 13.1828 10 13.1828V12.9828ZM17.6512 15.1988C15.4755 13.6731 12.6699 12.9828 10 12.9828V13.1828C12.6391 13.1828 15.4019 13.8657 17.5363 15.3625L17.6512 15.1988ZM17.6938 17.5938V15.2806H17.4937V17.5938H17.6938ZM2.40625 17.6938H17.5938V17.4937H2.40625V17.6938ZM17.6443 13.5245C15.401 12.2101 12.6763 11.5766 10 11.5766V11.7766C12.6467 11.7766 15.3354 12.4035 17.5432 13.6971L17.6443 13.5245ZM17.4937 2.40625V13.6108H17.6938V2.40625H17.4937ZM2.40625 2.50625H17.5938V2.30625H2.40625V2.50625ZM2.50625 13.6108V2.40625H2.30625V13.6108H2.50625ZM10 11.5766C7.32154 11.5766 4.5973 12.2111 2.3557 13.5245L2.4568 13.6971C4.66296 12.4045 7.35109 11.7766 10 11.7766V11.5766Z" fill="#B1BBD2"/>
<path fill-rule="evenodd" clip-rule="evenodd" d="M13.3398 7.1875C13.3398 9.02909 11.8416 10.5273 10 10.5273C8.15841 10.5273 6.66016 9.02909 6.66016 7.1875C6.66016 5.34591 8.15841 3.84766 10 3.84766C11.8416 3.84766 13.3398 5.34591 13.3398 7.1875ZM11.9336 7.1875C11.9336 6.12132 11.0662 5.25391 10 5.25391C8.93382 5.25391 8.06641 6.12132 8.06641 7.1875C8.06641 8.25368 8.93382 9.12109 10 9.12109C11.0662 9.12109 11.9336 8.25368 11.9336 7.1875Z" fill="#B1BBD2"/>
<path d="M10 10.6273C11.8968 10.6273 13.4398 9.08432 13.4398 7.1875H13.2398C13.2398 8.97386 11.7864 10.4273 10 10.4273V10.6273ZM6.56016 7.1875C6.56016 9.08432 8.10318 10.6273 10 10.6273V10.4273C8.21364 10.4273 6.76016 8.97386 6.76016 7.1875H6.56016ZM10 3.74766C8.10318 3.74766 6.56016 5.29068 6.56016 7.1875H6.76016C6.76016 5.40114 8.21364 3.94766 10 3.94766V3.74766ZM13.4398 7.1875C13.4398 5.29068 11.8968 3.74766 10 3.74766V3.94766C11.7864 3.94766 13.2398 5.40114 13.2398 7.1875H13.4398ZM10 5.35391C11.011 5.35391 11.8336 6.17654 11.8336 7.1875H12.0336C12.0336 6.06609 11.1214 5.15391 10 5.15391V5.35391ZM8.16641 7.1875C8.16641 6.17654 8.98904 5.35391 10 5.35391V5.15391C8.87859 5.15391 7.96641 6.06609 7.96641 7.1875H8.16641ZM10 9.02109C8.98904 9.02109 8.16641 8.19845 8.16641 7.1875H7.96641C7.96641 8.30891 8.87859 9.22109 10 9.22109V9.02109ZM11.8336 7.1875C11.8336 8.19845 11.011 9.02109 10 9.02109V9.22109C11.1214 9.22109 12.0336 8.30891 12.0336 7.1875H11.8336Z" fill="#B1BBD2"/>
</svg>
