<svg width="21" height="20" viewBox="0 0 21 20" fill="none" xmlns="http://www.w3.org/2000/svg">
<g clip-path="url(#clip0_52_2474)">
<path d="M18.2 5H15.5V7H16.8L18 10H3L4.2 7H5.5V5H2.8L0.5 10.8V18C0.5 19.1 1.4 20 2.5 20H18.5C19.6 20 20.5 19.1 20.5 18V10.8L18.2 5ZM2.5 18V12H18.5V18H2.5Z" fill="#4C10F4"/>
<path d="M7.5 14H13.5V16H7.5V14Z" fill="#4C10F4"/>
<path d="M9.50007 4.2V0H11.5001V4.2L13.1001 2.6L14.5001 4L10.5001 8L6.50006 4L7.90006 2.6L9.50007 4.2Z" fill="#4C10F4"/>
</g>
<defs>
<clipPath id="clip0_52_2474">
<rect width="20" height="20" fill="white" transform="translate(0.5)"/>
</clipPath>
</defs>
</svg>
