<svg width="20" height="24" viewBox="0 0 20 24" fill="none" xmlns="http://www.w3.org/2000/svg">
<path d="M1.3096 18.6C1.3096 19.1503 1.41799 19.6952 1.62858 20.2036C1.83916 20.712 2.14783 21.174 2.53694 21.5631C2.92606 21.9522 3.388 22.2608 3.8964 22.4714C4.40481 22.682 4.94971 22.7904 5.5 22.7904C6.05029 22.7904 6.59519 22.682 7.1036 22.4714C7.612 22.2608 8.07395 21.9522 8.46306 21.5631C8.85218 21.174 9.16084 20.712 9.37143 20.2036C9.58201 19.6952 9.6904 19.1503 9.6904 18.6C9.6904 18.0497 9.58201 17.5048 9.37143 16.9964C9.16084 16.488 8.85218 16.0261 8.46306 15.6369C8.07395 15.2478 7.612 14.9392 7.1036 14.7286C6.59519 14.518 6.05029 14.4096 5.5 14.4096C4.94971 14.4096 4.40481 14.518 3.8964 14.7286C3.388 14.9392 2.92606 15.2478 2.53694 15.6369C2.14783 16.0261 1.83916 16.488 1.62858 16.9964C1.41799 17.5048 1.3096 18.0497 1.3096 18.6V18.6Z" stroke="#47207A" stroke-width="2" stroke-linecap="round" stroke-linejoin="round"/>
<path d="M9.69043 18.6096V1.20959" stroke="#47207A" stroke-width="2" stroke-linecap="round" stroke-linejoin="round"/>
<path d="M9.69043 1.20001C12.0764 1.20319 14.3637 2.15242 16.0509 3.83956C17.738 5.5267 18.6873 7.81404 18.6904 10.2V10.2" stroke="#47207A" stroke-width="2" stroke-linecap="round" stroke-linejoin="round"/>
</svg>
