<svg width="28" height="27" viewBox="0 0 28 27" fill="none" xmlns="http://www.w3.org/2000/svg">
<path d="M4.95043 13.5015L0.0763318 1.41705C-0.262487 0.576812 0.587431 -0.227433 1.42873 0.059105L1.56225 0.113091L27.4043 12.5713C27.571 12.6515 27.7132 12.7721 27.8171 12.9212C27.9209 13.0703 27.9829 13.2428 27.9969 13.4219C28.011 13.601 27.9766 13.7805 27.8971 13.9429C27.8177 14.1054 27.6958 14.2452 27.5436 14.3487L27.4043 14.4289L1.56225 26.8871C0.725255 27.2899 -0.18496 26.548 0.0332618 25.7133L0.0763318 25.5818L4.95043 13.5015L0.0763318 1.41705L4.95043 13.5015ZM3.09555 3.17504L6.84265 12.4633H16.3568C16.617 12.4633 16.8684 12.5542 17.0645 12.7191C17.2606 12.884 17.3882 13.1118 17.4235 13.3603L17.4336 13.5015C17.4335 13.7526 17.3391 13.9951 17.1678 14.1842C16.9965 14.3733 16.7599 14.4962 16.5018 14.53L16.3568 14.5397H6.83978L3.09411 23.828L24.5158 13.5015L3.09411 3.17504H3.09555Z" fill="#6E80C1"/>
</svg>
