<svg width="24" height="24" viewBox="0 0 24 24" fill="none" xmlns="http://www.w3.org/2000/svg">
<path d="M15 9H22.8V16.2H15V9Z" stroke="#47207A" stroke-width="2" stroke-linecap="round" stroke-linejoin="round"/>
<path d="M20.4 16.2V19.2C20.4 19.8365 20.1472 20.447 19.6971 20.8971C19.247 21.3472 18.6365 21.6 18 21.6H3.60001C2.96349 21.6 2.35304 21.3472 1.90296 20.8971C1.45287 20.447 1.20001 19.8365 1.20001 19.2V4.80002C1.20001 4.1635 1.45287 3.55306 1.90296 3.10297C2.35304 2.65288 2.96349 2.40002 3.60001 2.40002H18C18.6365 2.40002 19.247 2.65288 19.6971 3.10297C20.1472 3.55306 20.4 4.1635 20.4 4.80002V9.00002" stroke="#47207A" stroke-width="2" stroke-linecap="round" stroke-linejoin="round"/>
</svg>
