<svg width="16" height="16" viewBox="0 0 16 16" fill="none" xmlns="http://www.w3.org/2000/svg">
 <path d="M8.74107 1.33847L10.5011 4.89687C10.5445 4.98537 10.6089 5.06193 10.6887 5.11992C10.7684 5.17791 10.8611 5.21558 10.9587 5.22967L14.8771 5.80407C14.9892 5.82023 15.0946 5.86749 15.1812 5.94049C15.2679 6.01348 15.3324 6.1093 15.3674 6.21707C15.4023 6.32484 15.4064 6.44025 15.3792 6.55022C15.3519 6.6602 15.2943 6.76033 15.2131 6.83927L12.3731 9.60727C12.3028 9.67615 12.2502 9.76102 12.2198 9.85464C12.1894 9.94826 12.1822 10.0478 12.1987 10.1449L12.8691 14.0569C12.8886 14.1687 12.8764 14.2837 12.8337 14.3889C12.7911 14.4941 12.7198 14.5853 12.628 14.6519C12.5361 14.7186 12.4274 14.7582 12.3141 14.7661C12.2009 14.7741 12.0877 14.7501 11.9875 14.6969L8.48027 12.8441C8.39286 12.7984 8.2957 12.7745 8.19707 12.7745C8.09844 12.7745 8.00127 12.7984 7.91387 12.8441L4.40667 14.6969C4.3064 14.7501 4.19322 14.7741 4.07999 14.7661C3.96676 14.7582 3.85803 14.7186 3.76618 14.6519C3.67432 14.5853 3.60303 14.4941 3.5604 14.3889C3.51778 14.2837 3.50553 14.1687 3.52507 14.0569L4.19707 10.1449C4.21355 10.0478 4.2063 9.94826 4.17593 9.85464C4.14556 9.76102 4.09297 9.67615 4.02267 9.60727L1.18107 6.83607C1.10072 6.75701 1.04401 6.65712 1.01728 6.54761C0.990563 6.4381 0.994894 6.32331 1.02979 6.21612C1.06469 6.10894 1.12877 6.0136 1.21484 5.94082C1.30092 5.86803 1.40557 5.82068 1.51707 5.80407L5.44027 5.23287C5.53785 5.21878 5.63052 5.18111 5.71026 5.12312C5.79 5.06513 5.85439 4.98857 5.89787 4.90007L7.65307 1.33847C7.7031 1.23689 7.78057 1.15135 7.87671 1.09153C7.97286 1.03171 8.08383 1 8.19707 1C8.3103 1 8.42127 1.03171 8.51742 1.09153C8.61356 1.15135 8.69104 1.23689 8.74107 1.33847V1.33847Z" stroke="#68F9FC" stroke-width="1.6" stroke-linecap="round" stroke-linejoin="round"/>
</svg>