<svg width="11" height="14" viewBox="0 0 11 14" fill="none" xmlns="http://www.w3.org/2000/svg">
<path d="M3.0565 6.36364H7.94349V4.45455C7.94349 3.75189 7.70487 3.15199 7.22762 2.65483C6.75038 2.15767 6.1745 1.90909 5.5 1.90909C4.82549 1.90909 4.24962 2.15767 3.77237 2.65483C3.29513 3.15199 3.0565 3.75189 3.0565 4.45455V6.36364ZM10.9979 7.31818V13.0455C10.9979 13.3106 10.9088 13.536 10.7306 13.7216C10.5524 13.9072 10.3361 14 10.0815 14H0.918446C0.663916 14 0.447565 13.9072 0.269393 13.7216C0.091222 13.536 0.00213623 13.3106 0.00213623 13.0455V7.31818C0.00213623 7.05303 0.091222 6.82765 0.269393 6.64205C0.447565 6.45644 0.663916 6.36364 0.918446 6.36364H1.22388V4.45455C1.22388 3.23485 1.64386 2.1875 2.48381 1.3125C3.32376 0.4375 4.32916 0 5.5 0C6.67084 0 7.67623 0.4375 8.51618 1.3125C9.35614 2.1875 9.77611 3.23485 9.77611 4.45455V6.36364H10.0815C10.3361 6.36364 10.5524 6.45644 10.7306 6.64205C10.9088 6.82765 10.9979 7.05303 10.9979 7.31818Z" fill="white"/>
</svg>
