<svg width="25" height="24" viewBox="0 0 25 24" fill="none" xmlns="http://www.w3.org/2000/svg">
<path d="M19.2617 16.5H18.076L17.6557 16.095C19.1266 14.385 20.0122 12.165 20.0122 9.75C20.0122 4.365 15.6445 0 10.2561 0C4.86773 0 0.5 4.365 0.5 9.75C0.5 15.135 4.86773 19.5 10.2561 19.5C12.6726 19.5 14.894 18.615 16.6051 17.145L17.0103 17.565V18.75L22.2636 24L24.5 21.765L19.2617 16.5ZM10.2561 16.5C6.51876 16.5 3.50188 13.485 3.50188 9.75C3.50188 6.015 6.51876 3 10.2561 3C13.9934 3 17.0103 6.015 17.0103 9.75C17.0103 13.485 13.9934 16.5 10.2561 16.5Z" fill="white"/>
</svg>
