<svg width="28" height="28" viewBox="0 0 28 28" fill="none" xmlns="http://www.w3.org/2000/svg">
<path d="M2.12663 0.364609L27.155 12.374C27.408 12.4952 27.6216 12.6858 27.7711 12.9237C27.9206 13.1616 28 13.4371 28 13.7184C28 13.9996 27.9206 14.2751 27.7711 14.513C27.6216 14.7509 27.408 14.9415 27.155 15.0627L2.12663 27.0721C1.87005 27.1954 1.58357 27.2421 1.30127 27.2068C1.01898 27.1714 0.752743 27.0555 0.534254 26.8727C0.315765 26.6899 0.154217 26.4479 0.0688304 26.1757C-0.0165558 25.9034 -0.0221852 25.6123 0.0526121 25.3369L2.55664 16.1269C2.58729 16.014 2.65038 15.9127 2.73804 15.8356C2.8257 15.7584 2.93406 15.7089 3.0496 15.6931L15.1777 14.0401C15.2284 14.0329 15.2764 14.0126 15.317 13.9813C15.3576 13.95 15.3894 13.9087 15.4094 13.8614L15.4307 13.7875C15.4401 13.7209 15.4268 13.6532 15.3929 13.5952C15.3591 13.5372 15.3067 13.4924 15.2442 13.4681L15.1789 13.4502L3.06267 11.7972C2.94734 11.7812 2.83924 11.7316 2.75181 11.6545C2.66437 11.5773 2.60146 11.4761 2.57089 11.3634L0.0526121 2.10101C-0.0224881 1.82555 -0.0170878 1.53424 0.0681697 1.26177C0.153427 0.989302 0.314949 0.747162 0.533496 0.56419C0.752043 0.381218 1.01841 0.265126 1.30086 0.229742C1.58331 0.194358 1.86995 0.241172 2.12663 0.364609Z" fill="#68F9FC"/>
</svg>
