<svg width="16" height="16" viewBox="0 0 16 16" fill="none" xmlns="http://www.w3.org/2000/svg">
<path d="M9.04635 14.88L8.37595 15.1328C8.13359 15.224 7.86631 15.224 7.62395 15.1328L6.95355 14.88C5.27113 14.2548 3.8192 13.1318 2.79127 11.6605C1.76334 10.1892 1.20824 8.43958 1.19995 6.64479V3.56959C2.47714 3.75172 3.77979 3.59125 4.97459 3.10462C6.1694 2.61798 7.21346 1.82264 7.99995 0.799988C8.78069 1.82922 9.82396 2.62943 11.0204 3.11672C12.2168 3.60401 13.5223 3.76044 14.8 3.56959V6.64479C14.7917 8.43958 14.2366 10.1892 13.2086 11.6605C12.1807 13.1318 10.7288 14.2548 9.04635 14.88V14.88Z" stroke="#68F9FC" stroke-width="1.6" stroke-linecap="round" stroke-linejoin="round"/>
</svg>
