<svg width="20" height="6" viewBox="0 0 20 6" fill="none" xmlns="http://www.w3.org/2000/svg">
    <path
        d="M5.50042 3C5.50042 3.62515 5.25208 4.2247 4.81003 4.66675C4.36798 5.1088 3.76843 5.35714 3.14328 5.35714C2.51812 5.35714 1.91857 5.1088 1.47652 4.66675C1.03447 4.2247 0.786133 3.62515 0.786133 3C0.786133 2.37484 1.03447 1.77529 1.47652 1.33324C1.91857 0.891194 2.51812 0.642853 3.14328 0.642853C3.76843 0.642853 4.36798 0.891194 4.81003 1.33324C5.25208 1.77529 5.50042 2.37484 5.50042 3ZM12.3576 3C12.3576 3.62515 12.1092 4.2247 11.6672 4.66675C11.2251 5.1088 10.6256 5.35714 10.0004 5.35714C9.37526 5.35714 8.77571 5.1088 8.33367 4.66675C7.89162 4.2247 7.64327 3.62515 7.64327 3C7.64327 2.37484 7.89162 1.77529 8.33367 1.33324C8.77571 0.891194 9.37526 0.642853 10.0004 0.642853C10.6256 0.642853 11.2251 0.891194 11.6672 1.33324C12.1092 1.77529 12.3576 2.37484 12.3576 3ZM16.8576 5.35714C17.4827 5.35714 18.0823 5.1088 18.5243 4.66675C18.9664 4.2247 19.2147 3.62515 19.2147 3C19.2147 2.37484 18.9664 1.77529 18.5243 1.33324C18.0823 0.891194 17.4827 0.642853 16.8576 0.642853C16.2324 0.642853 15.6329 0.891194 15.1908 1.33324C14.7488 1.77529 14.5004 2.37484 14.5004 3C14.5004 3.62515 14.7488 4.2247 15.1908 4.66675C15.6329 5.1088 16.2324 5.35714 16.8576 5.35714Z"
        fill="white" />
</svg>
