<svg width="21" height="21" viewBox="0 0 21 21" fill="none" xmlns="http://www.w3.org/2000/svg">
<path d="M10.5014 0C7.50135 0 5.04898 2.45237 5.04898 5.45239C5.04898 8.45241 7.50135 10.9048 10.5014 10.9048C13.5014 10.9048 15.9538 8.45241 15.9538 5.45239C15.9538 2.45237 13.5014 0 10.5014 0Z" fill="white"/>
<path d="M19.8586 15.2617C19.7157 14.9046 19.5252 14.5713 19.311 14.2617C18.2157 12.6427 16.5253 11.5713 14.6205 11.3093C14.3824 11.2856 14.1205 11.3331 13.93 11.476C12.93 12.2141 11.7396 12.595 10.5014 12.595C9.26332 12.595 8.07286 12.2141 7.07286 11.476C6.88236 11.3331 6.62045 11.2617 6.38238 11.3093C4.47761 11.5713 2.76334 12.6427 1.69192 14.2617C1.47764 14.5713 1.28715 14.9284 1.14432 15.2617C1.07291 15.4046 1.0967 15.5713 1.16811 15.7141C1.3586 16.0475 1.59668 16.3808 1.81096 16.6665C2.14428 17.1189 2.50144 17.5237 2.90622 17.9046C3.23954 18.2379 3.62048 18.5475 4.00147 18.857C5.8824 20.2618 8.14432 20.9998 10.4777 20.9998C12.811 20.9998 15.0729 20.2617 16.9538 18.857C17.3348 18.5713 17.7157 18.2379 18.0491 17.9046C18.43 17.5237 18.811 17.1189 19.1443 16.6665C19.3824 16.357 19.5967 16.0475 19.7872 15.7141C19.9062 15.5713 19.93 15.4046 19.8586 15.2617Z" fill="white"/>
</svg>
