<?xml version="1.0" encoding="UTF-8"?>
<svg
    width="54px"
    height="54px"
    viewBox="0 0 54 54"
    version="1.1"
    xmlns="http://www.w3.org/2000/svg">
    <!-- Generator: Sketch 64 (93537) - https://sketch.com -->
    <title>Group 25</title>
    <desc>Created with Sketch.</desc>
    <g id="File-TK" stroke="none" stroke-width="1" fill="none" fill-rule="evenodd">
        <g id="Group-25">
            <circle id="Oval" fill="#F1F1F3" cx="27" cy="27" r="27"></circle>
            <g id="ic-Quản-Lý" transform="translate(9.000000, 9.000000)">
                <rect id="Rectangle" fill="#FFFFFF" opacity="0" x="0" y="0" width="36" height="36"></rect>
                <path d="M23.6726595,18.2753296 C23.477248,18.2753296 23.3009461,18.4000224 22.948016,18.6236788 C22.6092633,18.8387091 22.2124678,19.0877514 21.7695719,19.3631971 C21.3493039,19.6238402 20.7828993,19.8718864 20.0805699,20.0926995 C19.3910984,20.3098556 18.6906009,20.4192505 17.9991221,20.4192505 C17.3081863,20.4192505 16.6077358,20.3098864 15.9174566,20.092631 C15.2158083,19.8720395 14.6489663,19.6238438 14.2300698,19.3635973 C13.7911516,19.0905954 13.3942424,18.8416207 13.0500324,18.6233411 C12.6975391,18.3997825 12.5213424,18.275116 12.3260237,18.275116 C11.6755549,18.275116 11.0671797,18.3797415 10.5185361,18.5912698 C9.98051565,18.7985998 9.51311762,19.0809057 9.13229451,19.4355842 C8.75584989,19.7861984 8.42162895,20.2127988 8.13646925,20.7015407 C7.85115051,21.1904235 7.61988858,21.7001759 7.44987939,22.2171039 C7.28012354,22.7337843 7.13845529,23.2992056 7.02814414,23.8974208 C6.91766778,24.4957757 6.84264158,25.0631832 6.80561634,25.5844216 C6.76864191,26.1021296 6.75,26.6406367 6.75,27.1847229 C6.75,28.4120799 7.13442644,29.4160304 7.92855024,30.1522304 C8.72838037,30.8930732 9.79220533,31.25 11.0743823,31.25 L25.2057049,31.244188 C26.3634722,31.1954535 27.330759,30.8379301 28.0715345,30.1519485 C28.8657478,29.4163778 29.25,28.4120879 29.25,27.1845093 C29.25,26.6387131 29.2309345,26.1003547 29.1937784,25.5845236 C29.1566973,25.0637261 29.0814199,24.496348 28.9711492,23.8971589 C28.8609027,23.2992944 28.7192656,22.7337523 28.5492572,22.2169342 C28.379317,21.7006061 28.148334,21.1907333 27.8627091,20.7020128 C27.5771418,20.2127157 27.2429657,19.78592 26.866525,19.4354975 C26.4858917,19.0810114 26.018593,18.798685 25.4802345,18.5910053 C24.931724,18.3797878 24.3230518,18.2753296 23.6726595,18.2753296 Z M17.8184977,4.75 C16.1183324,4.75 14.645877,5.34201937 13.4428139,6.51302759 C12.2477396,7.67625984 11.6398074,9.0992018 11.6398074,10.7436523 C11.6398074,12.3884951 12.247726,13.8114588 13.4428139,14.9747043 C14.6461739,16.1454291 16.1188488,16.7377319 17.8184977,16.7377319 C19.5184799,16.7377319 20.9911355,16.1456961 22.1944011,14.9744907 C23.3892557,13.8112827 23.9971881,12.3885054 23.9971881,10.7436523 C23.9971881,9.0993613 23.3894257,7.67640104 22.1941379,6.51277139 C20.9909859,5.34205833 19.5183126,4.75 17.8184977,4.75 Z" id="Combined-Shape" stroke="#D3D3D3" stroke-width="1.5" fill="#D3D3D3" fill-rule="nonzero"></path>
            </g>
        </g>
    </g>
</svg>