<svg width="21" height="24" viewBox="0 0 21 24" fill="none" xmlns="http://www.w3.org/2000/svg">
<g clip-path="url(#clip0_107_1262)">
<path d="M17.5816 7.72266H3.57565C2.82289 7.72347 2.10119 8.02287 1.5689 8.55515C1.03661 9.08744 0.737219 9.80914 0.736404 10.5619L0.736404 21.1611C0.73732 21.9138 1.03676 22.6354 1.56904 23.1676C2.10131 23.6998 2.82295 23.9992 3.57565 24H17.5816C18.3343 23.9992 19.0559 23.6998 19.5882 23.1676C20.1205 22.6354 20.4199 21.9138 20.4208 21.1611V10.5619C20.42 9.80914 20.1206 9.08744 19.5883 8.55515C19.056 8.02287 18.3343 7.72347 17.5816 7.72266ZM19.2851 17.5649H15.121C14.6692 17.5649 14.2359 17.3854 13.9164 17.0659C13.597 16.7464 13.4175 16.3131 13.4175 15.8613C13.4175 15.4095 13.597 14.9762 13.9164 14.6567C14.2359 14.3372 14.6692 14.1578 15.121 14.1578H19.2851V17.5649ZM19.2851 13.0225H15.121C14.3738 13.0312 13.6601 13.3341 13.1348 13.8656C12.6094 14.3971 12.3148 15.1142 12.3148 15.8615C12.3148 16.6088 12.6094 17.326 13.1348 17.8574C13.6601 18.3889 14.3738 18.6919 15.121 18.7006H19.2851V21.1611C19.2846 21.6128 19.105 22.0458 18.7856 22.3651C18.4662 22.6845 18.0332 22.8642 17.5816 22.8647H3.57565C3.124 22.8642 2.69099 22.6845 2.37162 22.3651C2.05226 22.0458 1.87261 21.6128 1.8721 21.1611V10.5619C1.87251 10.1102 2.05212 9.67715 2.37151 9.35776C2.6909 9.03837 3.12397 8.85876 3.57565 8.85836H17.5816C18.0333 8.85876 18.4663 9.03837 18.7857 9.35776C19.1051 9.67715 19.2847 10.1102 19.2851 10.5619V13.0225Z" fill="#7F8391" stroke="#7F8391"/>
<path d="M15.8784 15.2935H15.121C14.9704 15.2935 14.826 15.3533 14.7195 15.4598C14.613 15.5663 14.5532 15.7107 14.5532 15.8613C14.5532 16.0119 14.613 16.1564 14.7195 16.2629C14.826 16.3694 14.9704 16.4292 15.121 16.4292H15.8784C16.029 16.4292 16.1735 16.3694 16.2799 16.2629C16.3864 16.1564 16.4463 16.0119 16.4463 15.8613C16.4463 15.7107 16.3864 15.5663 16.2799 15.4598C16.1735 15.3533 16.029 15.2935 15.8784 15.2935Z" fill="#7F8391"/>
<path d="M5.01382 7.14827L5.02728 7.16365C5.21021 7.36886 5.40937 7.55902 5.62281 7.73227H8.24484L6.51976 6.89261C6.51438 6.88992 5.98151 6.62348 5.75084 6.03257C5.74281 6.01117 5.7333 5.99036 5.72239 5.97028L5.71239 5.94568C5.63107 5.71215 5.59737 5.4647 5.61329 5.21793C5.6292 4.97117 5.6944 4.73009 5.80504 4.50895C5.90993 4.29427 6.05668 4.10274 6.23666 3.9456C6.41664 3.78846 6.62623 3.6689 6.85309 3.59393C6.98303 3.55125 7.21871 3.54087 7.45092 3.54587L7.35981 4.25097C7.11736 4.24627 6.88065 4.32499 6.68931 4.47396C6.55511 4.57996 6.4481 4.71639 6.37714 4.87198C6.30617 5.02756 6.27329 5.19781 6.28122 5.36863C6.28915 5.53945 6.33766 5.70592 6.42273 5.85426C6.50781 6.0026 6.62699 6.12854 6.77043 6.22165C6.91386 6.31476 7.07741 6.37236 7.24754 6.38967C7.41766 6.40699 7.58947 6.38353 7.74872 6.32123C7.90797 6.25894 8.05009 6.1596 8.16331 6.03144C8.27653 5.90329 8.35759 5.75 8.39977 5.58428L8.78193 2.63585C8.78193 2.6297 8.86459 2.04186 9.35208 1.63202C9.36982 1.61744 9.38664 1.60177 9.40245 1.58512L9.42244 1.56782C9.61777 1.41639 9.84146 1.30564 10.0803 1.24212C10.3191 1.1786 10.5683 1.16358 10.813 1.19797C11.0502 1.2291 11.2788 1.30744 11.4852 1.42834C11.6916 1.54924 11.8717 1.71027 12.0149 1.90191C12.0998 2.01725 12.1879 2.24793 12.2586 2.47861L11.5843 2.5974C11.5354 2.43251 11.4478 2.28173 11.3287 2.15767C11.2096 2.03362 11.0625 1.9399 10.8997 1.88438C10.7369 1.82885 10.5632 1.81313 10.3931 1.83853C10.2231 1.86393 10.0615 1.92971 9.92208 2.03036C9.78264 2.13101 9.66934 2.26361 9.59167 2.41705C9.514 2.57048 9.47423 2.7403 9.47567 2.91227C9.47712 3.08424 9.51975 3.25336 9.59998 3.40547C9.68022 3.55758 9.79573 3.68825 9.93685 3.78654C10.1361 3.92914 10.3777 4.00014 10.6223 3.988L13.5504 3.47282C13.5562 3.47282 14.1444 3.37632 14.6784 3.71734C14.6977 3.72999 14.7177 3.74142 14.7384 3.75156L14.7476 3.75694L14.7607 3.7654C14.9637 3.90664 15.1364 4.08717 15.2685 4.29631C15.4006 4.50544 15.4893 4.73894 15.5296 4.98299C15.5706 5.2186 15.5641 5.46005 15.5102 5.69308C15.4564 5.92611 15.3565 6.14599 15.2163 6.33975C15.1336 6.45509 14.9402 6.60657 14.743 6.7419L14.4047 6.12138C14.5453 6.02239 14.6601 5.89117 14.7396 5.73869C14.8191 5.5862 14.8609 5.4169 14.8615 5.24495C14.8621 5.073 14.8215 4.90341 14.7431 4.75037C14.6647 4.59733 14.5508 4.46529 14.4109 4.36531C14.271 4.26534 14.1092 4.20033 13.939 4.17572C13.7688 4.15112 13.5952 4.16765 13.4327 4.22391C13.2703 4.28017 13.1236 4.37454 13.0051 4.49912C12.8866 4.62369 12.7996 4.77485 12.7515 4.93993C12.6801 5.17424 12.6899 5.42579 12.7792 5.65387L13.9133 7.73381H15.3954C15.6507 7.56465 15.9521 7.33282 16.1847 7.02025C16.6457 6.36098 16.8263 5.54576 16.6869 4.75348C16.5475 3.9612 16.0995 3.25658 15.4412 2.79425C15.1831 2.61432 14.8999 2.47338 14.6008 2.37595C14.5711 2.36942 13.9133 2.22217 13.4354 2.2733C13.352 1.95997 13.2175 1.54283 12.9545 1.18066C12.4627 0.544454 11.7387 0.129222 10.9413 0.0260166C10.1438 -0.0771888 9.33795 0.140056 8.70042 0.630116C8.45166 0.822661 8.2326 1.05079 8.0503 1.30715C8.03569 1.33291 7.71043 1.89653 7.61047 2.36365C7.29176 2.34558 6.87462 2.34674 6.46901 2.47438C6.02104 2.62805 5.61538 2.8847 5.28465 3.22368C4.95392 3.56267 4.70735 3.97453 4.56476 4.42615C4.42217 4.87777 4.38755 5.35655 4.46367 5.82398C4.5398 6.29142 4.72454 6.73447 5.00306 7.11752L5.01382 7.14827Z" fill="#7F8391"/>
</g>
<defs>
<clipPath id="clip0_107_1262">
<rect width="19.6844" height="24" fill="white" transform="translate(0.736404)"/>
</clipPath>
</defs>
</svg>
