<svg width="292" height="84" viewBox="0 0 292 84" fill="none" xmlns="http://www.w3.org/2000/svg">
<path d="M33.6463 43.9337C33.6463 48.9605 37.7224 53.0247 42.7373 53.0247C47.764 53.0247 51.8282 48.9486 51.8282 43.9337C51.8282 38.9069 47.7522 34.8428 42.7373 34.8428C37.7224 34.8428 33.6463 38.9188 33.6463 43.9337ZM31.0676 17.2312C31.5548 15.6388 32.1727 14.0227 32.755 13.2383C34.7634 10.5526 37.7343 8.80576 41.1092 8.34229C44.5792 7.86695 48.0136 8.78199 50.7706 10.9092L50.9132 11.028C50.9845 11.0993 51.1033 11.23 51.2578 11.3488C54.6446 14.2009 55.2151 18.277 55.2151 18.3245L57.8651 38.8119C58.2573 40.4043 59.2317 41.866 60.6221 42.9355C61.9412 43.9575 63.5336 44.4922 65.1735 44.4922C65.4944 44.4922 65.8271 44.4685 66.148 44.4328C68.1325 44.1714 69.8913 43.1613 71.1034 41.5808C73.6228 38.3128 73.0167 33.6187 69.7487 31.0994C68.4059 30.0655 66.7778 29.507 65.0903 29.5545L64.4605 24.6585C66.0767 24.6228 67.7047 24.6941 68.6079 24.9912C71.7927 26.037 74.3952 28.2949 75.9044 31.349C77.4612 34.4862 77.687 38.0276 76.5461 41.3312L76.4748 41.4976C76.4273 41.5808 76.356 41.7471 76.2728 41.9254C74.6566 46.0252 70.9608 47.8791 70.9252 47.9028L52.3511 56.9463C50.9726 57.8257 49.8912 59.216 49.3208 60.8797C48.6672 62.7692 48.786 64.8013 49.6654 66.5958C50.5329 68.3902 52.054 69.733 53.9435 70.3866C54.7397 70.66 55.5716 70.8026 56.3915 70.8026C57.5086 70.8026 58.6257 70.553 59.6595 70.042C61.454 69.1626 62.8087 67.6534 63.4504 65.7639C64.0089 64.1596 63.9971 62.4365 63.4385 60.856L67.8117 58.7288C68.3346 60.2737 68.7743 62.0325 68.7624 63.0544C68.7267 66.4175 67.3601 69.5667 64.9121 71.9315C62.3928 74.3676 59.101 75.6511 55.5953 75.5679L55.4052 75.556C55.3101 75.5322 55.1319 75.5085 54.9299 75.4966C50.521 75.1995 47.6452 72.2405 47.6096 72.2167L33.4086 57.2552C32.149 56.1976 30.4971 55.6034 28.7384 55.5559C26.73 55.4965 24.8524 56.2332 23.4026 57.6117C21.9528 58.9902 21.1329 60.8441 21.0853 62.8405C20.9784 66.9641 24.2583 70.3985 28.37 70.4936C30.0693 70.5411 31.6974 70.0064 33.0402 68.9963L36.4152 72.5376C35.0961 73.5239 33.6701 74.4627 32.7432 74.7479C29.5346 75.7461 26.1121 75.4134 23.1174 73.7972C20.0277 72.1454 17.7936 69.3884 16.8072 66.0372L16.7597 65.859C16.7478 65.7639 16.724 65.5857 16.6646 65.3955C15.607 61.1293 17.5321 57.4573 17.5559 57.4216L27.4431 39.2872C28.061 37.7661 28.1323 36.0073 27.6332 34.3318C26.4686 30.3745 22.3093 28.1047 18.3521 29.2693C14.3949 30.4339 12.1251 34.5932 13.2897 38.5504C13.765 40.1785 14.7751 41.5689 16.1536 42.5433L13.8007 46.8571C12.4341 45.9183 11.0912 44.8606 10.5089 44.0644C8.53623 41.3431 7.7638 37.9919 8.33421 34.6407C8.91651 31.1945 10.806 28.1879 13.67 26.1796C13.7056 26.1558 13.7294 26.1439 13.765 26.1202L13.8244 26.0845C13.9195 26.037 14.074 25.9538 14.2404 25.8469C17.9481 23.482 22.036 24.1356 22.0836 24.1475L42.4283 27.7245C44.0682 27.8314 45.7557 27.3323 47.1936 26.3222C48.8336 25.1814 49.9269 23.4583 50.2715 21.4975C50.6161 19.5367 50.1764 17.5521 49.0356 15.9122C47.8948 14.2722 46.1716 13.1908 44.2108 12.8343C42.2382 12.4897 40.2655 12.9294 38.6255 14.0702C37.2352 15.0447 36.2369 16.435 35.7497 18.0512L31.0676 17.2312ZM40.2298 0.202021C34.6445 0.926922 29.6772 3.77899 26.2428 8.22346C24.4127 10.7309 23.4858 13.6424 22.9035 15.8171C19.5761 15.4606 15.0128 16.4826 14.8108 16.5301C12.7787 17.1837 10.7228 18.2057 8.97593 19.4416C4.37697 22.662 1.29912 27.4987 0.32466 33.0483C-0.649797 38.598 0.586097 44.1952 3.80656 48.7941C5.61286 51.2184 8.01336 52.9415 9.89097 54.1417C8.53623 57.2077 8.10842 61.8898 8.08466 62.1038C8.04901 64.2903 8.33421 66.3819 8.91651 68.3664C10.497 73.7616 14.0978 78.2179 19.0532 80.9155C22.2024 82.6267 25.6486 83.5061 29.1305 83.5061C31.127 83.5061 33.1234 83.2209 35.0842 82.6386C37.9957 81.6879 40.4319 79.9292 42.1669 78.515C44.6386 80.7373 48.8098 82.5792 48.9999 82.6624C51.0201 83.3398 53.278 83.7319 55.4171 83.7913C55.5953 83.7913 55.7617 83.8032 55.94 83.8032C67.3245 83.8032 76.7244 74.6885 76.9977 63.2446C76.9858 60.1905 76.0351 57.279 75.2033 55.1043C78.091 53.4406 81.1689 49.9587 81.2996 49.7923L81.3947 49.6854L81.466 49.4715C82.69 47.7721 83.6525 45.942 84.318 44.0169C86.1481 38.7049 85.8035 32.9889 83.3436 27.9146C80.8718 22.8522 76.5937 19.0494 71.2817 17.2075C68.4653 16.3281 65.5657 16.3162 63.3553 16.435C62.6542 13.1908 60.3963 9.26922 60.3012 9.09096C59.0772 7.34407 57.4848 5.69225 55.7855 4.38505C52.0659 1.5211 47.5977 0 42.9749 0C42.0718 0.0237672 41.1449 0.0831854 40.2298 0.202021Z" fill="white"/>
<path d="M113.041 62.9714C109.952 62.9714 107.361 62.3891 105.234 61.2245C103.118 60.0599 101.276 58.5982 99.7197 56.8514L105.519 52.4901C106.386 53.9161 107.468 55.0094 108.739 55.7581C110.011 56.5186 111.437 56.8989 112.994 56.8989C114.681 56.8989 115.965 56.4473 116.844 55.5323C117.735 54.6291 118.175 53.5952 118.175 52.4425C118.175 51.7533 117.973 51.1591 117.569 50.6719C117.165 50.1846 116.63 49.7687 115.977 49.4241C115.323 49.0795 114.562 48.7705 113.707 48.4972C112.851 48.2239 111.972 47.9505 111.069 47.6772C109.916 47.3207 108.763 46.9167 107.61 46.5007C106.458 46.0729 105.424 45.5144 104.497 44.8014C103.582 44.0884 102.833 43.209 102.251 42.1632C101.681 41.1175 101.383 39.8103 101.383 38.2416C101.383 36.9107 101.669 35.6748 102.227 34.522C102.786 33.3693 103.57 32.3711 104.592 31.5036C105.602 30.648 106.802 29.9706 108.193 29.4834C109.583 28.9962 111.08 28.7585 112.697 28.7585C114.063 28.7585 115.311 28.8892 116.416 29.1388C117.521 29.3883 118.531 29.733 119.458 30.1608C120.373 30.6005 121.217 31.1233 121.978 31.7294C122.738 32.3355 123.463 33.0009 124.152 33.714L118.924 37.79C117.462 35.544 115.406 34.427 112.756 34.427C111.199 34.427 110.011 34.7835 109.203 35.5203C108.395 36.2452 107.991 37.1364 107.991 38.1941C107.991 38.8596 108.181 39.4181 108.549 39.8697C108.918 40.3212 109.429 40.7253 110.07 41.0699C110.712 41.4145 111.449 41.7235 112.293 41.9968C113.136 42.2702 114.016 42.5554 114.955 42.8643C116.107 43.2327 117.272 43.6487 118.436 44.1121C119.601 44.5875 120.659 45.1817 121.609 45.9303C122.56 46.6671 123.332 47.5821 123.927 48.6517C124.521 49.7212 124.818 51.064 124.818 52.6683C124.818 53.9636 124.556 55.2352 124.022 56.483C123.487 57.7189 122.726 58.824 121.728 59.7747C120.73 60.7254 119.506 61.4979 118.032 62.092C116.583 62.6862 114.907 62.9714 113.041 62.9714Z" fill="white"/>
<path d="M126.921 28.9128C126.921 27.7245 127.278 26.7738 127.991 26.037C128.704 25.3002 129.678 24.9437 130.89 24.9437C132.138 24.9437 133.112 25.3121 133.814 26.037C134.515 26.7738 134.859 27.7245 134.859 28.9128C134.859 30.1012 134.515 31.0519 133.814 31.7649C133.112 32.4779 132.138 32.8344 130.89 32.8344C129.619 32.8344 128.632 32.4779 127.943 31.7649C127.266 31.04 126.921 30.0893 126.921 28.9128ZM127.717 35.5914H134.075V62.9237H127.717V35.5914Z" fill="white"/>
<path d="M137.712 35.5914H143.974V39.3229C144.877 38.182 146.018 37.267 147.409 36.5778C148.799 35.8885 150.38 35.5439 152.15 35.5439C155.549 35.5439 158.199 36.554 160.112 38.5742C162.026 40.5944 162.988 43.4108 162.988 47.0116V62.9237H156.583V47.7246C156.583 45.6568 156.072 44.0169 155.038 42.8167C154.004 41.6164 152.471 41.0103 150.415 41.0103C148.609 41.0103 147.088 41.6283 145.864 42.8761C144.628 44.1239 144.022 45.9183 144.022 48.2593V62.9118H137.712V35.5914Z" fill="white"/>
<path d="M188.133 58.7763C187.135 60.0835 185.863 61.1174 184.307 61.8661C182.75 62.6147 181.051 62.9831 179.209 62.9831C177.557 62.9831 175.929 62.6742 174.324 62.0562C172.72 61.4383 171.282 60.547 169.999 59.3705C168.715 58.194 167.693 56.768 166.909 55.0687C166.125 53.3693 165.745 51.4442 165.745 49.2813C165.745 47.0948 166.125 45.1458 166.885 43.4465C167.646 41.7471 168.656 40.3211 169.916 39.1446C171.175 37.9681 172.625 37.0769 174.265 36.4708C175.905 35.8529 177.581 35.5439 179.292 35.5439C181.098 35.5439 182.762 35.9004 184.295 36.6015C185.816 37.3027 187.087 38.2533 188.086 39.4536V35.5914H194.396V61.8898C194.396 63.7912 194.087 65.5738 193.481 67.2375C192.875 68.9012 191.972 70.351 190.795 71.5988C189.607 72.8465 188.145 73.8329 186.374 74.5459C184.616 75.2708 182.584 75.6273 180.278 75.6273C178.496 75.6273 176.891 75.4372 175.442 75.045C173.992 74.6528 172.696 74.1062 171.544 73.4051C170.391 72.7039 169.381 71.884 168.502 70.9333C167.634 69.9826 166.885 68.9249 166.256 67.7722L171.865 64.3616C172.863 66.2036 173.98 67.5702 175.228 68.4734C176.475 69.3765 178.187 69.8281 180.373 69.8281C181.562 69.8281 182.631 69.6142 183.594 69.1745C184.556 68.7348 185.376 68.1644 186.042 67.4514C186.707 66.7384 187.23 65.8946 187.587 64.9321C187.943 63.9695 188.121 62.9713 188.121 61.9374V58.7763H188.133ZM180.243 57.1839C181.431 57.1839 182.512 56.9819 183.511 56.566C184.509 56.1619 185.364 55.5796 186.077 54.8547C186.79 54.118 187.361 53.2742 187.789 52.3117C188.216 51.3491 188.418 50.3033 188.418 49.1982C188.418 48.1167 188.205 47.0948 187.789 46.1203C187.373 45.1577 186.802 44.314 186.077 43.601C185.364 42.888 184.509 42.3175 183.511 41.9135C182.512 41.4976 181.419 41.2955 180.243 41.2955C179.09 41.2955 178.008 41.4976 176.998 41.9135C175.988 42.3294 175.109 42.8761 174.36 43.5772C173.611 44.2783 173.029 45.1102 172.613 46.0846C172.197 47.0472 171.983 48.093 171.983 49.1982C171.983 50.3152 172.197 51.361 172.613 52.3354C173.029 53.3099 173.623 54.1655 174.36 54.8785C175.109 55.5915 175.988 56.1619 176.998 56.566C178.008 56.9819 179.09 57.1839 180.243 57.1839Z" fill="white"/>
<path d="M209.727 62.9714C206.637 62.9714 204.046 62.3891 201.919 61.2245C199.804 60.0599 197.962 58.5982 196.405 56.8514L202.204 52.4901C203.072 53.9161 204.153 55.0094 205.425 55.7581C206.696 56.5186 208.122 56.8989 209.679 56.8989C211.367 56.8989 212.65 56.4473 213.529 55.5323C214.421 54.6291 214.86 53.5952 214.86 52.4425C214.86 51.7533 214.658 51.1591 214.254 50.6719C213.85 50.1846 213.316 49.7687 212.662 49.4241C212.008 49.0795 211.248 48.7705 210.392 48.4972C209.537 48.2239 208.657 47.9505 207.754 47.6772C206.601 47.3207 205.449 46.9167 204.296 46.5007C203.143 46.0729 202.109 45.5144 201.194 44.8014C200.279 44.0884 199.531 43.209 198.948 42.1632C198.366 41.1175 198.081 39.8103 198.081 38.2416C198.081 36.9107 198.366 35.6748 198.925 34.522C199.483 33.3693 200.267 32.3711 201.289 31.5036C202.299 30.648 203.5 29.9706 204.89 29.4834C206.28 28.9962 207.778 28.7585 209.394 28.7585C210.761 28.7585 211.996 28.8892 213.114 29.1388C214.219 29.3883 215.229 29.733 216.156 30.1608C217.071 30.6005 217.915 31.1233 218.675 31.7294C219.436 32.3355 220.161 33.0009 220.85 33.714L215.621 37.79C214.159 35.544 212.103 34.427 209.453 34.427C207.897 34.427 206.708 34.7835 205.9 35.5203C205.092 36.2452 204.688 37.1364 204.688 38.1941C204.688 38.8596 204.878 39.4181 205.247 39.8697C205.627 40.3212 206.126 40.7253 206.768 41.0699C207.409 41.4145 208.146 41.7235 208.99 41.9968C209.834 42.2702 210.713 42.5554 211.652 42.8643C212.805 43.2327 213.969 43.6487 215.134 44.1121C216.298 44.5875 217.356 45.1817 218.307 45.9303C219.257 46.6671 220.03 47.5821 220.624 48.6517C221.218 49.7212 221.515 51.064 221.515 52.6683C221.515 53.9636 221.254 55.2352 220.719 56.483C220.184 57.7189 219.424 58.824 218.426 59.7747C217.427 60.7254 216.191 61.4979 214.73 62.092C213.268 62.6862 211.592 62.9714 209.727 62.9714Z" fill="white"/>
<path d="M223.606 28.9128C223.606 27.7245 223.962 26.7738 224.675 26.037C225.388 25.3002 226.363 24.9437 227.575 24.9437C228.823 24.9437 229.797 25.3121 230.498 26.037C231.199 26.7738 231.556 27.7245 231.556 28.9128C231.556 30.1012 231.199 31.0519 230.498 31.7649C229.797 32.4779 228.823 32.8344 227.575 32.8344C226.303 32.8344 225.317 32.4779 224.628 31.7649C223.95 31.04 223.606 30.0893 223.606 28.9128ZM224.402 35.5914H230.76V62.9237H224.402V35.5914Z" fill="white"/>
<path d="M234.397 35.5914H240.659V39.3229C241.562 38.182 242.703 37.267 244.094 36.5778C245.484 35.8885 247.065 35.5439 248.835 35.5439C252.234 35.5439 254.884 36.554 256.797 38.5742C258.711 40.5944 259.673 43.4108 259.673 47.0116V62.9237H253.268V47.7246C253.268 45.6568 252.757 44.0169 251.723 42.8167C250.689 41.6164 249.156 41.0103 247.1 41.0103C245.294 41.0103 243.773 41.6283 242.537 42.8761C241.301 44.1239 240.695 45.9183 240.695 48.2593V62.9118H234.385V35.5914H234.397Z" fill="white"/>
<path d="M284.818 58.7763C283.82 60.0835 282.549 61.1174 280.992 61.8661C279.435 62.6147 277.736 62.9831 275.894 62.9831C274.242 62.9831 272.614 62.6742 271.01 62.0562C269.405 61.4383 267.967 60.547 266.684 59.3705C265.413 58.194 264.379 56.768 263.606 55.0687C262.822 53.3693 262.442 51.4442 262.442 49.2813C262.442 47.0948 262.822 45.1458 263.582 43.4465C264.343 41.7471 265.353 40.3211 266.625 39.1446C267.884 37.9681 269.334 37.0769 270.974 36.4708C272.614 35.8529 274.29 35.5439 276.001 35.5439C277.807 35.5439 279.471 35.9004 281.004 36.6015C282.525 37.3027 283.796 38.2533 284.795 39.4536V35.5914H291.105V61.8898C291.105 63.7912 290.796 65.5738 290.19 67.2375C289.584 68.9012 288.693 70.351 287.504 71.5988C286.316 72.8465 284.842 73.8329 283.083 74.5459C281.325 75.2708 279.293 75.6273 276.987 75.6273C275.205 75.6273 273.6 75.4372 272.151 75.045C270.701 74.6528 269.405 74.1062 268.253 73.4051C267.1 72.7039 266.09 71.884 265.211 70.9333C264.343 69.9826 263.594 68.9249 262.965 67.7722L268.574 64.3616C269.572 66.2036 270.689 67.5702 271.937 68.4734C273.184 69.3765 274.896 69.8281 277.082 69.8281C278.271 69.8281 279.34 69.6142 280.303 69.1745C281.265 68.7348 282.085 68.1644 282.751 67.4514C283.416 66.7384 283.939 65.8946 284.296 64.9321C284.652 63.9695 284.83 62.9713 284.83 61.9374V58.7763H284.818ZM276.928 57.1839C278.116 57.1839 279.198 56.9819 280.196 56.566C281.194 56.1619 282.05 55.5796 282.763 54.8547C283.476 54.118 284.046 53.2742 284.462 52.3117C284.878 51.3491 285.092 50.3033 285.092 49.1982C285.092 48.1167 284.878 47.0948 284.462 46.1203C284.046 45.1577 283.476 44.314 282.763 43.601C282.05 42.888 281.194 42.3175 280.196 41.9135C279.198 41.4976 278.104 41.2955 276.928 41.2955C275.775 41.2955 274.694 41.4976 273.684 41.9135C272.673 42.3294 271.794 42.8761 271.045 43.5772C270.297 44.2783 269.714 45.1102 269.298 46.0846C268.883 47.0472 268.669 48.093 268.669 49.1982C268.669 50.3152 268.883 51.361 269.298 52.3354C269.714 53.3099 270.309 54.1655 271.045 54.8785C271.794 55.5915 272.673 56.1619 273.684 56.566C274.682 56.9819 275.775 57.1839 276.928 57.1839Z" fill="white"/>
</svg>
