<svg width="128" height="128" viewBox="0 0 128 128" fill="none" xmlns="http://www.w3.org/2000/svg">
<path d="M53.3627 66.3764C53.3627 72.2547 58.1313 77.0074 63.9982 77.0074C69.8791 77.0074 74.6337 72.2408 74.6337 66.3764C74.6337 60.498 69.8651 55.7453 63.9982 55.7453C58.1313 55.7453 53.3627 60.5119 53.3627 66.3764ZM50.3459 35.1503C50.9159 33.2881 51.6388 31.3982 52.32 30.481C54.6696 27.3403 58.1452 25.2975 62.0936 24.7555C66.1531 24.1997 70.171 25.2697 73.3964 27.7572L73.5632 27.8962C73.6467 27.9796 73.7857 28.1324 73.9664 28.2714C77.9287 31.6066 78.596 36.3732 78.596 36.4288L81.6963 60.3868C82.1551 62.249 83.2951 63.9583 84.9217 65.209C86.4649 66.4041 88.3278 67.0295 90.2464 67.0295C90.6217 67.0295 91.011 67.0017 91.3864 66.96C93.7081 66.6543 95.7657 65.4731 97.1838 63.6248C100.131 59.8032 99.4221 54.314 95.5989 51.3678C94.0279 50.1588 92.1232 49.5057 90.1491 49.5613L89.4122 43.8358C91.303 43.7941 93.2076 43.8775 94.2642 44.2249C97.9901 45.4478 101.035 48.0882 102.8 51.6597C104.622 55.3284 104.886 59.4697 103.551 63.333L103.468 63.5275C103.412 63.6248 103.329 63.8194 103.231 64.0278C101.341 68.8222 97.0169 70.9901 96.9752 71.0179L75.2455 81.5933C73.6328 82.6217 72.3676 84.2476 71.7003 86.1931C70.9356 88.4027 71.0747 90.7791 72.1035 92.8775C73.1184 94.9759 74.8979 96.5462 77.1084 97.3106C78.0399 97.6302 79.0131 97.7969 79.9724 97.7969C81.2792 97.7969 82.586 97.5051 83.7956 96.9075C85.8949 95.8792 87.4798 94.1143 88.2305 91.9047C88.8839 90.0286 88.87 88.0136 88.2166 86.1654L93.3328 83.6778C93.9445 85.4844 94.4589 87.5411 94.445 88.7363C94.4033 92.669 92.8045 96.3517 89.9405 99.1171C86.9932 101.966 83.1421 103.467 79.0409 103.37L78.8184 103.356C78.7072 103.328 78.4987 103.3 78.2623 103.286C73.1045 102.939 69.74 99.4785 69.6983 99.4507L53.0847 81.9546C51.611 80.7178 49.6786 80.023 47.621 79.9674C45.2714 79.8979 43.0748 80.7595 41.3787 82.3715C39.6826 83.9836 38.7233 86.1515 38.6677 88.4861C38.5426 93.3083 42.3797 97.3245 47.19 97.4356C49.1781 97.4912 51.0827 96.8659 52.6537 95.6846L56.6021 99.8259C55.0589 100.979 53.3906 102.077 52.3061 102.411C48.5524 103.578 44.5485 103.189 41.045 101.299C37.4303 99.3673 34.8167 96.1432 33.6627 92.2243L33.6071 92.0159C33.5932 91.9047 33.5654 91.6963 33.4959 91.4739C32.2586 86.485 34.5108 82.1909 34.5386 82.1492L46.1056 60.9427C46.8285 59.1639 46.9119 57.1072 46.328 55.1478C44.9656 50.5201 40.0997 47.8659 35.4701 49.2277C30.8405 50.5896 28.1851 55.4535 29.5476 60.0811C30.1037 61.985 31.2854 63.6109 32.8981 64.7504L30.1454 69.795C28.5466 68.6971 26.9756 67.4603 26.2944 66.5292C23.9865 63.3469 23.0829 59.428 23.7502 55.5091C24.4314 51.479 26.6419 47.9631 29.9925 45.6146C30.0342 45.5868 30.062 45.5729 30.1037 45.5451L30.1732 45.5034C30.2844 45.4478 30.4651 45.3505 30.6598 45.2255C34.9974 42.46 39.7799 43.2243 39.8355 43.2382L63.6368 47.4212C65.5553 47.5462 67.5295 46.9626 69.2117 45.7813C71.1303 44.4473 72.4093 42.4322 72.8125 40.1393C73.2157 37.8463 72.7013 35.5255 71.3666 33.6078C70.032 31.69 68.0161 30.4254 65.7222 30.0085C63.4143 29.6055 61.1065 30.1197 59.1879 31.4538C57.5613 32.5933 56.3935 34.2192 55.8235 36.1092L50.3459 35.1503ZM61.0648 15.2362C54.5306 16.0839 48.7193 19.4192 44.7014 24.6166C42.5604 27.5488 41.476 30.9535 40.7948 33.4966C36.902 33.0797 31.5634 34.2748 31.3271 34.3304C28.9498 35.0947 26.5446 36.2899 24.5009 37.7351C19.1206 41.5011 15.5198 47.1571 14.3798 53.6469C13.2398 60.1367 14.6857 66.6821 18.4533 72.0601C20.5665 74.8951 23.3748 76.9101 25.5714 78.3137C23.9865 81.899 23.486 87.3744 23.4582 87.6245C23.4165 90.1815 23.7502 92.6273 24.4314 94.9481C26.2805 101.257 30.4929 106.469 36.2903 109.623C39.9745 111.624 44.0063 112.653 48.0798 112.653C50.4154 112.653 52.751 112.319 55.045 111.638C58.4511 110.526 61.3011 108.47 63.3309 106.816C66.2227 109.415 71.1025 111.569 71.3249 111.666C73.6884 112.458 76.3299 112.917 78.8323 112.986C79.0409 112.986 79.2355 113 79.444 113C92.7627 113 103.76 102.341 104.079 88.9586C104.066 85.3871 102.953 81.9824 101.98 79.4393C105.359 77.4938 108.959 73.422 109.112 73.2275L109.223 73.1024L109.307 72.8522C110.739 70.865 111.865 68.7249 112.643 66.4736C114.784 60.2618 114.381 53.5774 111.503 47.6435C108.612 41.7235 103.607 37.2765 97.3923 35.1225C94.0974 34.0942 90.7052 34.0803 88.1193 34.2192C87.299 30.4254 84.6575 25.8395 84.5463 25.631C83.1143 23.5882 81.2514 21.6566 79.2633 20.1279C74.9118 16.7788 69.6844 15 64.2763 15C63.2197 15.0278 62.1353 15.0973 61.0648 15.2362Z" fill="white"/>
</svg>
