<svg width="168" height="46" viewBox="0 0 168 46" fill="none" xmlns="http://www.w3.org/2000/svg">
<path d="M12.025 33.952C9.3185 33.952 7.04924 33.4419 5.18595 32.4218C3.33306 31.4017 1.7196 30.1213 0.355957 28.5911L5.43577 24.7708C6.19566 26.02 7.14292 26.9777 8.25673 27.6335C9.37055 28.2997 10.6197 28.6328 11.9833 28.6328C13.4615 28.6328 14.5857 28.2372 15.356 27.4357C16.1367 26.6446 16.5218 25.7389 16.5218 24.7292C16.5218 24.1255 16.3449 23.605 15.991 23.1782C15.637 22.7514 15.1686 22.3871 14.5961 22.0852C14.0236 21.7833 13.3574 21.5127 12.6079 21.2733C11.8584 21.0339 11.0881 20.7944 10.297 20.555C9.28727 20.2427 8.27756 19.8888 7.26784 19.5245C6.25812 19.1497 5.35249 18.6605 4.54056 18.0359C3.73903 17.4114 3.08323 16.6411 2.57317 15.725C2.07352 14.809 1.81328 13.664 1.81328 12.2899C1.81328 11.124 2.06311 10.0415 2.55235 9.03174C3.0416 8.02202 3.72862 7.14763 4.62383 6.38774C5.50864 5.63826 6.55999 5.04492 7.7779 4.61813C8.99581 4.19134 10.3074 3.98315 11.7231 3.98315C12.9202 3.98315 14.0132 4.09766 14.9812 4.31626C15.9493 4.53486 16.8341 4.83673 17.6461 5.21147C18.4476 5.59662 19.1867 6.05464 19.8529 6.58552C20.5191 7.1164 21.1541 7.69933 21.7578 8.3239L17.1776 11.8943C15.8973 9.92696 14.0964 8.94847 11.7751 8.94847C10.4115 8.94847 9.37055 9.26075 8.6627 9.90614C7.95486 10.5411 7.60094 11.3218 7.60094 12.2483C7.60094 12.8312 7.76749 13.3204 8.09019 13.716C8.41288 14.1116 8.86049 14.4655 9.4226 14.7674C9.98471 15.0692 10.6301 15.3399 11.3692 15.5793C12.1082 15.8187 12.8785 16.0685 13.7009 16.3392C14.7106 16.6619 15.7307 17.0262 16.7509 17.4322C17.771 17.8486 18.6974 18.369 19.5302 19.0248C20.3629 19.6702 21.0396 20.4717 21.56 21.4086C22.0805 22.3454 22.3407 23.5217 22.3407 24.927C22.3407 26.0616 22.1117 27.1754 21.6433 28.2684C21.1749 29.351 20.5087 30.3191 19.6343 31.1518C18.7599 31.9846 17.6877 32.6612 16.3969 33.1817C15.127 33.7022 13.6592 33.952 12.025 33.952Z" fill="white"/>
<path d="M24.1831 4.11861C24.1831 3.07766 24.4954 2.2449 25.1199 1.59951C25.7445 0.954128 26.5981 0.641846 27.6598 0.641846C28.7528 0.641846 29.6064 0.964537 30.2206 1.59951C30.8347 2.2449 31.1366 3.07766 31.1366 4.11861C31.1366 5.15955 30.8347 5.99231 30.2206 6.61687C29.6064 7.24144 28.7528 7.55373 27.6598 7.55373C26.546 7.55373 25.682 7.24144 25.0783 6.61687C24.4849 5.9819 24.1831 5.14914 24.1831 4.11861ZM24.8805 9.96872H30.4496V33.9105H24.8805V9.96872Z" fill="white"/>
<path d="M33.635 9.96888H39.1208V13.2375C39.9119 12.2381 40.9112 11.4366 42.1291 10.8329C43.347 10.2291 44.7315 9.92725 46.2825 9.92725C49.2596 9.92725 51.5809 10.812 53.2568 12.5817C54.9327 14.3513 55.7759 16.8183 55.7759 19.9724V33.9106H50.1652V20.5969C50.1652 18.7857 49.7176 17.3492 48.812 16.2978C47.9064 15.2465 46.5635 14.7156 44.7627 14.7156C43.1805 14.7156 41.848 15.2569 40.7759 16.3499C39.6933 17.4429 39.1624 19.0147 39.1624 21.0654V33.9002H33.635V9.96888Z" fill="white"/>
<path d="M77.8018 30.2777C76.9274 31.4228 75.8136 32.3284 74.4499 32.9842C73.0863 33.64 71.5977 33.9627 69.9843 33.9627C68.5374 33.9627 67.1113 33.692 65.706 33.1508C64.3007 32.6095 63.0412 31.8288 61.9169 30.7982C60.7927 29.7677 59.8975 28.5185 59.2105 27.03C58.5235 25.5414 58.1904 23.8551 58.1904 21.9606C58.1904 20.0452 58.5235 18.3381 59.1897 16.8495C59.8559 15.361 60.7407 14.1119 61.8441 13.0813C62.9475 12.0508 64.2174 11.2701 65.654 10.7392C67.0905 10.1979 68.5582 9.92725 70.0571 9.92725C71.6394 9.92725 73.0967 10.2395 74.4395 10.8537C75.7719 11.4678 76.8857 12.3006 77.7601 13.352V9.96888H83.2876V33.005C83.2876 34.6705 83.0169 36.232 82.486 37.6893C81.9552 39.1466 81.164 40.4166 80.1335 41.5096C79.0926 42.6026 77.8122 43.4665 76.2612 44.0911C74.7206 44.7261 72.9406 45.0384 70.9211 45.0384C69.3597 45.0384 67.9544 44.8718 66.6845 44.5283C65.4145 44.1848 64.2799 43.7059 63.2702 43.0918C62.2605 42.4776 61.3757 41.7594 60.6054 40.9266C59.8455 40.0939 59.1897 39.1674 58.638 38.1577L63.5512 35.1702C64.4256 36.7837 65.4041 37.9807 66.4971 38.7719C67.5901 39.563 69.0891 39.9585 71.0044 39.9585C72.0454 39.9585 72.9822 39.7712 73.8254 39.386C74.6685 39.0009 75.3868 38.5012 75.9697 37.8766C76.5526 37.2521 77.0107 36.513 77.3229 35.6698C77.6352 34.8267 77.7914 33.9523 77.7914 33.0467V30.2777H77.8018ZM70.8899 28.8829C71.9309 28.8829 72.8781 28.7059 73.7525 28.3416C74.6269 27.9877 75.3764 27.4776 76.0009 26.8426C76.6255 26.1972 77.1252 25.4582 77.4999 24.615C77.8746 23.7718 78.0516 22.8558 78.0516 21.8877C78.0516 20.9405 77.8642 20.0452 77.4999 19.1917C77.1356 18.3485 76.6359 17.6094 76.0009 16.9849C75.3764 16.3603 74.6269 15.8606 73.7525 15.5067C72.8781 15.1424 71.9204 14.9654 70.8899 14.9654C69.8802 14.9654 68.9329 15.1424 68.0481 15.5067C67.1633 15.871 66.393 16.3499 65.7372 16.964C65.0814 17.5782 64.5714 18.3069 64.207 19.1604C63.8427 20.0036 63.6553 20.9196 63.6553 21.8877C63.6553 22.8662 63.8427 23.7822 64.207 24.6358C64.5714 25.4894 65.0918 26.2389 65.7372 26.8634C66.393 27.488 67.1633 27.9877 68.0481 28.3416C68.9329 28.7059 69.8802 28.8829 70.8899 28.8829Z" fill="white"/>
<path d="M96.7167 33.952C94.0103 33.952 91.741 33.4419 89.8777 32.4218C88.0248 31.4017 86.4114 30.1213 85.0477 28.5911L90.1276 24.7708C90.8874 26.02 91.8347 26.9777 92.9485 27.6335C94.0623 28.2997 95.3115 28.6328 96.6751 28.6328C98.1532 28.6328 99.2775 28.2372 100.048 27.4357C100.828 26.6446 101.214 25.7389 101.214 24.7292C101.214 24.1255 101.037 23.605 100.683 23.1782C100.329 22.7514 99.8604 22.3871 99.2879 22.0852C98.7154 21.7833 98.0491 21.5127 97.2997 21.2733C96.5502 21.0339 95.7799 20.7944 94.9888 20.555C93.979 20.2427 92.9693 19.8888 91.9596 19.5245C90.9499 19.1497 90.0443 18.6605 89.2427 18.0359C88.4412 17.4114 87.7854 16.6411 87.2754 15.725C86.7653 14.809 86.5155 13.664 86.5155 12.2899C86.5155 11.124 86.7653 10.0415 87.2545 9.03174C87.7438 8.02202 88.4308 7.14763 89.326 6.38774C90.2108 5.63826 91.2622 5.04492 92.4801 4.61813C93.698 4.19134 95.0096 3.98315 96.4253 3.98315C97.6224 3.98315 98.7049 4.09766 99.6834 4.31626C100.652 4.53486 101.536 4.83673 102.348 5.21147C103.15 5.59662 103.889 6.05464 104.555 6.58552C105.221 7.1164 105.856 7.69933 106.46 8.3239L101.88 11.8943C100.599 9.92696 98.7986 8.94847 96.4773 8.94847C95.1137 8.94847 94.0727 9.26075 93.3649 9.90614C92.6571 10.5411 92.3031 11.3218 92.3031 12.2483C92.3031 12.8312 92.4697 13.3204 92.7924 13.716C93.1255 14.1116 93.5627 14.4655 94.1248 14.7674C94.6869 15.0692 95.3323 15.3399 96.0714 15.5793C96.8104 15.8187 97.5807 16.0685 98.4031 16.3392C99.4128 16.6619 100.433 17.0262 101.453 17.4322C102.473 17.8486 103.4 18.369 104.232 19.0248C105.065 19.6702 105.742 20.4717 106.262 21.4086C106.783 22.3454 107.043 23.5217 107.043 24.927C107.043 26.0616 106.814 27.1754 106.345 28.2684C105.877 29.351 105.211 30.3191 104.336 31.1518C103.462 31.9846 102.379 32.6612 101.099 33.1817C99.8188 33.7022 98.351 33.952 96.7167 33.952Z" fill="white"/>
<path d="M108.874 4.11861C108.874 3.07766 109.186 2.2449 109.811 1.59951C110.435 0.954128 111.289 0.641846 112.351 0.641846C113.444 0.641846 114.297 0.964537 114.911 1.59951C115.526 2.2449 115.838 3.07766 115.838 4.11861C115.838 5.15955 115.526 5.99231 114.911 6.61687C114.297 7.24144 113.444 7.55373 112.351 7.55373C111.237 7.55373 110.373 7.24144 109.769 6.61687C109.176 5.9819 108.874 5.14914 108.874 4.11861ZM109.571 9.96872H115.14V33.9105H109.571V9.96872Z" fill="white"/>
<path d="M118.326 9.96888H123.812V13.2375C124.603 12.2381 125.603 11.4366 126.82 10.8329C128.038 10.2291 129.423 9.92725 130.974 9.92725C133.951 9.92725 136.272 10.812 137.948 12.5817C139.624 14.3513 140.467 16.8183 140.467 19.9724V33.9106H134.857V20.5969C134.857 18.7857 134.409 17.3492 133.503 16.2978C132.598 15.2465 131.255 14.7156 129.454 14.7156C127.872 14.7156 126.539 15.2569 125.457 16.3499C124.374 17.4429 123.843 19.0147 123.843 21.0654V33.9002H118.316V9.96888H118.326Z" fill="white"/>
<path d="M162.493 30.2777C161.619 31.4228 160.505 32.3284 159.142 32.9842C157.778 33.64 156.289 33.9627 154.676 33.9627C153.229 33.9627 151.803 33.692 150.398 33.1508C148.992 32.6095 147.733 31.8288 146.609 30.7982C145.495 29.7677 144.589 28.5185 143.913 27.03C143.225 25.5414 142.892 23.8551 142.892 21.9606C142.892 20.0452 143.225 18.3381 143.892 16.8495C144.558 15.361 145.443 14.1119 146.557 13.0813C147.66 12.0508 148.93 11.2701 150.366 10.7392C151.803 10.1979 153.271 9.92725 154.77 9.92725C156.352 9.92725 157.809 10.2395 159.152 10.8537C160.484 11.4678 161.598 12.3006 162.473 13.352V9.96888H168V33.005C168 34.6705 167.729 36.232 167.198 37.6893C166.668 39.1466 165.887 40.4166 164.846 41.5096C163.805 42.6026 162.514 43.4665 160.974 44.0911C159.433 44.7261 157.653 45.0384 155.634 45.0384C154.072 45.0384 152.667 44.8718 151.397 44.5283C150.127 44.1848 148.992 43.7059 147.983 43.0918C146.973 42.4776 146.088 41.7594 145.318 40.9266C144.558 40.0939 143.902 39.1674 143.35 38.1577L148.264 35.1702C149.138 36.7837 150.117 37.9807 151.21 38.7719C152.303 39.563 153.802 39.9585 155.717 39.9585C156.758 39.9585 157.695 39.7712 158.538 39.386C159.381 39.0009 160.099 38.5012 160.682 37.8766C161.265 37.2521 161.723 36.513 162.035 35.6698C162.348 34.8267 162.504 33.9523 162.504 33.0467V30.2777H162.493ZM155.582 28.8829C156.622 28.8829 157.57 28.7059 158.444 28.3416C159.319 27.9877 160.068 27.4776 160.693 26.8426C161.317 26.1972 161.817 25.4582 162.181 24.615C162.545 23.7718 162.733 22.8558 162.733 21.8877C162.733 20.9405 162.545 20.0452 162.181 19.1917C161.817 18.3485 161.317 17.6094 160.693 16.9849C160.068 16.3603 159.319 15.8606 158.444 15.5067C157.57 15.1424 156.612 14.9654 155.582 14.9654C154.572 14.9654 153.625 15.1424 152.74 15.5067C151.855 15.871 151.085 16.3499 150.429 16.964C149.773 17.5782 149.263 18.3069 148.899 19.1604C148.534 20.0036 148.347 20.9196 148.347 21.8877C148.347 22.8662 148.534 23.7822 148.899 24.6358C149.263 25.4894 149.783 26.2389 150.429 26.8634C151.085 27.488 151.855 27.9877 152.74 28.3416C153.614 28.7059 154.572 28.8829 155.582 28.8829Z" fill="white"/>
</svg>
